<?xml version="1.0" encoding="UTF-8" standalone="no"?>
<!DOCTYPE svg PUBLIC "-//W3C//DTD SVG 1.1//EN"
 "http://www.w3.org/Graphics/SVG/1.1/DTD/svg11.dtd">
<!-- Generated by graphviz version 2.44.0 (0)
 -->
<!-- Title: Carte reseau de Heuzef &#45; 28/07/2023 05:37 Pages: 1 -->
<svg width="4147pt" height="1762pt"
 viewBox="0.00 0.00 4146.50 1761.50" xmlns="http://www.w3.org/2000/svg" xmlns:xlink="http://www.w3.org/1999/xlink">
<g id="graph0" class="graph" transform="scale(1 1) rotate(0) translate(144 1617.5)">
<title>Carte reseau de Heuzef &#45; 28/07/2023 05:37</title>
<polygon fill="white" stroke="transparent" points="-144,144 -144,-1617.5 4002.5,-1617.5 4002.5,144 -144,144"/>
<text text-anchor="middle" x="1929.25" y="-9" font-family="Sans-Serif" font-size="15.00" fill="#2d3436">Carte reseau de Heuzef &#45; 28/07/2023 05:37</text>
<g id="clust1" class="cluster">
<title>cluster_[WIP] Zone GUEST 
 VLAN 20 
 DHCP : 192.168.10.???&#45;???</title>
<path fill="#e5f5fd" stroke="#aeb6be" d="M2119.5,-282C2119.5,-282 2272.5,-282 2272.5,-282 2278.5,-282 2284.5,-288 2284.5,-294 2284.5,-294 2284.5,-726.5 2284.5,-726.5 2284.5,-732.5 2278.5,-738.5 2272.5,-738.5 2272.5,-738.5 2119.5,-738.5 2119.5,-738.5 2113.5,-738.5 2107.5,-732.5 2107.5,-726.5 2107.5,-726.5 2107.5,-294 2107.5,-294 2107.5,-288 2113.5,-282 2119.5,-282"/>
<text text-anchor="middle" x="2196" y="-724.9" font-family="Sans-Serif" font-size="12.00" fill="#2d3436">[WIP] Zone GUEST </text>
<text text-anchor="middle" x="2196" y="-711.9" font-family="Sans-Serif" font-size="12.00" fill="#2d3436"> VLAN 20 </text>
<text text-anchor="middle" x="2196" y="-698.9" font-family="Sans-Serif" font-size="12.00" fill="#2d3436"> DHCP : 192.168.10.???&#45;???</text>
</g>
<g id="clust2" class="cluster">
<title>cluster_Zone HOME 
 VLAN 10 
 DHCP : 192.168.10.1&#45;99</title>
<path fill="#e5f5fd" stroke="#aeb6be" d="M2304.5,-282C2304.5,-282 3838.5,-282 3838.5,-282 3844.5,-282 3850.5,-288 3850.5,-294 3850.5,-294 3850.5,-726.5 3850.5,-726.5 3850.5,-732.5 3844.5,-738.5 3838.5,-738.5 3838.5,-738.5 2304.5,-738.5 2304.5,-738.5 2298.5,-738.5 2292.5,-732.5 2292.5,-726.5 2292.5,-726.5 2292.5,-294 2292.5,-294 2292.5,-288 2298.5,-282 2304.5,-282"/>
<text text-anchor="middle" x="2374.5" y="-724.9" font-family="Sans-Serif" font-size="12.00" fill="#2d3436">Zone HOME </text>
<text text-anchor="middle" x="2374.5" y="-711.9" font-family="Sans-Serif" font-size="12.00" fill="#2d3436"> VLAN 10 </text>
<text text-anchor="middle" x="2374.5" y="-698.9" font-family="Sans-Serif" font-size="12.00" fill="#2d3436"> DHCP : 192.168.10.1&#45;99</text>
</g>
<g id="clust3" class="cluster">
<title>cluster_Zone DMZ 
 VLAN 100 
 DHCP : 192.168.10.1&#45;99</title>
<path fill="#e5f5fd" stroke="#aeb6be" d="M553.5,-33C553.5,-33 2087.5,-33 2087.5,-33 2093.5,-33 2099.5,-39 2099.5,-45 2099.5,-45 2099.5,-498.5 2099.5,-498.5 2099.5,-504.5 2093.5,-510.5 2087.5,-510.5 2087.5,-510.5 553.5,-510.5 553.5,-510.5 547.5,-510.5 541.5,-504.5 541.5,-498.5 541.5,-498.5 541.5,-45 541.5,-45 541.5,-39 547.5,-33 553.5,-33"/>
<text text-anchor="middle" x="623.5" y="-496.9" font-family="Sans-Serif" font-size="12.00" fill="#2d3436">Zone DMZ </text>
<text text-anchor="middle" x="623.5" y="-483.9" font-family="Sans-Serif" font-size="12.00" fill="#2d3436"> VLAN 100 </text>
<text text-anchor="middle" x="623.5" y="-470.9" font-family="Sans-Serif" font-size="12.00" fill="#2d3436"> DHCP : 192.168.10.1&#45;99</text>
</g>
<g id="clust4" class="cluster">
<title>cluster_SPARE</title>
<path fill="#e5f5fd" stroke="#aeb6be" d="M1328.5,-1262.5C1328.5,-1262.5 1422.5,-1262.5 1422.5,-1262.5 1428.5,-1262.5 1434.5,-1268.5 1434.5,-1274.5 1434.5,-1274.5 1434.5,-1453.5 1434.5,-1453.5 1434.5,-1459.5 1428.5,-1465.5 1422.5,-1465.5 1422.5,-1465.5 1328.5,-1465.5 1328.5,-1465.5 1322.5,-1465.5 1316.5,-1459.5 1316.5,-1453.5 1316.5,-1453.5 1316.5,-1274.5 1316.5,-1274.5 1316.5,-1268.5 1322.5,-1262.5 1328.5,-1262.5"/>
<text text-anchor="middle" x="1344" y="-1451.9" font-family="Sans-Serif" font-size="12.00" fill="#2d3436">SPARE</text>
</g>
<!-- bd5b64fa0f29463b9dc866b7802f8303 -->
<g id="node1" class="node">
<title>bd5b64fa0f29463b9dc866b7802f8303</title>
<image xlink:href="icons/internet.png" width="101px" height="101px" preserveAspectRatio="xMinYMin meet" x="360" y="-1404"/>
<text text-anchor="middle" x="410.5" y="-1288.6" font-family="Sans-Serif" font-size="13.00" fill="#2d3436">Internet</text>
</g>
<!-- dd367679269249f5bcfddb280218d5df -->
<g id="node2" class="node">
<title>dd367679269249f5bcfddb280218d5df</title>
<image xlink:href="icons/router.png" width="101px" height="101px" preserveAspectRatio="xMinYMin meet" x="360" y="-1170"/>
<text text-anchor="middle" x="410.5" y="-1054.1" font-family="Sans-Serif" font-size="13.00" fill="#2d3436">Routeur Free </text>
<text text-anchor="middle" x="410.5" y="-1040.1" font-family="Sans-Serif" font-size="13.00" fill="#2d3436"> 192.168.0.1</text>
</g>
<!-- bd5b64fa0f29463b9dc866b7802f8303&#45;&gt;dd367679269249f5bcfddb280218d5df -->
<g id="edge1" class="edge">
<title>bd5b64fa0f29463b9dc866b7802f8303&#45;&gt;dd367679269249f5bcfddb280218d5df</title>
<path fill="none" stroke="red" stroke-width="2" d="M410.5,-1284.87C410.5,-1284.87 410.5,-1212.63 410.5,-1212.63"/>
<polygon fill="red" stroke="red" stroke-width="2" points="414,-1212.63 410.5,-1202.63 407,-1212.63 414,-1212.63"/>
<text text-anchor="middle" x="427.5" y="-1233.1" font-family="Sans-Serif" font-size="13.00" fill="#2d3436">FTTH</text>
</g>
<!-- 76d59a3815d9421b927f194817fc9c85 -->
<g id="node3" class="node">
<title>76d59a3815d9421b927f194817fc9c85</title>
<image xlink:href="icons/cloud-keys.png" width="101px" height="101px" preserveAspectRatio="xMinYMin meet" x="123" y="-935"/>
<text text-anchor="middle" x="173.5" y="-819.6" font-family="Sans-Serif" font-size="13.00" fill="#2d3436">Elocky EZY</text>
</g>
<!-- dd367679269249f5bcfddb280218d5df&#45;&gt;76d59a3815d9421b927f194817fc9c85 -->
<g id="edge10" class="edge">
<title>dd367679269249f5bcfddb280218d5df&#45;&gt;76d59a3815d9421b927f194817fc9c85</title>
<path fill="none" stroke="purple" d="M359.95,-1119C290.34,-1119 173.5,-1119 173.5,-1119 173.5,-1119 173.5,-963.27 173.5,-963.27"/>
<polygon fill="purple" stroke="purple" points="177,-963.27 173.5,-953.27 170,-963.27 177,-963.27"/>
</g>
<!-- bfeb1df37d2741ccbdd315fa548d807a -->
<g id="node5" class="node">
<title>bfeb1df37d2741ccbdd315fa548d807a</title>
<image xlink:href="icons/wifi.png" width="101px" height="101px" preserveAspectRatio="xMinYMin meet" x="360" y="-935"/>
<text text-anchor="middle" x="410.5" y="-819.1" font-family="Sans-Serif" font-size="13.00" fill="#2d3436">Wi&#45;Fi Free </text>
<text text-anchor="middle" x="410.5" y="-805.1" font-family="Sans-Serif" font-size="13.00" fill="#2d3436"> heuzef&#45;cognac &#160;</text>
<text text-anchor="middle" x="410.5" y="-791.1" font-family="Sans-Serif" font-size="13.00" fill="#2d3436"> &#160;192.168.0.0/24</text>
</g>
<!-- dd367679269249f5bcfddb280218d5df&#45;&gt;bfeb1df37d2741ccbdd315fa548d807a -->
<g id="edge3" class="edge">
<title>dd367679269249f5bcfddb280218d5df&#45;&gt;bfeb1df37d2741ccbdd315fa548d807a</title>
<path fill="none" stroke="blue" stroke-dasharray="1,5" d="M410.5,-1036.32C410.5,-1036.32 410.5,-991.63 410.5,-991.63"/>
<polygon fill="blue" stroke="blue" points="414,-991.63 410.5,-981.63 407,-991.63 414,-991.63"/>
</g>
<!-- 7eb5831db98b4f06b8cc72eaada83a4f -->
<g id="node12" class="node">
<title>7eb5831db98b4f06b8cc72eaada83a4f</title>
<image xlink:href="icons/firewall.png" width="101px" height="101px" preserveAspectRatio="xMinYMin meet" x="1728" y="-935"/>
<text text-anchor="middle" x="1778.5" y="-819.1" font-family="Sans-Serif" font-size="13.00" fill="#2d3436">firewall.heuzef.com </text>
<text text-anchor="middle" x="1778.5" y="-805.1" font-family="Sans-Serif" font-size="13.00" fill="#2d3436"> 192.168.0.2 </text>
<text text-anchor="middle" x="1778.5" y="-791.1" font-family="Sans-Serif" font-size="13.00" fill="#2d3436"> OpenVPN 10.100.0.0/24</text>
</g>
<!-- dd367679269249f5bcfddb280218d5df&#45;&gt;7eb5831db98b4f06b8cc72eaada83a4f -->
<g id="edge2" class="edge">
<title>dd367679269249f5bcfddb280218d5df&#45;&gt;7eb5831db98b4f06b8cc72eaada83a4f</title>
<path fill="none" stroke="red" stroke-width="2" d="M461.22,-1119C708.8,-1119 1778.5,-1119 1778.5,-1119 1778.5,-1119 1778.5,-991.57 1778.5,-991.57"/>
<polygon fill="red" stroke="red" stroke-width="2" points="1782,-991.57 1778.5,-981.57 1775,-991.57 1782,-991.57"/>
</g>
<!-- 4e299c160ecd4b0baf76a16605d0927c -->
<g id="node4" class="node">
<title>4e299c160ecd4b0baf76a16605d0927c</title>
<image xlink:href="icons/server-cloud.png" width="101px" height="101px" preserveAspectRatio="xMinYMin meet" x="0" y="-665.5"/>
<text text-anchor="middle" x="50.5" y="-550.1" font-family="Sans-Serif" font-size="13.00" fill="#2d3436">Serveur Elocky</text>
</g>
<!-- 76d59a3815d9421b927f194817fc9c85&#45;&gt;4e299c160ecd4b0baf76a16605d0927c -->
<g id="edge11" class="edge">
<title>76d59a3815d9421b927f194817fc9c85&#45;&gt;4e299c160ecd4b0baf76a16605d0927c</title>
<path fill="none" stroke="purple" d="M133.5,-805.8C133.5,-805.8 133.5,-615 133.5,-615 133.5,-615 118.45,-615 101.17,-615"/>
<polygon fill="purple" stroke="purple" points="130,-805.8 133.5,-815.8 137,-805.8 130,-805.8"/>
<text text-anchor="middle" x="103.5" y="-750.1" font-family="Sans-Serif" font-size="13.00" fill="#2d3436">VPN over HTTPS</text>
</g>
<!-- abe91641c2f6443da898afad8d0c45bc -->
<g id="node6" class="node">
<title>abe91641c2f6443da898afad8d0c45bc</title>
<image xlink:href="icons/devices.png" width="101px" height="101px" preserveAspectRatio="xMinYMin meet" x="144" y="-665.5"/>
<text text-anchor="middle" x="194.5" y="-550.1" font-family="Sans-Serif" font-size="13.00" fill="#2d3436">Peripheriques</text>
</g>
<!-- bfeb1df37d2741ccbdd315fa548d807a&#45;&gt;abe91641c2f6443da898afad8d0c45bc -->
<g id="edge4" class="edge">
<title>bfeb1df37d2741ccbdd315fa548d807a&#45;&gt;abe91641c2f6443da898afad8d0c45bc</title>
<path fill="none" stroke="blue" stroke-dasharray="1,5" d="M349.59,-801C349.59,-801 234.5,-801 234.5,-801 234.5,-801 234.5,-736.72 234.5,-683.73"/>
<polygon fill="blue" stroke="blue" points="349.59,-804.5 359.59,-801 349.59,-797.5 349.59,-804.5"/>
</g>
<!-- 9180c5a2523b47088cf3d16840d6374b -->
<g id="node7" class="node">
<title>9180c5a2523b47088cf3d16840d6374b</title>
<image xlink:href="icons/clock.png" width="101px" height="101px" preserveAspectRatio="xMinYMin meet" x="288" y="-665.5"/>
<text text-anchor="middle" x="338.5" y="-550.1" font-family="Sans-Serif" font-size="13.00" fill="#2d3436">Aura</text>
</g>
<!-- bfeb1df37d2741ccbdd315fa548d807a&#45;&gt;9180c5a2523b47088cf3d16840d6374b -->
<g id="edge6" class="edge">
<title>bfeb1df37d2741ccbdd315fa548d807a&#45;&gt;9180c5a2523b47088cf3d16840d6374b</title>
<path fill="none" stroke="purple" stroke-dasharray="1,5" d="M374.5,-777.2C374.5,-777.2 374.5,-683.86 374.5,-683.86"/>
<polygon fill="purple" stroke="purple" points="371,-777.2 374.5,-787.2 378,-777.2 371,-777.2"/>
</g>
<!-- d1fde9447f534ddfaccb4c3b6ba7153a -->
<g id="node9" class="node">
<title>d1fde9447f534ddfaccb4c3b6ba7153a</title>
<image xlink:href="icons/roborock.png" width="101px" height="101px" preserveAspectRatio="xMinYMin meet" x="432" y="-665.5"/>
<text text-anchor="middle" x="482.5" y="-550.1" font-family="Sans-Serif" font-size="13.00" fill="#2d3436">Dyad Pro</text>
</g>
<!-- bfeb1df37d2741ccbdd315fa548d807a&#45;&gt;d1fde9447f534ddfaccb4c3b6ba7153a -->
<g id="edge8" class="edge">
<title>bfeb1df37d2741ccbdd315fa548d807a&#45;&gt;d1fde9447f534ddfaccb4c3b6ba7153a</title>
<path fill="none" stroke="purple" stroke-dasharray="1,5" d="M446.5,-777.2C446.5,-777.2 446.5,-683.86 446.5,-683.86"/>
<polygon fill="purple" stroke="purple" points="443,-777.2 446.5,-787.2 450,-777.2 443,-777.2"/>
</g>
<!-- 599e815189e24b028c8f2c117eb7a1eb -->
<g id="node11" class="node">
<title>599e815189e24b028c8f2c117eb7a1eb</title>
<image xlink:href="icons/print.png" width="101px" height="101px" preserveAspectRatio="xMinYMin meet" x="576" y="-665.5"/>
<text text-anchor="middle" x="626.5" y="-550.1" font-family="Sans-Serif" font-size="13.00" fill="#2d3436">imprimante.heuzef.com</text>
</g>
<!-- bfeb1df37d2741ccbdd315fa548d807a&#45;&gt;599e815189e24b028c8f2c117eb7a1eb -->
<g id="edge5" class="edge">
<title>bfeb1df37d2741ccbdd315fa548d807a&#45;&gt;599e815189e24b028c8f2c117eb7a1eb</title>
<path fill="none" stroke="blue" stroke-dasharray="1,5" d="M471.14,-852C471.14,-852 626.5,-852 626.5,-852 626.5,-852 626.5,-753.55 626.5,-683.55"/>
<polygon fill="blue" stroke="blue" points="471.14,-848.5 461.14,-852 471.14,-855.5 471.14,-848.5"/>
</g>
<!-- b3e01cfb89a84c4783aeffb13c6b8b60 -->
<g id="node8" class="node">
<title>b3e01cfb89a84c4783aeffb13c6b8b60</title>
<image xlink:href="icons/server-cloud.png" width="101px" height="101px" preserveAspectRatio="xMinYMin meet" x="288" y="-437.5"/>
<text text-anchor="middle" x="338.5" y="-322.1" font-family="Sans-Serif" font-size="13.00" fill="#2d3436">Serveur Withings</text>
</g>
<!-- 9180c5a2523b47088cf3d16840d6374b&#45;&gt;b3e01cfb89a84c4783aeffb13c6b8b60 -->
<g id="edge7" class="edge">
<title>9180c5a2523b47088cf3d16840d6374b&#45;&gt;b3e01cfb89a84c4783aeffb13c6b8b60</title>
<path fill="none" stroke="purple" d="M338.5,-536.28C338.5,-536.28 338.5,-455.58 338.5,-455.58"/>
<polygon fill="purple" stroke="purple" points="335,-536.28 338.5,-546.28 342,-536.28 335,-536.28"/>
</g>
<!-- 5d6fae203dcf41f5afc9509eb25af50c -->
<g id="node10" class="node">
<title>5d6fae203dcf41f5afc9509eb25af50c</title>
<image xlink:href="icons/server-cloud.png" width="101px" height="101px" preserveAspectRatio="xMinYMin meet" x="432" y="-437.5"/>
<text text-anchor="middle" x="482.5" y="-322.1" font-family="Sans-Serif" font-size="13.00" fill="#2d3436">Serveur Roborock</text>
</g>
<!-- d1fde9447f534ddfaccb4c3b6ba7153a&#45;&gt;5d6fae203dcf41f5afc9509eb25af50c -->
<g id="edge9" class="edge">
<title>d1fde9447f534ddfaccb4c3b6ba7153a&#45;&gt;5d6fae203dcf41f5afc9509eb25af50c</title>
<path fill="none" stroke="purple" d="M482.5,-536.28C482.5,-536.28 482.5,-455.58 482.5,-455.58"/>
<polygon fill="purple" stroke="purple" points="479,-536.28 482.5,-546.28 486,-536.28 479,-536.28"/>
</g>
<!-- a3df22e9fef14128916480f507029ac9 -->
<g id="node13" class="node">
<title>a3df22e9fef14128916480f507029ac9</title>
<image xlink:href="icons/networking.png" width="101px" height="101px" preserveAspectRatio="xMinYMin meet" x="2116" y="-665.5"/>
<text text-anchor="middle" x="2166.5" y="-550.1" font-family="Sans-Serif" font-size="13.00" fill="#2d3436">192.168.20.0/24</text>
</g>
<!-- 7eb5831db98b4f06b8cc72eaada83a4f&#45;&gt;a3df22e9fef14128916480f507029ac9 -->
<g id="edge12" class="edge">
<title>7eb5831db98b4f06b8cc72eaada83a4f&#45;&gt;a3df22e9fef14128916480f507029ac9</title>
<path fill="none" stroke="#7b8894" stroke-dasharray="1,5" d="M1816,-787.2C1816,-710.01 1816,-615 1816,-615 1816,-615 2105.91,-615 2105.91,-615"/>
<polygon fill="#7b8894" stroke="#7b8894" points="2105.91,-618.5 2115.91,-615 2105.91,-611.5 2105.91,-618.5"/>
</g>
<!-- 6961fd6426134d2da9cb399fcbc4827f -->
<g id="node15" class="node">
<title>6961fd6426134d2da9cb399fcbc4827f</title>
<image xlink:href="icons/networking.png" width="101px" height="101px" preserveAspectRatio="xMinYMin meet" x="2948" y="-665.5"/>
<text text-anchor="middle" x="2998.5" y="-550.1" font-family="Sans-Serif" font-size="13.00" fill="#2d3436">192.168.10.0/24</text>
</g>
<!-- 7eb5831db98b4f06b8cc72eaada83a4f&#45;&gt;6961fd6426134d2da9cb399fcbc4827f -->
<g id="edge13" class="edge">
<title>7eb5831db98b4f06b8cc72eaada83a4f&#45;&gt;6961fd6426134d2da9cb399fcbc4827f</title>
<path fill="none" stroke="#7b8894" d="M1829.37,-884C2060.26,-884 2998.5,-884 2998.5,-884 2998.5,-884 2998.5,-693.58 2998.5,-693.58"/>
<polygon fill="#7b8894" stroke="#7b8894" points="3002,-693.58 2998.5,-683.58 2995,-693.58 3002,-693.58"/>
</g>
<!-- e0a2615a2b9e4439b447acdff1ece7e7 -->
<g id="node27" class="node">
<title>e0a2615a2b9e4439b447acdff1ece7e7</title>
<image xlink:href="icons/networking.png" width="101px" height="101px" preserveAspectRatio="xMinYMin meet" x="1341" y="-437.5"/>
<text text-anchor="middle" x="1391.5" y="-322.1" font-family="Sans-Serif" font-size="13.00" fill="#2d3436">192.168.100.0/24</text>
</g>
<!-- 7eb5831db98b4f06b8cc72eaada83a4f&#45;&gt;e0a2615a2b9e4439b447acdff1ece7e7 -->
<g id="edge14" class="edge">
<title>7eb5831db98b4f06b8cc72eaada83a4f&#45;&gt;e0a2615a2b9e4439b447acdff1ece7e7</title>
<path fill="none" stroke="#7b8894" d="M1727.67,-916C1631.84,-916 1434,-916 1434,-916 1434,-916 1434,-465.62 1434,-465.62"/>
<polygon fill="#7b8894" stroke="#7b8894" points="1437.5,-465.62 1434,-455.62 1430.5,-465.62 1437.5,-465.62"/>
</g>
<!-- 2bd294a2cc2645849eaddc3a7acafff7 -->
<g id="node14" class="node">
<title>2bd294a2cc2645849eaddc3a7acafff7</title>
<image xlink:href="icons/wifi.png" width="101px" height="101px" preserveAspectRatio="xMinYMin meet" x="2116" y="-437.5"/>
<text text-anchor="middle" x="2166.5" y="-321.6" font-family="Sans-Serif" font-size="13.00" fill="#2d3436">[WIP] </text>
<text text-anchor="middle" x="2166.5" y="-307.6" font-family="Sans-Serif" font-size="13.00" fill="#2d3436"> Wi&#45;Fi invite </text>
<text text-anchor="middle" x="2166.5" y="-293.6" font-family="Sans-Serif" font-size="13.00" fill="#2d3436"> 192.168.20.0/24</text>
</g>
<!-- a3df22e9fef14128916480f507029ac9&#45;&gt;2bd294a2cc2645849eaddc3a7acafff7 -->
<g id="edge15" class="edge">
<title>a3df22e9fef14128916480f507029ac9&#45;&gt;2bd294a2cc2645849eaddc3a7acafff7</title>
<path fill="none" stroke="blue" stroke-dasharray="1,5" d="M2166.5,-546.28C2166.5,-546.28 2166.5,-494.2 2166.5,-494.2"/>
<polygon fill="blue" stroke="blue" points="2170,-494.2 2166.5,-484.2 2163,-494.2 2170,-494.2"/>
</g>
<!-- abb5310e0e0c4f439d637584e1b117a7 -->
<g id="node16" class="node">
<title>abb5310e0e0c4f439d637584e1b117a7</title>
<image xlink:href="icons/server.png" width="101px" height="101px" preserveAspectRatio="xMinYMin meet" x="2301" y="-437.5"/>
<text text-anchor="middle" x="2351.5" y="-321.6" font-family="Sans-Serif" font-size="13.00" fill="#2d3436">pve.heuzef.com </text>
<text text-anchor="middle" x="2351.5" y="-307.6" font-family="Sans-Serif" font-size="13.00" fill="#2d3436"> 192.168.10.100</text>
</g>
<!-- 6961fd6426134d2da9cb399fcbc4827f&#45;&gt;abb5310e0e0c4f439d637584e1b117a7 -->
<g id="edge16" class="edge">
<title>6961fd6426134d2da9cb399fcbc4827f&#45;&gt;abb5310e0e0c4f439d637584e1b117a7</title>
<path fill="none" stroke="#7b8894" d="M2947.73,-656C2795.21,-656 2351.5,-656 2351.5,-656 2351.5,-656 2351.5,-549.27 2351.5,-470.27"/>
</g>
<!-- f5550d1e677642d3be97d05fdf29e778 -->
<g id="node17" class="node">
<title>f5550d1e677642d3be97d05fdf29e778</title>
<image xlink:href="icons/computer.png" width="101px" height="101px" preserveAspectRatio="xMinYMin meet" x="2445" y="-437.5"/>
<text text-anchor="middle" x="2495.5" y="-321.6" font-family="Sans-Serif" font-size="13.00" fill="#2d3436">pgmr.heuzef.com </text>
<text text-anchor="middle" x="2495.5" y="-307.6" font-family="Sans-Serif" font-size="13.00" fill="#2d3436"> 192.168.10.101</text>
</g>
<!-- 6961fd6426134d2da9cb399fcbc4827f&#45;&gt;f5550d1e677642d3be97d05fdf29e778 -->
<g id="edge17" class="edge">
<title>6961fd6426134d2da9cb399fcbc4827f&#45;&gt;f5550d1e677642d3be97d05fdf29e778</title>
<path fill="none" stroke="#7b8894" d="M2947.97,-628C2820.41,-628 2495.5,-628 2495.5,-628 2495.5,-628 2495.5,-539.94 2495.5,-470.28"/>
</g>
<!-- 6904f9625b854874889095ce6c41f7b2 -->
<g id="node18" class="node">
<title>6904f9625b854874889095ce6c41f7b2</title>
<image xlink:href="icons/files.png" width="101px" height="101px" preserveAspectRatio="xMinYMin meet" x="2589" y="-437.5"/>
<text text-anchor="middle" x="2639.5" y="-321.6" font-family="Sans-Serif" font-size="13.00" fill="#2d3436">files.heuzef.com </text>
<text text-anchor="middle" x="2639.5" y="-307.6" font-family="Sans-Serif" font-size="13.00" fill="#2d3436"> 192.168.10.110</text>
</g>
<!-- 6961fd6426134d2da9cb399fcbc4827f&#45;&gt;6904f9625b854874889095ce6c41f7b2 -->
<g id="edge18" class="edge">
<title>6961fd6426134d2da9cb399fcbc4827f&#45;&gt;6904f9625b854874889095ce6c41f7b2</title>
<path fill="none" stroke="#7b8894" d="M2947.83,-601C2848.87,-601 2639.5,-601 2639.5,-601 2639.5,-601 2639.5,-530.2 2639.5,-470.04"/>
</g>
<!-- e4eda39b7fc64ee6a2db47bc64229b3a -->
<g id="node19" class="node">
<title>e4eda39b7fc64ee6a2db47bc64229b3a</title>
<image xlink:href="icons/controls.png" width="101px" height="101px" preserveAspectRatio="xMinYMin meet" x="2733" y="-437.5"/>
<text text-anchor="middle" x="2783.5" y="-321.6" font-family="Sans-Serif" font-size="13.00" fill="#2d3436">bmc.heuzef.com </text>
<text text-anchor="middle" x="2783.5" y="-307.6" font-family="Sans-Serif" font-size="13.00" fill="#2d3436"> 192.168.10.111</text>
</g>
<!-- 6961fd6426134d2da9cb399fcbc4827f&#45;&gt;e4eda39b7fc64ee6a2db47bc64229b3a -->
<g id="edge23" class="edge">
<title>6961fd6426134d2da9cb399fcbc4827f&#45;&gt;e4eda39b7fc64ee6a2db47bc64229b3a</title>
<path fill="none" stroke="#7b8894" d="M2947.82,-573C2884.26,-573 2783.5,-573 2783.5,-573 2783.5,-573 2783.5,-519.73 2783.5,-470.21"/>
</g>
<!-- 1abfa4028ea4417daf3f8867a0b33ebe -->
<g id="node20" class="node">
<title>1abfa4028ea4417daf3f8867a0b33ebe</title>
<image xlink:href="icons/media-services.png" width="101px" height="101px" preserveAspectRatio="xMinYMin meet" x="2877" y="-437.5"/>
<text text-anchor="middle" x="2927.5" y="-321.6" font-family="Sans-Serif" font-size="13.00" fill="#2d3436">media.heuzef.com </text>
<text text-anchor="middle" x="2927.5" y="-307.6" font-family="Sans-Serif" font-size="13.00" fill="#2d3436"> 192.168.10.112</text>
</g>
<!-- 6961fd6426134d2da9cb399fcbc4827f&#45;&gt;1abfa4028ea4417daf3f8867a0b33ebe -->
<g id="edge20" class="edge">
<title>6961fd6426134d2da9cb399fcbc4827f&#45;&gt;1abfa4028ea4417daf3f8867a0b33ebe</title>
<path fill="none" stroke="#7b8894" d="M2963,-546.28C2963,-522.29 2963,-495.1 2963,-470.06"/>
</g>
<!-- cffab45335304622878a1e61e355409e -->
<g id="node21" class="node">
<title>cffab45335304622878a1e61e355409e</title>
<image xlink:href="icons/status-stopped.png" width="101px" height="101px" preserveAspectRatio="xMinYMin meet" x="3021" y="-437.5"/>
<text text-anchor="middle" x="3071.5" y="-321.6" font-family="Sans-Serif" font-size="13.00" fill="#2d3436">[VM STOPPED] </text>
<text text-anchor="middle" x="3071.5" y="-307.6" font-family="Sans-Serif" font-size="13.00" fill="#2d3436"> cao.heuzef.com </text>
<text text-anchor="middle" x="3071.5" y="-293.6" font-family="Sans-Serif" font-size="13.00" fill="#2d3436"> 192.168.10.113</text>
</g>
<!-- 6961fd6426134d2da9cb399fcbc4827f&#45;&gt;cffab45335304622878a1e61e355409e -->
<g id="edge21" class="edge">
<title>6961fd6426134d2da9cb399fcbc4827f&#45;&gt;cffab45335304622878a1e61e355409e</title>
<path fill="none" stroke="#7b8894" d="M3035,-546.28C3035,-526.75 3035,-505.09 3035,-484.2"/>
</g>
<!-- 815ae97b39aa4119b4a34595c53f24d5 -->
<g id="node22" class="node">
<title>815ae97b39aa4119b4a34595c53f24d5</title>
<image xlink:href="icons/borg.png" width="101px" height="101px" preserveAspectRatio="xMinYMin meet" x="3165" y="-437.5"/>
<text text-anchor="middle" x="3215.5" y="-321.6" font-family="Sans-Serif" font-size="13.00" fill="#2d3436">[VM] </text>
<text text-anchor="middle" x="3215.5" y="-307.6" font-family="Sans-Serif" font-size="13.00" fill="#2d3436"> backup.heuzef.com </text>
<text text-anchor="middle" x="3215.5" y="-293.6" font-family="Sans-Serif" font-size="13.00" fill="#2d3436"> 192.168.10.114</text>
</g>
<!-- 6961fd6426134d2da9cb399fcbc4827f&#45;&gt;815ae97b39aa4119b4a34595c53f24d5 -->
<g id="edge22" class="edge">
<title>6961fd6426134d2da9cb399fcbc4827f&#45;&gt;815ae97b39aa4119b4a34595c53f24d5</title>
<path fill="none" stroke="#7b8894" d="M3049.1,-569C3113.22,-569 3215.5,-569 3215.5,-569 3215.5,-569 3215.5,-527.5 3215.5,-484.13"/>
</g>
<!-- 065baad776a7494697b1fc88f00db92b -->
<g id="node23" class="node">
<title>065baad776a7494697b1fc88f00db92b</title>
<image xlink:href="icons/server.png" width="101px" height="101px" preserveAspectRatio="xMinYMin meet" x="3309" y="-437.5"/>
<text text-anchor="middle" x="3359.5" y="-321.6" font-family="Sans-Serif" font-size="13.00" fill="#2d3436">[VM] </text>
<text text-anchor="middle" x="3359.5" y="-307.6" font-family="Sans-Serif" font-size="13.00" fill="#2d3436"> wintest.heuzef.com </text>
<text text-anchor="middle" x="3359.5" y="-293.6" font-family="Sans-Serif" font-size="13.00" fill="#2d3436"> 192.168.10.149</text>
</g>
<!-- 6961fd6426134d2da9cb399fcbc4827f&#45;&gt;065baad776a7494697b1fc88f00db92b -->
<g id="edge24" class="edge">
<title>6961fd6426134d2da9cb399fcbc4827f&#45;&gt;065baad776a7494697b1fc88f00db92b</title>
<path fill="none" stroke="#7b8894" d="M3049.08,-592C3148.43,-592 3359.5,-592 3359.5,-592 3359.5,-592 3359.5,-537.08 3359.5,-484.1"/>
</g>
<!-- a7d547ffffcc4c52bf84be4407b2aab9 -->
<g id="node24" class="node">
<title>a7d547ffffcc4c52bf84be4407b2aab9</title>
<image xlink:href="icons/status-stopped.png" width="101px" height="101px" preserveAspectRatio="xMinYMin meet" x="3453" y="-437.5"/>
<text text-anchor="middle" x="3503.5" y="-321.6" font-family="Sans-Serif" font-size="13.00" fill="#2d3436">[VM STOPPED] </text>
<text text-anchor="middle" x="3503.5" y="-307.6" font-family="Sans-Serif" font-size="13.00" fill="#2d3436"> hongli.heuzef.com </text>
<text text-anchor="middle" x="3503.5" y="-293.6" font-family="Sans-Serif" font-size="13.00" fill="#2d3436"> 192.168.10.150</text>
</g>
<!-- 6961fd6426134d2da9cb399fcbc4827f&#45;&gt;a7d547ffffcc4c52bf84be4407b2aab9 -->
<g id="edge25" class="edge">
<title>6961fd6426134d2da9cb399fcbc4827f&#45;&gt;a7d547ffffcc4c52bf84be4407b2aab9</title>
<path fill="none" stroke="#7b8894" d="M3049.23,-615C3177.29,-615 3503.5,-615 3503.5,-615 3503.5,-615 3503.5,-546.08 3503.5,-484.02"/>
</g>
<!-- 438d6ce401d141f6ac840c6a764c08f2 -->
<g id="node25" class="node">
<title>438d6ce401d141f6ac840c6a764c08f2</title>
<image xlink:href="icons/switch.png" width="101px" height="101px" preserveAspectRatio="xMinYMin meet" x="3597" y="-437.5"/>
<text text-anchor="middle" x="3647.5" y="-321.6" font-family="Sans-Serif" font-size="13.00" fill="#2d3436">switch.heuzef.com </text>
<text text-anchor="middle" x="3647.5" y="-307.6" font-family="Sans-Serif" font-size="13.00" fill="#2d3436"> 192.168.10.201</text>
</g>
<!-- 6961fd6426134d2da9cb399fcbc4827f&#45;&gt;438d6ce401d141f6ac840c6a764c08f2 -->
<g id="edge26" class="edge">
<title>6961fd6426134d2da9cb399fcbc4827f&#45;&gt;438d6ce401d141f6ac840c6a764c08f2</title>
<path fill="none" stroke="#7b8894" d="M3049.16,-637C3201.9,-637 3647.5,-637 3647.5,-637 3647.5,-637 3647.5,-542.97 3647.5,-470.25"/>
</g>
<!-- 2a354c9126184d2f8d4e9b0b1861c947 -->
<g id="node26" class="node">
<title>2a354c9126184d2f8d4e9b0b1861c947</title>
<image xlink:href="icons/octoprint.png" width="101px" height="81.204px" preserveAspectRatio="xMinYMin meet" x="3741" y="-427.602"/>
<text text-anchor="middle" x="3791.5" y="-321.6" font-family="Sans-Serif" font-size="13.00" fill="#2d3436">octoprint.heuzef.com </text>
<text text-anchor="middle" x="3791.5" y="-307.6" font-family="Sans-Serif" font-size="13.00" fill="#2d3436"> 192.168.10.203</text>
</g>
<!-- 6961fd6426134d2da9cb399fcbc4827f&#45;&gt;2a354c9126184d2f8d4e9b0b1861c947 -->
<g id="edge27" class="edge">
<title>6961fd6426134d2da9cb399fcbc4827f&#45;&gt;2a354c9126184d2f8d4e9b0b1861c947</title>
<path fill="none" stroke="#7b8894" d="M3049.01,-660C3223.68,-660 3791.5,-660 3791.5,-660 3791.5,-660 3791.5,-550.34 3791.5,-470.02"/>
</g>
<!-- 5722ad8a9b7a4c91a358f2357e959965 -->
<g id="node32" class="node">
<title>5722ad8a9b7a4c91a358f2357e959965</title>
<image xlink:href="icons/networking-app-gw.png" width="101px" height="101px" preserveAspectRatio="xMinYMin meet" x="1990" y="-188.5"/>
<text text-anchor="middle" x="2040.5" y="-72.6" font-family="Sans-Serif" font-size="13.00" fill="#2d3436">[VM] </text>
<text text-anchor="middle" x="2040.5" y="-58.6" font-family="Sans-Serif" font-size="13.00" fill="#2d3436"> proxy.heuzef.com </text>
<text text-anchor="middle" x="2040.5" y="-44.6" font-family="Sans-Serif" font-size="13.00" fill="#2d3436"> 192.168.100.110</text>
</g>
<!-- 6904f9625b854874889095ce6c41f7b2&#45;&gt;5722ad8a9b7a4c91a358f2357e959965 -->
<g id="edge19" class="edge">
<title>6904f9625b854874889095ce6c41f7b2&#45;&gt;5722ad8a9b7a4c91a358f2357e959965</title>
<path fill="none" stroke="orange" d="M2639.5,-303.74C2639.5,-231.35 2639.5,-138 2639.5,-138 2639.5,-138 2235.47,-138 2091.05,-138"/>
</g>
<!-- 195c73d0f33d4bb18ba37fc82307a850 -->
<g id="node28" class="node">
<title>195c73d0f33d4bb18ba37fc82307a850</title>
<image xlink:href="icons/shlink.png" width="101px" height="101px" preserveAspectRatio="xMinYMin meet" x="550" y="-188.5"/>
<text text-anchor="middle" x="600.5" y="-72.6" font-family="Sans-Serif" font-size="13.00" fill="#2d3436">[VM] </text>
<text text-anchor="middle" x="600.5" y="-58.6" font-family="Sans-Serif" font-size="13.00" fill="#2d3436"> heuzef.link </text>
<text text-anchor="middle" x="600.5" y="-44.6" font-family="Sans-Serif" font-size="13.00" fill="#2d3436"> 192.168.100.103</text>
</g>
<!-- e0a2615a2b9e4439b447acdff1ece7e7&#45;&gt;195c73d0f33d4bb18ba37fc82307a850 -->
<g id="edge28" class="edge">
<title>e0a2615a2b9e4439b447acdff1ece7e7&#45;&gt;195c73d0f33d4bb18ba37fc82307a850</title>
<path fill="none" stroke="#7b8894" d="M1340.75,-432C1168.01,-432 613.5,-432 613.5,-432 613.5,-432 613.5,-320.72 613.5,-235.08"/>
</g>
<!-- abbb57fe230146a09a6276c99497f71e -->
<g id="node29" class="node">
<title>abbb57fe230146a09a6276c99497f71e</title>
<image xlink:href="icons/gitea.png" width="101px" height="101px" preserveAspectRatio="xMinYMin meet" x="694" y="-188.5"/>
<text text-anchor="middle" x="744.5" y="-72.6" font-family="Sans-Serif" font-size="13.00" fill="#2d3436">[VM] </text>
<text text-anchor="middle" x="744.5" y="-58.6" font-family="Sans-Serif" font-size="13.00" fill="#2d3436"> git.heuzef.com </text>
<text text-anchor="middle" x="744.5" y="-44.6" font-family="Sans-Serif" font-size="13.00" fill="#2d3436"> 192.168.100.104</text>
</g>
<!-- e0a2615a2b9e4439b447acdff1ece7e7&#45;&gt;abbb57fe230146a09a6276c99497f71e -->
<g id="edge29" class="edge">
<title>e0a2615a2b9e4439b447acdff1ece7e7&#45;&gt;abbb57fe230146a09a6276c99497f71e</title>
<path fill="none" stroke="#7b8894" d="M1340.73,-409C1188.21,-409 744.5,-409 744.5,-409 744.5,-409 744.5,-312.83 744.5,-235.07"/>
</g>
<!-- dd16f598227d4e04b11ece021957397f -->
<g id="node30" class="node">
<title>dd16f598227d4e04b11ece021957397f</title>
<image xlink:href="icons/web.png" width="101px" height="101px" preserveAspectRatio="xMinYMin meet" x="838" y="-188.5"/>
<text text-anchor="middle" x="888.5" y="-72.6" font-family="Sans-Serif" font-size="13.00" fill="#2d3436">[VM] </text>
<text text-anchor="middle" x="888.5" y="-58.6" font-family="Sans-Serif" font-size="13.00" fill="#2d3436"> www.heuzef.com </text>
<text text-anchor="middle" x="888.5" y="-44.6" font-family="Sans-Serif" font-size="13.00" fill="#2d3436"> 192.168.100.105</text>
</g>
<!-- e0a2615a2b9e4439b447acdff1ece7e7&#45;&gt;dd16f598227d4e04b11ece021957397f -->
<g id="edge30" class="edge">
<title>e0a2615a2b9e4439b447acdff1ece7e7&#45;&gt;dd16f598227d4e04b11ece021957397f</title>
<path fill="none" stroke="#7b8894" d="M1340.97,-387C1213.41,-387 888.5,-387 888.5,-387 888.5,-387 888.5,-305.18 888.5,-235.34"/>
</g>
<!-- aa020c7cd3134c0287f41300a1e2c1c3 -->
<g id="node31" class="node">
<title>aa020c7cd3134c0287f41300a1e2c1c3</title>
<image xlink:href="icons/bitwarden.png" width="101px" height="101px" preserveAspectRatio="xMinYMin meet" x="982" y="-188.5"/>
<text text-anchor="middle" x="1032.5" y="-72.6" font-family="Sans-Serif" font-size="13.00" fill="#2d3436">[VM] </text>
<text text-anchor="middle" x="1032.5" y="-58.6" font-family="Sans-Serif" font-size="13.00" fill="#2d3436"> coffre.heuzef.com </text>
<text text-anchor="middle" x="1032.5" y="-44.6" font-family="Sans-Serif" font-size="13.00" fill="#2d3436"> 192.168.100.108</text>
</g>
<!-- e0a2615a2b9e4439b447acdff1ece7e7&#45;&gt;aa020c7cd3134c0287f41300a1e2c1c3 -->
<g id="edge32" class="edge">
<title>e0a2615a2b9e4439b447acdff1ece7e7&#45;&gt;aa020c7cd3134c0287f41300a1e2c1c3</title>
<path fill="none" stroke="#7b8894" d="M1340.83,-364C1241.87,-364 1032.5,-364 1032.5,-364 1032.5,-364 1032.5,-296.41 1032.5,-235.16"/>
</g>
<!-- e0a2615a2b9e4439b447acdff1ece7e7&#45;&gt;5722ad8a9b7a4c91a358f2357e959965 -->
<g id="edge31" class="edge">
<title>e0a2615a2b9e4439b447acdff1ece7e7&#45;&gt;5722ad8a9b7a4c91a358f2357e959965</title>
<path fill="none" stroke="#7b8894" d="M1442.16,-428C1594.9,-428 2040.5,-428 2040.5,-428 2040.5,-428 2040.5,-319.62 2040.5,-235.37"/>
</g>
<!-- 016b8a1ea6234621819c3a21c4b84b91 -->
<g id="node33" class="node">
<title>016b8a1ea6234621819c3a21c4b84b91</title>
<image xlink:href="icons/server.png" width="101px" height="101px" preserveAspectRatio="xMinYMin meet" x="1126" y="-188.5"/>
<text text-anchor="middle" x="1176.5" y="-72.6" font-family="Sans-Serif" font-size="13.00" fill="#2d3436">[VM] </text>
<text text-anchor="middle" x="1176.5" y="-58.6" font-family="Sans-Serif" font-size="13.00" fill="#2d3436"> kaladrius.fr </text>
<text text-anchor="middle" x="1176.5" y="-44.6" font-family="Sans-Serif" font-size="13.00" fill="#2d3436"> 192.168.100.150</text>
</g>
<!-- e0a2615a2b9e4439b447acdff1ece7e7&#45;&gt;016b8a1ea6234621819c3a21c4b84b91 -->
<g id="edge33" class="edge">
<title>e0a2615a2b9e4439b447acdff1ece7e7&#45;&gt;016b8a1ea6234621819c3a21c4b84b91</title>
<path fill="none" stroke="#7b8894" d="M1340.82,-341C1277.26,-341 1176.5,-341 1176.5,-341 1176.5,-341 1176.5,-287.23 1176.5,-235.04"/>
</g>
<!-- 22625e49111a4229b3aaa9793e6d9d3f -->
<g id="node34" class="node">
<title>22625e49111a4229b3aaa9793e6d9d3f</title>
<image xlink:href="icons/ftb.png" width="101px" height="62.1335px" preserveAspectRatio="xMinYMin meet" x="1270" y="-169.067"/>
<text text-anchor="middle" x="1320.5" y="-72.6" font-family="Sans-Serif" font-size="13.00" fill="#2d3436">[VM] </text>
<text text-anchor="middle" x="1320.5" y="-58.6" font-family="Sans-Serif" font-size="13.00" fill="#2d3436"> ftb.heuzef.com </text>
<text text-anchor="middle" x="1320.5" y="-44.6" font-family="Sans-Serif" font-size="13.00" fill="#2d3436"> 192.168.100.151</text>
</g>
<!-- e0a2615a2b9e4439b447acdff1ece7e7&#45;&gt;22625e49111a4229b3aaa9793e6d9d3f -->
<g id="edge34" class="edge">
<title>e0a2615a2b9e4439b447acdff1ece7e7&#45;&gt;22625e49111a4229b3aaa9793e6d9d3f</title>
<path fill="none" stroke="#7b8894" d="M1356,-318.3C1356,-292.68 1356,-263.08 1356,-235.36"/>
</g>
<!-- e87f36f6aff2444798bd5dd37d596a34 -->
<g id="node35" class="node">
<title>e87f36f6aff2444798bd5dd37d596a34</title>
<image xlink:href="icons/web.png" width="101px" height="101px" preserveAspectRatio="xMinYMin meet" x="1414" y="-188.5"/>
<text text-anchor="middle" x="1464.5" y="-72.6" font-family="Sans-Serif" font-size="13.00" fill="#2d3436">[VM] </text>
<text text-anchor="middle" x="1464.5" y="-58.6" font-family="Sans-Serif" font-size="13.00" fill="#2d3436"> lemurier.immo </text>
<text text-anchor="middle" x="1464.5" y="-44.6" font-family="Sans-Serif" font-size="13.00" fill="#2d3436"> 192.168.100.152</text>
</g>
<!-- e0a2615a2b9e4439b447acdff1ece7e7&#45;&gt;e87f36f6aff2444798bd5dd37d596a34 -->
<g id="edge35" class="edge">
<title>e0a2615a2b9e4439b447acdff1ece7e7&#45;&gt;e87f36f6aff2444798bd5dd37d596a34</title>
<path fill="none" stroke="#7b8894" d="M1428,-318.3C1428,-292.68 1428,-263.08 1428,-235.36"/>
</g>
<!-- 042661dec3fd4b2f8eb9be1492b8664c -->
<g id="node36" class="node">
<title>042661dec3fd4b2f8eb9be1492b8664c</title>
<image xlink:href="icons/web.png" width="101px" height="101px" preserveAspectRatio="xMinYMin meet" x="1558" y="-188.5"/>
<text text-anchor="middle" x="1608.5" y="-72.6" font-family="Sans-Serif" font-size="13.00" fill="#2d3436">[VM] </text>
<text text-anchor="middle" x="1608.5" y="-58.6" font-family="Sans-Serif" font-size="13.00" fill="#2d3436"> couvreur&#45;cognac.fr </text>
<text text-anchor="middle" x="1608.5" y="-44.6" font-family="Sans-Serif" font-size="13.00" fill="#2d3436"> 192.168.100.157</text>
</g>
<!-- e0a2615a2b9e4439b447acdff1ece7e7&#45;&gt;042661dec3fd4b2f8eb9be1492b8664c -->
<g id="edge36" class="edge">
<title>e0a2615a2b9e4439b447acdff1ece7e7&#45;&gt;042661dec3fd4b2f8eb9be1492b8664c</title>
<path fill="none" stroke="#7b8894" d="M1442.1,-345C1506.22,-345 1608.5,-345 1608.5,-345 1608.5,-345 1608.5,-288.92 1608.5,-235.14"/>
</g>
<!-- 7cccb733b4e74d2eb7f71cbf09c3fdf2 -->
<g id="node37" class="node">
<title>7cccb733b4e74d2eb7f71cbf09c3fdf2</title>
<image xlink:href="icons/cognhacker.png" width="101px" height="95.5737px" preserveAspectRatio="xMinYMin meet" x="1702" y="-185.787"/>
<text text-anchor="middle" x="1752.5" y="-72.6" font-family="Sans-Serif" font-size="13.00" fill="#2d3436">[VM] </text>
<text text-anchor="middle" x="1752.5" y="-58.6" font-family="Sans-Serif" font-size="13.00" fill="#2d3436"> cognhacker.net </text>
<text text-anchor="middle" x="1752.5" y="-44.6" font-family="Sans-Serif" font-size="13.00" fill="#2d3436"> 192.168.100.159</text>
</g>
<!-- e0a2615a2b9e4439b447acdff1ece7e7&#45;&gt;7cccb733b4e74d2eb7f71cbf09c3fdf2 -->
<g id="edge37" class="edge">
<title>e0a2615a2b9e4439b447acdff1ece7e7&#45;&gt;7cccb733b4e74d2eb7f71cbf09c3fdf2</title>
<path fill="none" stroke="#7b8894" d="M1442.05,-373C1533.03,-373 1715,-373 1715,-373 1715,-373 1715,-299.93 1715,-235.28"/>
</g>
<!-- fbfd7eb1944945dfb18977199b99a712 -->
<g id="node38" class="node">
<title>fbfd7eb1944945dfb18977199b99a712</title>
<image xlink:href="icons/web.png" width="101px" height="101px" preserveAspectRatio="xMinYMin meet" x="1846" y="-188.5"/>
<text text-anchor="middle" x="1896.5" y="-72.6" font-family="Sans-Serif" font-size="13.00" fill="#2d3436">[VM] </text>
<text text-anchor="middle" x="1896.5" y="-58.6" font-family="Sans-Serif" font-size="13.00" fill="#2d3436"> beboop.boo </text>
<text text-anchor="middle" x="1896.5" y="-44.6" font-family="Sans-Serif" font-size="13.00" fill="#2d3436"> 192.168.100.160</text>
</g>
<!-- e0a2615a2b9e4439b447acdff1ece7e7&#45;&gt;fbfd7eb1944945dfb18977199b99a712 -->
<g id="edge38" class="edge">
<title>e0a2615a2b9e4439b447acdff1ece7e7&#45;&gt;fbfd7eb1944945dfb18977199b99a712</title>
<path fill="none" stroke="#7b8894" d="M1442.23,-400C1570.29,-400 1896.5,-400 1896.5,-400 1896.5,-400 1896.5,-309.75 1896.5,-235.19"/>
</g>
<!-- 272e47792e0141039f0c139ef0e37ffa -->
<g id="node39" class="node">
<title>272e47792e0141039f0c139ef0e37ffa</title>
<image xlink:href="icons/cpu.png" width="101px" height="101px" preserveAspectRatio="xMinYMin meet" x="1325" y="-1404"/>
<text text-anchor="middle" x="1375.5" y="-1288.1" font-family="Sans-Serif" font-size="13.00" fill="#2d3436">brix.heuzef.com </text>
<text text-anchor="middle" x="1375.5" y="-1274.1" font-family="Sans-Serif" font-size="13.00" fill="#2d3436"> 192.168.10.102</text>
</g>
</g>
</svg>
