<?xml version="1.0" encoding="UTF-8" standalone="no"?>
<!DOCTYPE svg PUBLIC "-//W3C//DTD SVG 1.1//EN"
 "http://www.w3.org/Graphics/SVG/1.1/DTD/svg11.dtd">
<!-- Generated by graphviz version 2.44.0 (0)
 -->
<!-- Title: Carte reseau de Heuzef &#45; 21/03/2024 11:39 Pages: 1 -->
<svg width="2564pt" height="1226pt"
 viewBox="0.00 0.00 2564.00 1226.00" xmlns="http://www.w3.org/2000/svg" xmlns:xlink="http://www.w3.org/1999/xlink">
<g id="graph0" class="graph" transform="scale(1 1) rotate(0) translate(144 1082)">
<title>Carte reseau de Heuzef &#45; 21/03/2024 11:39</title>
<polygon fill="white" stroke="transparent" points="-144,144 -144,-1082 2420,-1082 2420,144 -144,144"/>
<text text-anchor="middle" x="1138" y="-9" font-family="Sans-Serif" font-size="15.00" fill="#2d3436">Carte reseau de Heuzef &#45; 21/03/2024 11:39</text>
<g id="clust1" class="cluster">
<title>cluster_LAN</title>
<path fill="#e5f5fd" stroke="#aeb6be" d="M20,-33C20,-33 2256,-33 2256,-33 2262,-33 2268,-39 2268,-45 2268,-45 2268,-740 2268,-740 2268,-746 2262,-752 2256,-752 2256,-752 20,-752 20,-752 14,-752 8,-746 8,-740 8,-740 8,-45 8,-45 8,-39 14,-33 20,-33"/>
<text text-anchor="middle" x="28.5" y="-738.4" font-family="Sans-Serif" font-size="12.00" fill="#2d3436">LAN</text>
</g>
<g id="clust2" class="cluster">
<title>cluster_REVERSE&#45;PROXY</title>
<path fill="#ebf3e7" stroke="#aeb6be" d="M858,-41C858,-41 2248,-41 2248,-41 2254,-41 2260,-47 2260,-53 2260,-53 2260,-509 2260,-509 2260,-515 2254,-521 2248,-521 2248,-521 858,-521 858,-521 852,-521 846,-515 846,-509 846,-509 846,-53 846,-53 846,-47 852,-41 858,-41"/>
<text text-anchor="middle" x="904" y="-507.4" font-family="Sans-Serif" font-size="12.00" fill="#2d3436">REVERSE&#45;PROXY</text>
</g>
<!-- 0ba6e4ac834f4e2da416c609748b6123 -->
<g id="node1" class="node">
<title>0ba6e4ac834f4e2da416c609748b6123</title>
<image xlink:href="icons/internet.png" width="101px" height="101px" preserveAspectRatio="xMinYMin meet" x="448.5" y="-920"/>
<text text-anchor="middle" x="499" y="-804.6" font-family="Sans-Serif" font-size="13.00" fill="#2d3436">Internet</text>
</g>
<!-- 69c5200c76d14bb98f9cf544e75d3ecb -->
<g id="node2" class="node">
<title>69c5200c76d14bb98f9cf544e75d3ecb</title>
<image xlink:href="icons/router.png" width="101px" height="101px" preserveAspectRatio="xMinYMin meet" x="448.5" y="-690.5"/>
<text text-anchor="middle" x="499" y="-574.6" font-family="Sans-Serif" font-size="13.00" fill="#2d3436">Routeur Free </text>
<text text-anchor="middle" x="499" y="-560.6" font-family="Sans-Serif" font-size="13.00" fill="#2d3436"> 192.168.0.1</text>
</g>
<!-- 0ba6e4ac834f4e2da416c609748b6123&#45;&gt;69c5200c76d14bb98f9cf544e75d3ecb -->
<g id="edge11" class="edge">
<title>0ba6e4ac834f4e2da416c609748b6123&#45;&gt;69c5200c76d14bb98f9cf544e75d3ecb</title>
<path fill="none" stroke="red" stroke-width="2" d="M499,-800.95C499,-800.95 499,-733.2 499,-733.2"/>
<polygon fill="red" stroke="red" stroke-width="2" points="502.5,-733.2 499,-723.2 495.5,-733.2 502.5,-733.2"/>
<text text-anchor="middle" x="516" y="-763.6" font-family="Sans-Serif" font-size="13.00" fill="#2d3436">FTTH</text>
</g>
<!-- 2d293ec5107949e8b381466b90c5f4d8 -->
<g id="node5" class="node">
<title>2d293ec5107949e8b381466b90c5f4d8</title>
<image xlink:href="icons/controls.png" width="101px" height="101px" preserveAspectRatio="xMinYMin meet" x="16.5" y="-445.5"/>
<text text-anchor="middle" x="67" y="-329.6" font-family="Sans-Serif" font-size="13.00" fill="#2d3436">BMC </text>
<text text-anchor="middle" x="67" y="-315.6" font-family="Sans-Serif" font-size="13.00" fill="#2d3436"> 192.168.0.2</text>
</g>
<!-- 69c5200c76d14bb98f9cf544e75d3ecb&#45;&gt;2d293ec5107949e8b381466b90c5f4d8 -->
<g id="edge14" class="edge">
<title>69c5200c76d14bb98f9cf544e75d3ecb&#45;&gt;2d293ec5107949e8b381466b90c5f4d8</title>
<path fill="none" stroke="red" stroke-width="2" d="M438.17,-681C438.17,-681 67,-681 67,-681 67,-681 67,-562.55 67,-478.11"/>
<polygon fill="red" stroke="red" stroke-width="2" points="438.17,-684.5 448.17,-681 438.17,-677.5 438.17,-684.5"/>
</g>
<!-- 2933c26d23b249a084e5bdb8d101046d -->
<g id="node6" class="node">
<title>2933c26d23b249a084e5bdb8d101046d</title>
<image xlink:href="icons/server.png" width="101px" height="101px" preserveAspectRatio="xMinYMin meet" x="160.5" y="-445.5"/>
<text text-anchor="middle" x="211" y="-329.6" font-family="Sans-Serif" font-size="13.00" fill="#2d3436">PVE </text>
<text text-anchor="middle" x="211" y="-315.6" font-family="Sans-Serif" font-size="13.00" fill="#2d3436"> 192.168.0.100</text>
</g>
<!-- 69c5200c76d14bb98f9cf544e75d3ecb&#45;&gt;2933c26d23b249a084e5bdb8d101046d -->
<g id="edge15" class="edge">
<title>69c5200c76d14bb98f9cf544e75d3ecb&#45;&gt;2933c26d23b249a084e5bdb8d101046d</title>
<path fill="none" stroke="red" stroke-width="2" d="M438.17,-640C438.17,-640 211,-640 211,-640 211,-640 211,-549.31 211,-478.29"/>
<polygon fill="red" stroke="red" stroke-width="2" points="438.17,-643.5 448.17,-640 438.17,-636.5 438.17,-643.5"/>
</g>
<!-- f114c2aef07f4b6396841cd2514f8bab -->
<g id="node7" class="node">
<title>f114c2aef07f4b6396841cd2514f8bab</title>
<image xlink:href="icons/wifi.png" width="101px" height="101px" preserveAspectRatio="xMinYMin meet" x="304.5" y="-445.5"/>
<text text-anchor="middle" x="355" y="-329.6" font-family="Sans-Serif" font-size="13.00" fill="#2d3436">Wi&#45;Fi </text>
<text text-anchor="middle" x="355" y="-315.6" font-family="Sans-Serif" font-size="13.00" fill="#2d3436"> 192.168.0.200/24</text>
</g>
<!-- 69c5200c76d14bb98f9cf544e75d3ecb&#45;&gt;f114c2aef07f4b6396841cd2514f8bab -->
<g id="edge13" class="edge">
<title>69c5200c76d14bb98f9cf544e75d3ecb&#45;&gt;f114c2aef07f4b6396841cd2514f8bab</title>
<path fill="none" stroke="red" stroke-width="2" d="M438.23,-598C438.23,-598 355,-598 355,-598 355,-598 355,-534.21 355,-478.15"/>
<polygon fill="red" stroke="red" stroke-width="2" points="438.23,-601.5 448.23,-598 438.23,-594.5 438.23,-601.5"/>
</g>
<!-- 52542e8ca8fd401f956f8c39972bab79 -->
<g id="node11" class="node">
<title>52542e8ca8fd401f956f8c39972bab79</title>
<image xlink:href="icons/switch.png" width="101px" height="101px" preserveAspectRatio="xMinYMin meet" x="448.5" y="-445.5"/>
<text text-anchor="middle" x="499" y="-329.6" font-family="Sans-Serif" font-size="13.00" fill="#2d3436">Switch </text>
<text text-anchor="middle" x="499" y="-315.6" font-family="Sans-Serif" font-size="13.00" fill="#2d3436"> 192.168.0.239</text>
</g>
<!-- 69c5200c76d14bb98f9cf544e75d3ecb&#45;&gt;52542e8ca8fd401f956f8c39972bab79 -->
<g id="edge16" class="edge">
<title>69c5200c76d14bb98f9cf544e75d3ecb&#45;&gt;52542e8ca8fd401f956f8c39972bab79</title>
<path fill="none" stroke="red" stroke-width="2" d="M482.17,-546.71C482.17,-546.71 482.17,-478.06 482.17,-478.06"/>
<polygon fill="red" stroke="red" stroke-width="2" points="478.67,-546.71 482.17,-556.71 485.67,-546.71 478.67,-546.71"/>
</g>
<!-- d807684fc2a7423e9175c9a6be547036 -->
<g id="node12" class="node">
<title>d807684fc2a7423e9175c9a6be547036</title>
<image xlink:href="icons/media-services.png" width="101px" height="101px" preserveAspectRatio="xMinYMin meet" x="592.5" y="-445.5"/>
<text text-anchor="middle" x="643" y="-329.6" font-family="Sans-Serif" font-size="13.00" fill="#2d3436">[VM] media </text>
<text text-anchor="middle" x="643" y="-315.6" font-family="Sans-Serif" font-size="13.00" fill="#2d3436"> 192.168.0.111</text>
</g>
<!-- 69c5200c76d14bb98f9cf544e75d3ecb&#45;&gt;d807684fc2a7423e9175c9a6be547036 -->
<g id="edge17" class="edge">
<title>69c5200c76d14bb98f9cf544e75d3ecb&#45;&gt;d807684fc2a7423e9175c9a6be547036</title>
<path fill="none" stroke="red" stroke-width="2" d="M559.77,-612C559.77,-612 643,-612 643,-612 643,-612 643,-539.47 643,-478.28"/>
<polygon fill="red" stroke="red" stroke-width="2" points="559.77,-608.5 549.77,-612 559.77,-615.5 559.77,-608.5"/>
</g>
<!-- 28491fdf0bc9490bb89ecbcf591a6fd9 -->
<g id="node13" class="node">
<title>28491fdf0bc9490bb89ecbcf591a6fd9</title>
<image xlink:href="icons/borg.png" width="101px" height="101px" preserveAspectRatio="xMinYMin meet" x="736.5" y="-445.5"/>
<text text-anchor="middle" x="787" y="-329.6" font-family="Sans-Serif" font-size="13.00" fill="#2d3436">[VM] </text>
<text text-anchor="middle" x="787" y="-315.6" font-family="Sans-Serif" font-size="13.00" fill="#2d3436"> backup </text>
<text text-anchor="middle" x="787" y="-301.6" font-family="Sans-Serif" font-size="13.00" fill="#2d3436"> 192.168.10.114</text>
</g>
<!-- 69c5200c76d14bb98f9cf544e75d3ecb&#45;&gt;28491fdf0bc9490bb89ecbcf591a6fd9 -->
<g id="edge18" class="edge">
<title>69c5200c76d14bb98f9cf544e75d3ecb&#45;&gt;28491fdf0bc9490bb89ecbcf591a6fd9</title>
<path fill="none" stroke="red" stroke-width="2" d="M515.83,-546.6C515.83,-546.6 515.83,-485 515.83,-485 515.83,-485 657.83,-485 736.31,-485"/>
<polygon fill="red" stroke="red" stroke-width="2" points="512.33,-546.6 515.83,-556.6 519.33,-546.6 512.33,-546.6"/>
</g>
<!-- 51eb9c9a0ad8459a80c568f07b7f0c24 -->
<g id="node14" class="node">
<title>51eb9c9a0ad8459a80c568f07b7f0c24</title>
<image xlink:href="icons/caddy.png" width="101px" height="101px" preserveAspectRatio="xMinYMin meet" x="1430.5" y="-445.5"/>
<text text-anchor="middle" x="1481" y="-329.6" font-family="Sans-Serif" font-size="13.00" fill="#2d3436">[VM] </text>
<text text-anchor="middle" x="1481" y="-315.6" font-family="Sans-Serif" font-size="13.00" fill="#2d3436"> proxy </text>
<text text-anchor="middle" x="1481" y="-301.6" font-family="Sans-Serif" font-size="13.00" fill="#2d3436"> 192.168.0.101</text>
</g>
<!-- 69c5200c76d14bb98f9cf544e75d3ecb&#45;&gt;51eb9c9a0ad8459a80c568f07b7f0c24 -->
<g id="edge12" class="edge">
<title>69c5200c76d14bb98f9cf544e75d3ecb&#45;&gt;51eb9c9a0ad8459a80c568f07b7f0c24</title>
<path fill="none" stroke="green" stroke-width="2" d="M549.73,-667C750.81,-667 1481,-667 1481,-667 1481,-667 1481,-502.05 1481,-502.05"/>
<polygon fill="green" stroke="green" stroke-width="2" points="1484.5,-502.05 1481,-492.05 1477.5,-502.05 1484.5,-502.05"/>
</g>
<!-- 7b6a1dd3963c4cd2b01529ec37b076ac -->
<g id="node3" class="node">
<title>7b6a1dd3963c4cd2b01529ec37b076ac</title>
<image xlink:href="icons/devices.png" width="101px" height="101px" preserveAspectRatio="xMinYMin meet" x="16.5" y="-196.5"/>
<text text-anchor="middle" x="67" y="-80.6" font-family="Sans-Serif" font-size="13.00" fill="#2d3436">Peripheriques </text>
<text text-anchor="middle" x="67" y="-66.6" font-family="Sans-Serif" font-size="13.00" fill="#2d3436"> Range DHCP</text>
</g>
<!-- aa9b955d568d487e84226565a87c006a -->
<g id="node4" class="node">
<title>aa9b955d568d487e84226565a87c006a</title>
<image xlink:href="icons/computer.png" width="101px" height="101px" preserveAspectRatio="xMinYMin meet" x="160.5" y="-196.5"/>
<text text-anchor="middle" x="211" y="-80.6" font-family="Sans-Serif" font-size="13.00" fill="#2d3436">PGMR </text>
<text text-anchor="middle" x="211" y="-66.6" font-family="Sans-Serif" font-size="13.00" fill="#2d3436"> 192.168.0.X</text>
</g>
<!-- f114c2aef07f4b6396841cd2514f8bab&#45;&gt;7b6a1dd3963c4cd2b01529ec37b076ac -->
<g id="edge19" class="edge">
<title>f114c2aef07f4b6396841cd2514f8bab&#45;&gt;7b6a1dd3963c4cd2b01529ec37b076ac</title>
<path fill="none" stroke="blue" stroke-dasharray="1,5" d="M321.33,-306.58C321.33,-306.58 321.33,-306 321.33,-306 321.33,-306 67,-306 67,-306 67,-306 67,-268.16 67,-229.28"/>
<polygon fill="blue" stroke="blue" points="317.83,-301.84 321.33,-311.84 324.83,-301.84 317.83,-301.84"/>
</g>
<!-- f114c2aef07f4b6396841cd2514f8bab&#45;&gt;aa9b955d568d487e84226565a87c006a -->
<g id="edge23" class="edge">
<title>f114c2aef07f4b6396841cd2514f8bab&#45;&gt;aa9b955d568d487e84226565a87c006a</title>
<path fill="none" stroke="blue" stroke-dasharray="1,5" d="M338.17,-301.65C338.17,-301.65 338.17,-300 338.17,-300 338.17,-300 211,-300 211,-300 211,-300 211,-265.6 211,-229.31"/>
<polygon fill="blue" stroke="blue" points="334.67,-301.65 338.17,-311.65 341.67,-301.65 334.67,-301.65"/>
</g>
<!-- 9ec7d53e7a25482e82a53e89fe4a69af -->
<g id="node8" class="node">
<title>9ec7d53e7a25482e82a53e89fe4a69af</title>
<image xlink:href="icons/print.png" width="101px" height="101px" preserveAspectRatio="xMinYMin meet" x="304.5" y="-196.5"/>
<text text-anchor="middle" x="355" y="-80.6" font-family="Sans-Serif" font-size="13.00" fill="#2d3436">Imprimante </text>
<text text-anchor="middle" x="355" y="-66.6" font-family="Sans-Serif" font-size="13.00" fill="#2d3436"> 192.168.0.201 </text>
<text text-anchor="middle" x="355" y="-52.6" font-family="Sans-Serif" font-size="13.00" fill="#2d3436"> </text>
</g>
<!-- f114c2aef07f4b6396841cd2514f8bab&#45;&gt;9ec7d53e7a25482e82a53e89fe4a69af -->
<g id="edge20" class="edge">
<title>f114c2aef07f4b6396841cd2514f8bab&#45;&gt;9ec7d53e7a25482e82a53e89fe4a69af</title>
<path fill="none" stroke="blue" stroke-dasharray="1,5" d="M388.67,-301.74C388.67,-301.74 388.67,-243.41 388.67,-243.41"/>
<polygon fill="blue" stroke="blue" points="385.17,-301.74 388.67,-311.74 392.17,-301.74 385.17,-301.74"/>
</g>
<!-- 6893ab7cfc1d42e0b10562e1bc052fee -->
<g id="node9" class="node">
<title>6893ab7cfc1d42e0b10562e1bc052fee</title>
<image xlink:href="icons/cpu.png" width="101px" height="101px" preserveAspectRatio="xMinYMin meet" x="448.5" y="-196.5"/>
<text text-anchor="middle" x="499" y="-80.6" font-family="Sans-Serif" font-size="13.00" fill="#2d3436">Brix </text>
<text text-anchor="middle" x="499" y="-66.6" font-family="Sans-Serif" font-size="13.00" fill="#2d3436"> 192.168.0.202</text>
</g>
<!-- f114c2aef07f4b6396841cd2514f8bab&#45;&gt;6893ab7cfc1d42e0b10562e1bc052fee -->
<g id="edge21" class="edge">
<title>f114c2aef07f4b6396841cd2514f8bab&#45;&gt;6893ab7cfc1d42e0b10562e1bc052fee</title>
<path fill="none" stroke="blue" stroke-dasharray="1,5" d="M355,-303.88C355,-303.88 355,-303 355,-303 355,-303 499,-303 499,-303 499,-303 499,-266.76 499,-229.1"/>
<polygon fill="blue" stroke="blue" points="351.5,-301.82 355,-311.82 358.5,-301.82 351.5,-301.82"/>
</g>
<!-- 272deda3f31544c8be53745524942919 -->
<g id="node10" class="node">
<title>272deda3f31544c8be53745524942919</title>
<image xlink:href="icons/clock.png" width="101px" height="101px" preserveAspectRatio="xMinYMin meet" x="592.5" y="-196.5"/>
<text text-anchor="middle" x="643" y="-80.6" font-family="Sans-Serif" font-size="13.00" fill="#2d3436">Aura </text>
<text text-anchor="middle" x="643" y="-66.6" font-family="Sans-Serif" font-size="13.00" fill="#2d3436"> 192.168.0.203</text>
</g>
<!-- f114c2aef07f4b6396841cd2514f8bab&#45;&gt;272deda3f31544c8be53745524942919 -->
<g id="edge22" class="edge">
<title>f114c2aef07f4b6396841cd2514f8bab&#45;&gt;272deda3f31544c8be53745524942919</title>
<path fill="none" stroke="blue" stroke-dasharray="1,5" d="M371.83,-309.29C371.83,-309.29 371.83,-309 371.83,-309 371.83,-309 643,-309 643,-309 643,-309 643,-269.51 643,-229.41"/>
<polygon fill="blue" stroke="blue" points="368.33,-301.86 371.83,-311.86 375.33,-301.86 368.33,-301.86"/>
</g>
<!-- 3b3802287ecd4bf1b50b486fd045c14d -->
<g id="node15" class="node">
<title>3b3802287ecd4bf1b50b486fd045c14d</title>
<image xlink:href="icons/bitwarden.png" width="101px" height="101px" preserveAspectRatio="xMinYMin meet" x="854.5" y="-196.5"/>
<text text-anchor="middle" x="905" y="-80.6" font-family="Sans-Serif" font-size="13.00" fill="#2d3436">[VM] </text>
<text text-anchor="middle" x="905" y="-66.6" font-family="Sans-Serif" font-size="13.00" fill="#2d3436"> vault.heuzef.com </text>
<text text-anchor="middle" x="905" y="-52.6" font-family="Sans-Serif" font-size="13.00" fill="#2d3436"> 192.168.0.103</text>
</g>
<!-- 51eb9c9a0ad8459a80c568f07b7f0c24&#45;&gt;3b3802287ecd4bf1b50b486fd045c14d -->
<g id="edge2" class="edge">
<title>51eb9c9a0ad8459a80c568f07b7f0c24&#45;&gt;3b3802287ecd4bf1b50b486fd045c14d</title>
<path fill="none" stroke="#7b8894" d="M1430.39,-443C1289.83,-443 905,-443 905,-443 905,-443 905,-329.87 905,-243.25"/>
</g>
<!-- 1795afc0364443ec861b57cd96848a86 -->
<g id="node16" class="node">
<title>1795afc0364443ec861b57cd96848a86</title>
<image xlink:href="icons/gitea.png" width="101px" height="101px" preserveAspectRatio="xMinYMin meet" x="998.5" y="-196.5"/>
<text text-anchor="middle" x="1049" y="-80.6" font-family="Sans-Serif" font-size="13.00" fill="#2d3436">[VM] </text>
<text text-anchor="middle" x="1049" y="-66.6" font-family="Sans-Serif" font-size="13.00" fill="#2d3436"> git.heuzef.com </text>
<text text-anchor="middle" x="1049" y="-52.6" font-family="Sans-Serif" font-size="13.00" fill="#2d3436"> 192.168.0.104</text>
</g>
<!-- 51eb9c9a0ad8459a80c568f07b7f0c24&#45;&gt;1795afc0364443ec861b57cd96848a86 -->
<g id="edge3" class="edge">
<title>51eb9c9a0ad8459a80c568f07b7f0c24&#45;&gt;1795afc0364443ec861b57cd96848a86</title>
<path fill="none" stroke="#7b8894" d="M1430.17,-395C1315.98,-395 1049,-395 1049,-395 1049,-395 1049,-313.18 1049,-243.34"/>
</g>
<!-- 7b32db6174ac47a59d41c730447ab23c -->
<g id="node17" class="node">
<title>7b32db6174ac47a59d41c730447ab23c</title>
<image xlink:href="icons/cognhacker.png" width="101px" height="95.5737px" preserveAspectRatio="xMinYMin meet" x="1142.5" y="-193.787"/>
<text text-anchor="middle" x="1193" y="-80.6" font-family="Sans-Serif" font-size="13.00" fill="#2d3436">[VM] </text>
<text text-anchor="middle" x="1193" y="-66.6" font-family="Sans-Serif" font-size="13.00" fill="#2d3436"> cognhacker.net </text>
<text text-anchor="middle" x="1193" y="-52.6" font-family="Sans-Serif" font-size="13.00" fill="#2d3436"> 192.168.0.105</text>
</g>
<!-- 51eb9c9a0ad8459a80c568f07b7f0c24&#45;&gt;7b32db6174ac47a59d41c730447ab23c -->
<g id="edge4" class="edge">
<title>51eb9c9a0ad8459a80c568f07b7f0c24&#45;&gt;7b32db6174ac47a59d41c730447ab23c</title>
<path fill="none" stroke="#7b8894" d="M1430.17,-346C1347.5,-346 1193,-346 1193,-346 1193,-346 1193,-294.03 1193,-243.07"/>
</g>
<!-- 9aee18ec330344e4bd9a1325f2937be4 -->
<g id="node18" class="node">
<title>9aee18ec330344e4bd9a1325f2937be4</title>
<image xlink:href="icons/shlink.png" width="101px" height="101px" preserveAspectRatio="xMinYMin meet" x="1286.5" y="-196.5"/>
<text text-anchor="middle" x="1337" y="-80.6" font-family="Sans-Serif" font-size="13.00" fill="#2d3436">[VM] </text>
<text text-anchor="middle" x="1337" y="-66.6" font-family="Sans-Serif" font-size="13.00" fill="#2d3436"> heuzef.link </text>
<text text-anchor="middle" x="1337" y="-52.6" font-family="Sans-Serif" font-size="13.00" fill="#2d3436"> 192.168.0.106</text>
</g>
<!-- 51eb9c9a0ad8459a80c568f07b7f0c24&#45;&gt;9aee18ec330344e4bd9a1325f2937be4 -->
<g id="edge5" class="edge">
<title>51eb9c9a0ad8459a80c568f07b7f0c24&#45;&gt;9aee18ec330344e4bd9a1325f2937be4</title>
<path fill="none" stroke="#7b8894" d="M1455.75,-297.96C1455.75,-263.46 1455.75,-233 1455.75,-233 1455.75,-233 1419.98,-233 1387.71,-233"/>
</g>
<!-- 40a7e811b68143e2b8fe66ee442bb0bf -->
<g id="node19" class="node">
<title>40a7e811b68143e2b8fe66ee442bb0bf</title>
<image xlink:href="icons/files.png" width="101px" height="101px" preserveAspectRatio="xMinYMin meet" x="1430.5" y="-196.5"/>
<text text-anchor="middle" x="1481" y="-80.6" font-family="Sans-Serif" font-size="13.00" fill="#2d3436">[VM] files.heuzef.com </text>
<text text-anchor="middle" x="1481" y="-66.6" font-family="Sans-Serif" font-size="13.00" fill="#2d3436"> 192.168.0.110</text>
</g>
<!-- 51eb9c9a0ad8459a80c568f07b7f0c24&#45;&gt;40a7e811b68143e2b8fe66ee442bb0bf -->
<g id="edge6" class="edge">
<title>51eb9c9a0ad8459a80c568f07b7f0c24&#45;&gt;40a7e811b68143e2b8fe66ee442bb0bf</title>
<path fill="none" stroke="#7b8894" d="M1481,-297.66C1481,-275.02 1481,-251.12 1481,-229.15"/>
</g>
<!-- e11434b8c81c45fa8de71853712c9edb -->
<g id="node20" class="node">
<title>e11434b8c81c45fa8de71853712c9edb</title>
<image xlink:href="icons/web.png" width="101px" height="101px" preserveAspectRatio="xMinYMin meet" x="1574.5" y="-196.5"/>
<text text-anchor="middle" x="1625" y="-80.6" font-family="Sans-Serif" font-size="13.00" fill="#2d3436">[VM] </text>
<text text-anchor="middle" x="1625" y="-66.6" font-family="Sans-Serif" font-size="13.00" fill="#2d3436"> heuzef.com </text>
<text text-anchor="middle" x="1625" y="-52.6" font-family="Sans-Serif" font-size="13.00" fill="#2d3436"> 192.168.0.120</text>
</g>
<!-- 51eb9c9a0ad8459a80c568f07b7f0c24&#45;&gt;e11434b8c81c45fa8de71853712c9edb -->
<g id="edge7" class="edge">
<title>51eb9c9a0ad8459a80c568f07b7f0c24&#45;&gt;e11434b8c81c45fa8de71853712c9edb</title>
<path fill="none" stroke="#7b8894" d="M1506.25,-297.8C1506.25,-265.68 1506.25,-238 1506.25,-238 1506.25,-238 1542.02,-238 1574.29,-238"/>
</g>
<!-- 2c8841875bed41dfbffa4d05849bdf9f -->
<g id="node21" class="node">
<title>2c8841875bed41dfbffa4d05849bdf9f</title>
<image xlink:href="icons/web.png" width="101px" height="101px" preserveAspectRatio="xMinYMin meet" x="1718.5" y="-196.5"/>
<text text-anchor="middle" x="1769" y="-80.6" font-family="Sans-Serif" font-size="13.00" fill="#2d3436">[VM] </text>
<text text-anchor="middle" x="1769" y="-66.6" font-family="Sans-Serif" font-size="13.00" fill="#2d3436"> lemurier.immo </text>
<text text-anchor="middle" x="1769" y="-52.6" font-family="Sans-Serif" font-size="13.00" fill="#2d3436"> 192.168.0.121</text>
</g>
<!-- 51eb9c9a0ad8459a80c568f07b7f0c24&#45;&gt;2c8841875bed41dfbffa4d05849bdf9f -->
<g id="edge8" class="edge">
<title>51eb9c9a0ad8459a80c568f07b7f0c24&#45;&gt;2c8841875bed41dfbffa4d05849bdf9f</title>
<path fill="none" stroke="#7b8894" d="M1531.83,-336C1614.5,-336 1769,-336 1769,-336 1769,-336 1769,-289.97 1769,-243.23"/>
</g>
<!-- d360371f83894d399abd2e733d513d97 -->
<g id="node22" class="node">
<title>d360371f83894d399abd2e733d513d97</title>
<image xlink:href="icons/web.png" width="101px" height="101px" preserveAspectRatio="xMinYMin meet" x="1862.5" y="-196.5"/>
<text text-anchor="middle" x="1913" y="-80.6" font-family="Sans-Serif" font-size="13.00" fill="#2d3436">[VM] </text>
<text text-anchor="middle" x="1913" y="-66.6" font-family="Sans-Serif" font-size="13.00" fill="#2d3436"> couvreur&#45;cognac.fr </text>
<text text-anchor="middle" x="1913" y="-52.6" font-family="Sans-Serif" font-size="13.00" fill="#2d3436"> 192.168.0.122</text>
</g>
<!-- 51eb9c9a0ad8459a80c568f07b7f0c24&#45;&gt;d360371f83894d399abd2e733d513d97 -->
<g id="edge9" class="edge">
<title>51eb9c9a0ad8459a80c568f07b7f0c24&#45;&gt;d360371f83894d399abd2e733d513d97</title>
<path fill="none" stroke="#7b8894" d="M1531.83,-375C1646.02,-375 1913,-375 1913,-375 1913,-375 1913,-305.53 1913,-243.12"/>
</g>
<!-- e491075b2b2a4ac68007abfbfefcaad0 -->
<g id="node23" class="node">
<title>e491075b2b2a4ac68007abfbfefcaad0</title>
<image xlink:href="icons/web.png" width="101px" height="101px" preserveAspectRatio="xMinYMin meet" x="2006.5" y="-196.5"/>
<text text-anchor="middle" x="2057" y="-80.6" font-family="Sans-Serif" font-size="13.00" fill="#2d3436">[VM] </text>
<text text-anchor="middle" x="2057" y="-66.6" font-family="Sans-Serif" font-size="13.00" fill="#2d3436"> beboop.boo </text>
<text text-anchor="middle" x="2057" y="-52.6" font-family="Sans-Serif" font-size="13.00" fill="#2d3436"> 192.168.0.123</text>
</g>
<!-- 51eb9c9a0ad8459a80c568f07b7f0c24&#45;&gt;e491075b2b2a4ac68007abfbfefcaad0 -->
<g id="edge10" class="edge">
<title>51eb9c9a0ad8459a80c568f07b7f0c24&#45;&gt;e491075b2b2a4ac68007abfbfefcaad0</title>
<path fill="none" stroke="#7b8894" d="M1531.61,-414C1672.17,-414 2057,-414 2057,-414 2057,-414 2057,-319.83 2057,-243.13"/>
</g>
<!-- 2cce5429f119453fa18fdcc47d96b991 -->
<g id="node24" class="node">
<title>2cce5429f119453fa18fdcc47d96b991</title>
<image xlink:href="icons/prusa.png" width="101px" height="61.7156px" preserveAspectRatio="xMinYMin meet" x="2150.5" y="-176.858"/>
<text text-anchor="middle" x="2201" y="-80.6" font-family="Sans-Serif" font-size="13.00" fill="#2d3436">mk4.heuzef.com </text>
<text text-anchor="middle" x="2201" y="-66.6" font-family="Sans-Serif" font-size="13.00" fill="#2d3436"> 192.168.0.204</text>
</g>
<!-- 51eb9c9a0ad8459a80c568f07b7f0c24&#45;&gt;2cce5429f119453fa18fdcc47d96b991 -->
<g id="edge1" class="edge">
<title>51eb9c9a0ad8459a80c568f07b7f0c24&#45;&gt;2cce5429f119453fa18fdcc47d96b991</title>
<path fill="none" stroke="#7b8894" d="M1531.63,-453C1695.52,-453 2201,-453 2201,-453 2201,-453 2201,-320 2201,-229.08"/>
</g>
</g>
</svg>
