<?xml version="1.0" encoding="UTF-8" standalone="no"?>
<!DOCTYPE svg PUBLIC "-//W3C//DTD SVG 1.1//EN"
 "http://www.w3.org/Graphics/SVG/1.1/DTD/svg11.dtd">
<!-- Generated by graphviz version 2.44.0 (0)
 -->
<!-- Title: Carte reseau de Heuzef &#45; 26/03/2024 10:54 Pages: 1 -->
<svg width="2590pt" height="1254pt"
 viewBox="0.00 0.00 2590.00 1254.00" xmlns="http://www.w3.org/2000/svg" xmlns:xlink="http://www.w3.org/1999/xlink">
<g id="graph0" class="graph" transform="scale(1 1) rotate(0) translate(144 1110)">
<title>Carte reseau de Heuzef &#45; 26/03/2024 10:54</title>
<polygon fill="white" stroke="transparent" points="-144,144 -144,-1110 2446,-1110 2446,144 -144,144"/>
<text text-anchor="middle" x="1151" y="-9" font-family="Sans-Serif" font-size="15.00" fill="#2d3436">Carte reseau de Heuzef &#45; 26/03/2024 10:54</text>
<g id="clust1" class="cluster">
<title>cluster_LAN</title>
<path fill="#e5f5fd" stroke="#aeb6be" d="M20,-33C20,-33 2282,-33 2282,-33 2288,-33 2294,-39 2294,-45 2294,-45 2294,-768 2294,-768 2294,-774 2288,-780 2282,-780 2282,-780 20,-780 20,-780 14,-780 8,-774 8,-768 8,-768 8,-45 8,-45 8,-39 14,-33 20,-33"/>
<text text-anchor="middle" x="28.5" y="-766.4" font-family="Sans-Serif" font-size="12.00" fill="#2d3436">LAN</text>
</g>
<g id="clust2" class="cluster">
<title>cluster_REVERSE&#45;PROXY</title>
<path fill="#ebf3e7" stroke="#aeb6be" d="M740,-41C740,-41 2274,-41 2274,-41 2280,-41 2286,-47 2286,-53 2286,-53 2286,-509 2286,-509 2286,-515 2280,-521 2274,-521 2274,-521 740,-521 740,-521 734,-521 728,-515 728,-509 728,-509 728,-53 728,-53 728,-47 734,-41 740,-41"/>
<text text-anchor="middle" x="786" y="-507.4" font-family="Sans-Serif" font-size="12.00" fill="#2d3436">REVERSE&#45;PROXY</text>
</g>
<!-- 92c911f093244a74afaff53f39397876 -->
<g id="node1" class="node">
<title>92c911f093244a74afaff53f39397876</title>
<image xlink:href="icons/internet.png" width="101px" height="101px" preserveAspectRatio="xMinYMin meet" x="376.5" y="-948"/>
<text text-anchor="middle" x="427" y="-832.6" font-family="Sans-Serif" font-size="13.00" fill="#2d3436">Internet</text>
</g>
<!-- 19e9d389446a4640a8ce0b8b1b330a3f -->
<g id="node3" class="node">
<title>19e9d389446a4640a8ce0b8b1b330a3f</title>
<image xlink:href="icons/router.png" width="101px" height="101px" preserveAspectRatio="xMinYMin meet" x="376.5" y="-704.5"/>
<text text-anchor="middle" x="427" y="-588.6" font-family="Sans-Serif" font-size="13.00" fill="#2d3436">Routeur Free </text>
<text text-anchor="middle" x="427" y="-574.6" font-family="Sans-Serif" font-size="13.00" fill="#2d3436"> 192.168.0.1</text>
</g>
<!-- 92c911f093244a74afaff53f39397876&#45;&gt;19e9d389446a4640a8ce0b8b1b330a3f -->
<g id="edge12" class="edge">
<title>92c911f093244a74afaff53f39397876&#45;&gt;19e9d389446a4640a8ce0b8b1b330a3f</title>
<path fill="none" stroke="red" stroke-width="2" d="M427,-828.7C427,-828.7 427,-747.33 427,-747.33"/>
<polygon fill="red" stroke="red" stroke-width="2" points="430.5,-747.33 427,-737.33 423.5,-747.33 430.5,-747.33"/>
<text text-anchor="middle" x="444" y="-791.6" font-family="Sans-Serif" font-size="13.00" fill="#2d3436">FTTH</text>
</g>
<!-- 7b8b91992d0d415e9f592d7c7f46675e -->
<g id="node2" class="node">
<title>7b8b91992d0d415e9f592d7c7f46675e</title>
<image xlink:href="icons/hetzner.png" width="101px" height="12.4691px" preserveAspectRatio="xMinYMin meet" x="1350.5" y="-903.735"/>
<text text-anchor="middle" x="1401" y="-832.6" font-family="Sans-Serif" font-size="13.00" fill="#2d3436">Sauvegardes</text>
</g>
<!-- ca523c7046de437297258b201c232da5 -->
<g id="node13" class="node">
<title>ca523c7046de437297258b201c232da5</title>
<image xlink:href="icons/borg.png" width="101px" height="101px" preserveAspectRatio="xMinYMin meet" x="1350.5" y="-704.5"/>
<text text-anchor="middle" x="1401" y="-588.6" font-family="Sans-Serif" font-size="13.00" fill="#2d3436">[VM] </text>
<text text-anchor="middle" x="1401" y="-574.6" font-family="Sans-Serif" font-size="13.00" fill="#2d3436"> backup </text>
<text text-anchor="middle" x="1401" y="-560.6" font-family="Sans-Serif" font-size="13.00" fill="#2d3436"> 192.168.10.114</text>
</g>
<!-- 7b8b91992d0d415e9f592d7c7f46675e&#45;&gt;ca523c7046de437297258b201c232da5 -->
<g id="edge14" class="edge">
<title>7b8b91992d0d415e9f592d7c7f46675e&#45;&gt;ca523c7046de437297258b201c232da5</title>
<path fill="none" stroke="green" stroke-width="2" d="M1401,-818.7C1401,-818.7 1401,-761.25 1401,-761.25"/>
<polygon fill="green" stroke="green" stroke-width="2" points="1404.5,-761.25 1401,-751.25 1397.5,-761.25 1404.5,-761.25"/>
<polygon fill="green" stroke="green" stroke-width="2" points="1397.5,-818.7 1401,-828.7 1404.5,-818.7 1397.5,-818.7"/>
<text text-anchor="middle" x="1418" y="-791.6" font-family="Sans-Serif" font-size="13.00" fill="#2d3436">FTTH</text>
</g>
<!-- b4f8b0bc91a147afaf4dbc400d3cc3b8 -->
<g id="node6" class="node">
<title>b4f8b0bc91a147afaf4dbc400d3cc3b8</title>
<image xlink:href="icons/controls.png" width="101px" height="101px" preserveAspectRatio="xMinYMin meet" x="88.5" y="-445.5"/>
<text text-anchor="middle" x="139" y="-329.6" font-family="Sans-Serif" font-size="13.00" fill="#2d3436">BMC </text>
<text text-anchor="middle" x="139" y="-315.6" font-family="Sans-Serif" font-size="13.00" fill="#2d3436"> 192.168.0.2</text>
</g>
<!-- 19e9d389446a4640a8ce0b8b1b330a3f&#45;&gt;b4f8b0bc91a147afaf4dbc400d3cc3b8 -->
<g id="edge16" class="edge">
<title>19e9d389446a4640a8ce0b8b1b330a3f&#45;&gt;b4f8b0bc91a147afaf4dbc400d3cc3b8</title>
<path fill="none" stroke="red" stroke-width="2" d="M366.17,-681C366.17,-681 139,-681 139,-681 139,-681 139,-562.55 139,-478.11"/>
<polygon fill="red" stroke="red" stroke-width="2" points="366.17,-684.5 376.17,-681 366.17,-677.5 366.17,-684.5"/>
</g>
<!-- f8747def902048abb7a951405e38b4e3 -->
<g id="node7" class="node">
<title>f8747def902048abb7a951405e38b4e3</title>
<image xlink:href="icons/server.png" width="101px" height="101px" preserveAspectRatio="xMinYMin meet" x="232.5" y="-445.5"/>
<text text-anchor="middle" x="283" y="-329.6" font-family="Sans-Serif" font-size="13.00" fill="#2d3436">PVE </text>
<text text-anchor="middle" x="283" y="-315.6" font-family="Sans-Serif" font-size="13.00" fill="#2d3436"> 192.168.0.100</text>
</g>
<!-- 19e9d389446a4640a8ce0b8b1b330a3f&#45;&gt;f8747def902048abb7a951405e38b4e3 -->
<g id="edge17" class="edge">
<title>19e9d389446a4640a8ce0b8b1b330a3f&#45;&gt;f8747def902048abb7a951405e38b4e3</title>
<path fill="none" stroke="red" stroke-width="2" d="M366.23,-626C366.23,-626 283,-626 283,-626 283,-626 283,-544.3 283,-478.07"/>
<polygon fill="red" stroke="red" stroke-width="2" points="366.23,-629.5 376.23,-626 366.23,-622.5 366.23,-629.5"/>
</g>
<!-- 25f9f80e7d6f4cd2a788d35259229deb -->
<g id="node8" class="node">
<title>25f9f80e7d6f4cd2a788d35259229deb</title>
<image xlink:href="icons/wifi.png" width="101px" height="101px" preserveAspectRatio="xMinYMin meet" x="376.5" y="-445.5"/>
<text text-anchor="middle" x="427" y="-329.6" font-family="Sans-Serif" font-size="13.00" fill="#2d3436">Wi&#45;Fi </text>
<text text-anchor="middle" x="427" y="-315.6" font-family="Sans-Serif" font-size="13.00" fill="#2d3436"> 192.168.0.200/24</text>
</g>
<!-- 19e9d389446a4640a8ce0b8b1b330a3f&#45;&gt;25f9f80e7d6f4cd2a788d35259229deb -->
<g id="edge15" class="edge">
<title>19e9d389446a4640a8ce0b8b1b330a3f&#45;&gt;25f9f80e7d6f4cd2a788d35259229deb</title>
<path fill="none" stroke="red" stroke-width="2" d="M410.17,-560.98C410.17,-560.98 410.17,-478.44 410.17,-478.44"/>
<polygon fill="red" stroke="red" stroke-width="2" points="406.67,-560.98 410.17,-570.98 413.67,-560.98 406.67,-560.98"/>
</g>
<!-- 47fe8e72e65b479fb5434d5b5afde031 -->
<g id="node12" class="node">
<title>47fe8e72e65b479fb5434d5b5afde031</title>
<image xlink:href="icons/switch.png" width="101px" height="101px" preserveAspectRatio="xMinYMin meet" x="520.5" y="-445.5"/>
<text text-anchor="middle" x="571" y="-329.6" font-family="Sans-Serif" font-size="13.00" fill="#2d3436">Switch </text>
<text text-anchor="middle" x="571" y="-315.6" font-family="Sans-Serif" font-size="13.00" fill="#2d3436"> 192.168.0.239</text>
</g>
<!-- 19e9d389446a4640a8ce0b8b1b330a3f&#45;&gt;47fe8e72e65b479fb5434d5b5afde031 -->
<g id="edge18" class="edge">
<title>19e9d389446a4640a8ce0b8b1b330a3f&#45;&gt;47fe8e72e65b479fb5434d5b5afde031</title>
<path fill="none" stroke="red" stroke-width="2" d="M487.77,-654C487.77,-654 571,-654 571,-654 571,-654 571,-553.77 571,-478.02"/>
<polygon fill="red" stroke="red" stroke-width="2" points="487.77,-650.5 477.77,-654 487.77,-657.5 487.77,-650.5"/>
</g>
<!-- d6cf4a8e62d54d3a9262233cc01405fa -->
<g id="node14" class="node">
<title>d6cf4a8e62d54d3a9262233cc01405fa</title>
<image xlink:href="icons/caddy.png" width="101px" height="97.0547px" preserveAspectRatio="xMinYMin meet" x="1384.5" y="-443.527"/>
<text text-anchor="middle" x="1435" y="-329.6" font-family="Sans-Serif" font-size="13.00" fill="#2d3436">[VM] </text>
<text text-anchor="middle" x="1435" y="-315.6" font-family="Sans-Serif" font-size="13.00" fill="#2d3436"> CADDY </text>
<text text-anchor="middle" x="1435" y="-301.6" font-family="Sans-Serif" font-size="13.00" fill="#2d3436"> 192.168.0.101</text>
</g>
<!-- 19e9d389446a4640a8ce0b8b1b330a3f&#45;&gt;d6cf4a8e62d54d3a9262233cc01405fa -->
<g id="edge13" class="edge">
<title>19e9d389446a4640a8ce0b8b1b330a3f&#45;&gt;d6cf4a8e62d54d3a9262233cc01405fa</title>
<path fill="none" stroke="blue" stroke-width="2" d="M443.83,-570.99C443.83,-528.25 443.83,-485 443.83,-485 443.83,-485 1374.49,-485 1374.49,-485"/>
<polygon fill="blue" stroke="blue" stroke-width="2" points="1374.49,-488.5 1384.49,-485 1374.49,-481.5 1374.49,-488.5"/>
</g>
<!-- 1a57bb54a86548d7aea81403bbd37e07 -->
<g id="node4" class="node">
<title>1a57bb54a86548d7aea81403bbd37e07</title>
<image xlink:href="icons/devices.png" width="101px" height="101px" preserveAspectRatio="xMinYMin meet" x="16.5" y="-196.5"/>
<text text-anchor="middle" x="67" y="-80.6" font-family="Sans-Serif" font-size="13.00" fill="#2d3436">Peripheriques </text>
<text text-anchor="middle" x="67" y="-66.6" font-family="Sans-Serif" font-size="13.00" fill="#2d3436"> Range DHCP</text>
</g>
<!-- 87f0a308de824d2ea80b27500eed9460 -->
<g id="node5" class="node">
<title>87f0a308de824d2ea80b27500eed9460</title>
<image xlink:href="icons/computer.png" width="101px" height="101px" preserveAspectRatio="xMinYMin meet" x="160.5" y="-196.5"/>
<text text-anchor="middle" x="211" y="-80.6" font-family="Sans-Serif" font-size="13.00" fill="#2d3436">PGMR </text>
<text text-anchor="middle" x="211" y="-66.6" font-family="Sans-Serif" font-size="13.00" fill="#2d3436"> 192.168.0.X</text>
</g>
<!-- 25f9f80e7d6f4cd2a788d35259229deb&#45;&gt;1a57bb54a86548d7aea81403bbd37e07 -->
<g id="edge19" class="edge">
<title>25f9f80e7d6f4cd2a788d35259229deb&#45;&gt;1a57bb54a86548d7aea81403bbd37e07</title>
<path fill="none" stroke="purple" stroke-dasharray="1,5" d="M383.75,-304.78C383.75,-304.78 383.75,-304 383.75,-304 383.75,-304 103,-304 103,-304 103,-304 103,-267.23 103,-229.16"/>
<polygon fill="purple" stroke="purple" points="380.25,-301.76 383.75,-311.76 387.25,-301.76 380.25,-301.76"/>
</g>
<!-- 25f9f80e7d6f4cd2a788d35259229deb&#45;&gt;87f0a308de824d2ea80b27500eed9460 -->
<g id="edge23" class="edge">
<title>25f9f80e7d6f4cd2a788d35259229deb&#45;&gt;87f0a308de824d2ea80b27500eed9460</title>
<path fill="none" stroke="purple" stroke-dasharray="1,5" d="M391,-301.65C391,-301.65 391,-300 391,-300 391,-300 247,-300 247,-300 247,-300 247,-265.6 247,-229.31"/>
<polygon fill="purple" stroke="purple" points="387.5,-301.65 391,-311.65 394.5,-301.65 387.5,-301.65"/>
</g>
<!-- 2c77b6370bb24114833f30c29fd1645a -->
<g id="node9" class="node">
<title>2c77b6370bb24114833f30c29fd1645a</title>
<image xlink:href="icons/print.png" width="101px" height="101px" preserveAspectRatio="xMinYMin meet" x="304.5" y="-196.5"/>
<text text-anchor="middle" x="355" y="-80.6" font-family="Sans-Serif" font-size="13.00" fill="#2d3436">Imprimante </text>
<text text-anchor="middle" x="355" y="-66.6" font-family="Sans-Serif" font-size="13.00" fill="#2d3436"> 192.168.0.201 </text>
<text text-anchor="middle" x="355" y="-52.6" font-family="Sans-Serif" font-size="13.00" fill="#2d3436"> </text>
</g>
<!-- 25f9f80e7d6f4cd2a788d35259229deb&#45;&gt;2c77b6370bb24114833f30c29fd1645a -->
<g id="edge20" class="edge">
<title>25f9f80e7d6f4cd2a788d35259229deb&#45;&gt;2c77b6370bb24114833f30c29fd1645a</title>
<path fill="none" stroke="purple" stroke-dasharray="1,5" d="M398.25,-301.74C398.25,-301.74 398.25,-243.41 398.25,-243.41"/>
<polygon fill="purple" stroke="purple" points="394.75,-301.74 398.25,-311.74 401.75,-301.74 394.75,-301.74"/>
</g>
<!-- d21fe95b2eb242289d416e36bc2e8523 -->
<g id="node10" class="node">
<title>d21fe95b2eb242289d416e36bc2e8523</title>
<image xlink:href="icons/cpu.png" width="101px" height="101px" preserveAspectRatio="xMinYMin meet" x="448.5" y="-196.5"/>
<text text-anchor="middle" x="499" y="-80.6" font-family="Sans-Serif" font-size="13.00" fill="#2d3436">Brix </text>
<text text-anchor="middle" x="499" y="-66.6" font-family="Sans-Serif" font-size="13.00" fill="#2d3436"> 192.168.0.202</text>
</g>
<!-- 25f9f80e7d6f4cd2a788d35259229deb&#45;&gt;d21fe95b2eb242289d416e36bc2e8523 -->
<g id="edge21" class="edge">
<title>25f9f80e7d6f4cd2a788d35259229deb&#45;&gt;d21fe95b2eb242289d416e36bc2e8523</title>
<path fill="none" stroke="purple" stroke-dasharray="1,5" d="M467.83,-301.74C467.83,-301.74 467.83,-229.18 467.83,-229.18"/>
<polygon fill="purple" stroke="purple" points="464.33,-301.74 467.83,-311.74 471.33,-301.74 464.33,-301.74"/>
</g>
<!-- bf9052fea16a425691fdca993fa3bd95 -->
<g id="node11" class="node">
<title>bf9052fea16a425691fdca993fa3bd95</title>
<image xlink:href="icons/clock.png" width="101px" height="101px" preserveAspectRatio="xMinYMin meet" x="592.5" y="-196.5"/>
<text text-anchor="middle" x="643" y="-80.6" font-family="Sans-Serif" font-size="13.00" fill="#2d3436">Aura </text>
<text text-anchor="middle" x="643" y="-66.6" font-family="Sans-Serif" font-size="13.00" fill="#2d3436"> 192.168.0.203</text>
</g>
<!-- 25f9f80e7d6f4cd2a788d35259229deb&#45;&gt;bf9052fea16a425691fdca993fa3bd95 -->
<g id="edge22" class="edge">
<title>25f9f80e7d6f4cd2a788d35259229deb&#45;&gt;bf9052fea16a425691fdca993fa3bd95</title>
<path fill="none" stroke="purple" stroke-dasharray="1,5" d="M458.17,-303C458.17,-303 458.17,-302 458.17,-302 458.17,-302 607,-302 607,-302 607,-302 607,-266.28 607,-229.02"/>
<polygon fill="purple" stroke="purple" points="454.67,-301.95 458.17,-311.95 461.67,-301.95 454.67,-301.95"/>
</g>
<!-- f99ccdfce16f44f0b6ca35f76d92915d -->
<g id="node15" class="node">
<title>f99ccdfce16f44f0b6ca35f76d92915d</title>
<image xlink:href="icons/bitwarden.png" width="101px" height="101px" preserveAspectRatio="xMinYMin meet" x="736.5" y="-196.5"/>
<text text-anchor="middle" x="787" y="-80.6" font-family="Sans-Serif" font-size="13.00" fill="#2d3436">[VM] </text>
<text text-anchor="middle" x="787" y="-66.6" font-family="Sans-Serif" font-size="13.00" fill="#2d3436"> vault.heuzef.com </text>
<text text-anchor="middle" x="787" y="-52.6" font-family="Sans-Serif" font-size="13.00" fill="#2d3436"> 192.168.0.103</text>
</g>
<!-- d6cf4a8e62d54d3a9262233cc01405fa&#45;&gt;f99ccdfce16f44f0b6ca35f76d92915d -->
<g id="edge2" class="edge">
<title>d6cf4a8e62d54d3a9262233cc01405fa&#45;&gt;f99ccdfce16f44f0b6ca35f76d92915d</title>
<path fill="none" stroke="#7b8894" d="M1384.42,-310C1231.92,-310 787,-310 787,-310 787,-310 787,-278.61 787,-243.29"/>
</g>
<!-- c24b1af6a67c43c7a3a117bc753cb620 -->
<g id="node16" class="node">
<title>c24b1af6a67c43c7a3a117bc753cb620</title>
<image xlink:href="icons/gitea.png" width="101px" height="101px" preserveAspectRatio="xMinYMin meet" x="880.5" y="-196.5"/>
<text text-anchor="middle" x="931" y="-80.6" font-family="Sans-Serif" font-size="13.00" fill="#2d3436">[VM] </text>
<text text-anchor="middle" x="931" y="-66.6" font-family="Sans-Serif" font-size="13.00" fill="#2d3436"> git.heuzef.com </text>
<text text-anchor="middle" x="931" y="-52.6" font-family="Sans-Serif" font-size="13.00" fill="#2d3436"> 192.168.0.104</text>
</g>
<!-- d6cf4a8e62d54d3a9262233cc01405fa&#45;&gt;c24b1af6a67c43c7a3a117bc753cb620 -->
<g id="edge3" class="edge">
<title>d6cf4a8e62d54d3a9262233cc01405fa&#45;&gt;c24b1af6a67c43c7a3a117bc753cb620</title>
<path fill="none" stroke="#7b8894" d="M1384.37,-308C1256.56,-308 931,-308 931,-308 931,-308 931,-277.54 931,-243.04"/>
</g>
<!-- 556156961eca4304aadc69d18889253f -->
<g id="node17" class="node">
<title>556156961eca4304aadc69d18889253f</title>
<image xlink:href="icons/cognhacker.png" width="101px" height="95.5737px" preserveAspectRatio="xMinYMin meet" x="1024.5" y="-193.787"/>
<text text-anchor="middle" x="1075" y="-80.6" font-family="Sans-Serif" font-size="13.00" fill="#2d3436">[VM] </text>
<text text-anchor="middle" x="1075" y="-66.6" font-family="Sans-Serif" font-size="13.00" fill="#2d3436"> cognhacker.net </text>
<text text-anchor="middle" x="1075" y="-52.6" font-family="Sans-Serif" font-size="13.00" fill="#2d3436"> 192.168.0.105</text>
</g>
<!-- d6cf4a8e62d54d3a9262233cc01405fa&#45;&gt;556156961eca4304aadc69d18889253f -->
<g id="edge4" class="edge">
<title>d6cf4a8e62d54d3a9262233cc01405fa&#45;&gt;556156961eca4304aadc69d18889253f</title>
<path fill="none" stroke="#7b8894" d="M1384.18,-306C1284.95,-306 1075,-306 1075,-306 1075,-306 1075,-276.73 1075,-243.22"/>
</g>
<!-- bf3b2f4aefad43ba99e82e51dc6d2b3d -->
<g id="node18" class="node">
<title>bf3b2f4aefad43ba99e82e51dc6d2b3d</title>
<image xlink:href="icons/shlink.png" width="101px" height="101px" preserveAspectRatio="xMinYMin meet" x="1168.5" y="-196.5"/>
<text text-anchor="middle" x="1219" y="-80.6" font-family="Sans-Serif" font-size="13.00" fill="#2d3436">[VM] </text>
<text text-anchor="middle" x="1219" y="-66.6" font-family="Sans-Serif" font-size="13.00" fill="#2d3436"> heuzef.link </text>
<text text-anchor="middle" x="1219" y="-52.6" font-family="Sans-Serif" font-size="13.00" fill="#2d3436"> 192.168.0.106</text>
</g>
<!-- d6cf4a8e62d54d3a9262233cc01405fa&#45;&gt;bf3b2f4aefad43ba99e82e51dc6d2b3d -->
<g id="edge5" class="edge">
<title>d6cf4a8e62d54d3a9262233cc01405fa&#45;&gt;bf3b2f4aefad43ba99e82e51dc6d2b3d</title>
<path fill="none" stroke="#7b8894" d="M1394.17,-297.93C1394.17,-264.83 1394.17,-236 1394.17,-236 1394.17,-236 1321.4,-236 1269.67,-236"/>
</g>
<!-- 9a9d799a0d2149939240a4aa6fb0a5b0 -->
<g id="node19" class="node">
<title>9a9d799a0d2149939240a4aa6fb0a5b0</title>
<image xlink:href="icons/files.png" width="101px" height="101px" preserveAspectRatio="xMinYMin meet" x="1312.5" y="-196.5"/>
<text text-anchor="middle" x="1363" y="-80.6" font-family="Sans-Serif" font-size="13.00" fill="#2d3436">[VM] files.heuzef.com </text>
<text text-anchor="middle" x="1363" y="-66.6" font-family="Sans-Serif" font-size="13.00" fill="#2d3436"> 192.168.0.110</text>
</g>
<!-- d6cf4a8e62d54d3a9262233cc01405fa&#45;&gt;9a9d799a0d2149939240a4aa6fb0a5b0 -->
<g id="edge6" class="edge">
<title>d6cf4a8e62d54d3a9262233cc01405fa&#45;&gt;9a9d799a0d2149939240a4aa6fb0a5b0</title>
<path fill="none" stroke="#7b8894" d="M1403.83,-297.66C1403.83,-275.02 1403.83,-251.12 1403.83,-229.15"/>
</g>
<!-- 59c2b6039be34c1592073e9149b67d6c -->
<g id="node20" class="node">
<title>59c2b6039be34c1592073e9149b67d6c</title>
<image xlink:href="icons/web.png" width="101px" height="101px" preserveAspectRatio="xMinYMin meet" x="1456.5" y="-196.5"/>
<text text-anchor="middle" x="1507" y="-80.6" font-family="Sans-Serif" font-size="13.00" fill="#2d3436">[VM] </text>
<text text-anchor="middle" x="1507" y="-66.6" font-family="Sans-Serif" font-size="13.00" fill="#2d3436"> heuzef.com </text>
<text text-anchor="middle" x="1507" y="-52.6" font-family="Sans-Serif" font-size="13.00" fill="#2d3436"> 192.168.0.120</text>
</g>
<!-- d6cf4a8e62d54d3a9262233cc01405fa&#45;&gt;59c2b6039be34c1592073e9149b67d6c -->
<g id="edge8" class="edge">
<title>d6cf4a8e62d54d3a9262233cc01405fa&#45;&gt;59c2b6039be34c1592073e9149b67d6c</title>
<path fill="none" stroke="#7b8894" d="M1471,-297.66C1471,-279.79 1471,-261.14 1471,-243.27"/>
</g>
<!-- 6e691082a797490c8122a81c333bdf53 -->
<g id="node21" class="node">
<title>6e691082a797490c8122a81c333bdf53</title>
<image xlink:href="icons/media-services.png" width="101px" height="101px" preserveAspectRatio="xMinYMin meet" x="1600.5" y="-196.5"/>
<text text-anchor="middle" x="1651" y="-80.6" font-family="Sans-Serif" font-size="13.00" fill="#2d3436">[VM] media </text>
<text text-anchor="middle" x="1651" y="-66.6" font-family="Sans-Serif" font-size="13.00" fill="#2d3436"> 192.168.0.111</text>
</g>
<!-- d6cf4a8e62d54d3a9262233cc01405fa&#45;&gt;6e691082a797490c8122a81c333bdf53 -->
<g id="edge7" class="edge">
<title>d6cf4a8e62d54d3a9262233cc01405fa&#45;&gt;6e691082a797490c8122a81c333bdf53</title>
<path fill="none" stroke="#7b8894" d="M1485.64,-330C1549.49,-330 1651,-330 1651,-330 1651,-330 1651,-277.88 1651,-229.12"/>
</g>
<!-- 21b69b002a1640788efd7e6121a634a0 -->
<g id="node22" class="node">
<title>21b69b002a1640788efd7e6121a634a0</title>
<image xlink:href="icons/web.png" width="101px" height="101px" preserveAspectRatio="xMinYMin meet" x="1744.5" y="-196.5"/>
<text text-anchor="middle" x="1795" y="-80.6" font-family="Sans-Serif" font-size="13.00" fill="#2d3436">[VM] </text>
<text text-anchor="middle" x="1795" y="-66.6" font-family="Sans-Serif" font-size="13.00" fill="#2d3436"> lemurier.immo </text>
<text text-anchor="middle" x="1795" y="-52.6" font-family="Sans-Serif" font-size="13.00" fill="#2d3436"> 192.168.0.121</text>
</g>
<!-- d6cf4a8e62d54d3a9262233cc01405fa&#45;&gt;21b69b002a1640788efd7e6121a634a0 -->
<g id="edge9" class="edge">
<title>d6cf4a8e62d54d3a9262233cc01405fa&#45;&gt;21b69b002a1640788efd7e6121a634a0</title>
<path fill="none" stroke="#7b8894" d="M1485.82,-362C1585.05,-362 1795,-362 1795,-362 1795,-362 1795,-300.59 1795,-243.26"/>
</g>
<!-- 3ab33803ca174a6dba556c0e732b7c71 -->
<g id="node23" class="node">
<title>3ab33803ca174a6dba556c0e732b7c71</title>
<image xlink:href="icons/web.png" width="101px" height="101px" preserveAspectRatio="xMinYMin meet" x="1888.5" y="-196.5"/>
<text text-anchor="middle" x="1939" y="-80.6" font-family="Sans-Serif" font-size="13.00" fill="#2d3436">[VM] </text>
<text text-anchor="middle" x="1939" y="-66.6" font-family="Sans-Serif" font-size="13.00" fill="#2d3436"> couvreur&#45;cognac.fr </text>
<text text-anchor="middle" x="1939" y="-52.6" font-family="Sans-Serif" font-size="13.00" fill="#2d3436"> 192.168.0.122</text>
</g>
<!-- d6cf4a8e62d54d3a9262233cc01405fa&#45;&gt;3ab33803ca174a6dba556c0e732b7c71 -->
<g id="edge10" class="edge">
<title>d6cf4a8e62d54d3a9262233cc01405fa&#45;&gt;3ab33803ca174a6dba556c0e732b7c71</title>
<path fill="none" stroke="#7b8894" d="M1485.63,-395C1613.44,-395 1939,-395 1939,-395 1939,-395 1939,-313.18 1939,-243.34"/>
</g>
<!-- 9da60ba6e261466ba3a4f17118d6c817 -->
<g id="node24" class="node">
<title>9da60ba6e261466ba3a4f17118d6c817</title>
<image xlink:href="icons/web.png" width="101px" height="101px" preserveAspectRatio="xMinYMin meet" x="2032.5" y="-196.5"/>
<text text-anchor="middle" x="2083" y="-80.6" font-family="Sans-Serif" font-size="13.00" fill="#2d3436">[VM] </text>
<text text-anchor="middle" x="2083" y="-66.6" font-family="Sans-Serif" font-size="13.00" fill="#2d3436"> beboop.boo </text>
<text text-anchor="middle" x="2083" y="-52.6" font-family="Sans-Serif" font-size="13.00" fill="#2d3436"> 192.168.0.123</text>
</g>
<!-- d6cf4a8e62d54d3a9262233cc01405fa&#45;&gt;9da60ba6e261466ba3a4f17118d6c817 -->
<g id="edge11" class="edge">
<title>d6cf4a8e62d54d3a9262233cc01405fa&#45;&gt;9da60ba6e261466ba3a4f17118d6c817</title>
<path fill="none" stroke="#7b8894" d="M1485.58,-427C1638.08,-427 2083,-427 2083,-427 2083,-427 2083,-324.32 2083,-243.1"/>
</g>
<!-- 75995c91b8f24c0ab6c740e650e963e9 -->
<g id="node25" class="node">
<title>75995c91b8f24c0ab6c740e650e963e9</title>
<image xlink:href="icons/prusa.png" width="101px" height="61.7156px" preserveAspectRatio="xMinYMin meet" x="2176.5" y="-176.858"/>
<text text-anchor="middle" x="2227" y="-80.6" font-family="Sans-Serif" font-size="13.00" fill="#2d3436">mk4.heuzef.com </text>
<text text-anchor="middle" x="2227" y="-66.6" font-family="Sans-Serif" font-size="13.00" fill="#2d3436"> 192.168.0.204</text>
</g>
<!-- d6cf4a8e62d54d3a9262233cc01405fa&#45;&gt;75995c91b8f24c0ab6c740e650e963e9 -->
<g id="edge1" class="edge">
<title>d6cf4a8e62d54d3a9262233cc01405fa&#45;&gt;75995c91b8f24c0ab6c740e650e963e9</title>
<path fill="none" stroke="#7b8894" d="M1485.75,-459C1660.55,-459 2227,-459 2227,-459 2227,-459 2227,-321.78 2227,-229.06"/>
</g>
</g>
</svg>
