<?xml version="1.0" encoding="UTF-8" standalone="no"?>
<!DOCTYPE svg PUBLIC "-//W3C//DTD SVG 1.1//EN"
 "http://www.w3.org/Graphics/SVG/1.1/DTD/svg11.dtd">
<!-- Generated by graphviz version 2.44.0 (0)
 -->
<!-- Title: Carte reseau de Heuzef &#45; 23/09/2024 21:34 Pages: 1 -->
<svg width="2878pt" height="1254pt"
 viewBox="0.00 0.00 2878.00 1254.00" xmlns="http://www.w3.org/2000/svg" xmlns:xlink="http://www.w3.org/1999/xlink">
<g id="graph0" class="graph" transform="scale(1 1) rotate(0) translate(144 1110)">
<title>Carte reseau de Heuzef &#45; 23/09/2024 21:34</title>
<polygon fill="white" stroke="transparent" points="-144,144 -144,-1110 2734,-1110 2734,144 -144,144"/>
<text text-anchor="middle" x="1295" y="-9" font-family="Sans-Serif" font-size="15.00" fill="#2d3436">Carte reseau de Heuzef &#45; 23/09/2024 21:34</text>
<g id="clust1" class="cluster">
<title>cluster_LAN</title>
<path fill="#e5f5fd" stroke="#aeb6be" d="M20,-33C20,-33 2570,-33 2570,-33 2576,-33 2582,-39 2582,-45 2582,-45 2582,-768 2582,-768 2582,-774 2576,-780 2570,-780 2570,-780 20,-780 20,-780 14,-780 8,-774 8,-768 8,-768 8,-45 8,-45 8,-39 14,-33 20,-33"/>
<text text-anchor="middle" x="28.5" y="-766.4" font-family="Sans-Serif" font-size="12.00" fill="#2d3436">LAN</text>
</g>
<g id="clust2" class="cluster">
<title>cluster_REVERSE&#45;PROXY</title>
<path fill="#ebf3e7" stroke="#aeb6be" d="M740,-41C740,-41 2562,-41 2562,-41 2568,-41 2574,-47 2574,-53 2574,-53 2574,-509 2574,-509 2574,-515 2568,-521 2562,-521 2562,-521 740,-521 740,-521 734,-521 728,-515 728,-509 728,-509 728,-53 728,-53 728,-47 734,-41 740,-41"/>
<text text-anchor="middle" x="786" y="-507.4" font-family="Sans-Serif" font-size="12.00" fill="#2d3436">REVERSE&#45;PROXY</text>
</g>
<!-- e36f3cc6e042471284610cedddce5ad6 -->
<g id="node1" class="node">
<title>e36f3cc6e042471284610cedddce5ad6</title>
<image xlink:href="icons/internet.png" width="101px" height="101px" preserveAspectRatio="xMinYMin meet" x="376.5" y="-948"/>
<text text-anchor="middle" x="427" y="-832.6" font-family="Sans-Serif" font-size="13.00" fill="#2d3436">Internet</text>
</g>
<!-- 66526c2cf9834e6d89d7833f7c938e14 -->
<g id="node3" class="node">
<title>66526c2cf9834e6d89d7833f7c938e14</title>
<image xlink:href="icons/router.png" width="101px" height="101px" preserveAspectRatio="xMinYMin meet" x="376.5" y="-704.5"/>
<text text-anchor="middle" x="427" y="-588.6" font-family="Sans-Serif" font-size="13.00" fill="#2d3436">Routeur Free </text>
<text text-anchor="middle" x="427" y="-574.6" font-family="Sans-Serif" font-size="13.00" fill="#2d3436"> 192.168.0.1</text>
</g>
<!-- e36f3cc6e042471284610cedddce5ad6&#45;&gt;66526c2cf9834e6d89d7833f7c938e14 -->
<g id="edge14" class="edge">
<title>e36f3cc6e042471284610cedddce5ad6&#45;&gt;66526c2cf9834e6d89d7833f7c938e14</title>
<path fill="none" stroke="red" stroke-width="2" d="M427,-828.7C427,-828.7 427,-747.33 427,-747.33"/>
<polygon fill="red" stroke="red" stroke-width="2" points="430.5,-747.33 427,-737.33 423.5,-747.33 430.5,-747.33"/>
<text text-anchor="middle" x="444" y="-791.6" font-family="Sans-Serif" font-size="13.00" fill="#2d3436">FTTH</text>
</g>
<!-- a4d608e80afb4741b4b7b61320bb5590 -->
<g id="node2" class="node">
<title>a4d608e80afb4741b4b7b61320bb5590</title>
<image xlink:href="icons/hetzner.png" width="101px" height="12.4691px" preserveAspectRatio="xMinYMin meet" x="1494.5" y="-903.735"/>
<text text-anchor="middle" x="1545" y="-832.6" font-family="Sans-Serif" font-size="13.00" fill="#2d3436">Sauvegardes</text>
</g>
<!-- 42d1ff52f2454000a4e80c722263648d -->
<g id="node13" class="node">
<title>42d1ff52f2454000a4e80c722263648d</title>
<image xlink:href="icons/borg.png" width="101px" height="101px" preserveAspectRatio="xMinYMin meet" x="1494.5" y="-704.5"/>
<text text-anchor="middle" x="1545" y="-588.6" font-family="Sans-Serif" font-size="13.00" fill="#2d3436">[VM] </text>
<text text-anchor="middle" x="1545" y="-574.6" font-family="Sans-Serif" font-size="13.00" fill="#2d3436"> backup </text>
<text text-anchor="middle" x="1545" y="-560.6" font-family="Sans-Serif" font-size="13.00" fill="#2d3436"> 192.168.0.102</text>
</g>
<!-- a4d608e80afb4741b4b7b61320bb5590&#45;&gt;42d1ff52f2454000a4e80c722263648d -->
<g id="edge16" class="edge">
<title>a4d608e80afb4741b4b7b61320bb5590&#45;&gt;42d1ff52f2454000a4e80c722263648d</title>
<path fill="none" stroke="green" stroke-width="2" d="M1545,-818.7C1545,-818.7 1545,-761.25 1545,-761.25"/>
<polygon fill="green" stroke="green" stroke-width="2" points="1548.5,-761.25 1545,-751.25 1541.5,-761.25 1548.5,-761.25"/>
<polygon fill="green" stroke="green" stroke-width="2" points="1541.5,-818.7 1545,-828.7 1548.5,-818.7 1541.5,-818.7"/>
<text text-anchor="middle" x="1562" y="-791.6" font-family="Sans-Serif" font-size="13.00" fill="#2d3436">FTTH</text>
</g>
<!-- c7ce4ed7c9524120a5e869b7d16723e7 -->
<g id="node6" class="node">
<title>c7ce4ed7c9524120a5e869b7d16723e7</title>
<image xlink:href="icons/controls.png" width="101px" height="101px" preserveAspectRatio="xMinYMin meet" x="88.5" y="-445.5"/>
<text text-anchor="middle" x="139" y="-329.6" font-family="Sans-Serif" font-size="13.00" fill="#2d3436">BMC </text>
<text text-anchor="middle" x="139" y="-315.6" font-family="Sans-Serif" font-size="13.00" fill="#2d3436"> 192.168.0.2</text>
</g>
<!-- 66526c2cf9834e6d89d7833f7c938e14&#45;&gt;c7ce4ed7c9524120a5e869b7d16723e7 -->
<g id="edge18" class="edge">
<title>66526c2cf9834e6d89d7833f7c938e14&#45;&gt;c7ce4ed7c9524120a5e869b7d16723e7</title>
<path fill="none" stroke="red" stroke-width="2" d="M366.17,-681C366.17,-681 139,-681 139,-681 139,-681 139,-562.55 139,-478.11"/>
<polygon fill="red" stroke="red" stroke-width="2" points="366.17,-684.5 376.17,-681 366.17,-677.5 366.17,-684.5"/>
</g>
<!-- 1d9f57a6a75b4f5db3b2a5c712d33f2d -->
<g id="node7" class="node">
<title>1d9f57a6a75b4f5db3b2a5c712d33f2d</title>
<image xlink:href="icons/server.png" width="101px" height="101px" preserveAspectRatio="xMinYMin meet" x="232.5" y="-445.5"/>
<text text-anchor="middle" x="283" y="-329.6" font-family="Sans-Serif" font-size="13.00" fill="#2d3436">PVE </text>
<text text-anchor="middle" x="283" y="-315.6" font-family="Sans-Serif" font-size="13.00" fill="#2d3436"> 192.168.0.100</text>
</g>
<!-- 66526c2cf9834e6d89d7833f7c938e14&#45;&gt;1d9f57a6a75b4f5db3b2a5c712d33f2d -->
<g id="edge19" class="edge">
<title>66526c2cf9834e6d89d7833f7c938e14&#45;&gt;1d9f57a6a75b4f5db3b2a5c712d33f2d</title>
<path fill="none" stroke="red" stroke-width="2" d="M366.23,-626C366.23,-626 283,-626 283,-626 283,-626 283,-544.3 283,-478.07"/>
<polygon fill="red" stroke="red" stroke-width="2" points="366.23,-629.5 376.23,-626 366.23,-622.5 366.23,-629.5"/>
</g>
<!-- 94bbdefd77e44fa49ccf4c793d0e879c -->
<g id="node8" class="node">
<title>94bbdefd77e44fa49ccf4c793d0e879c</title>
<image xlink:href="icons/wifi.png" width="101px" height="101px" preserveAspectRatio="xMinYMin meet" x="376.5" y="-445.5"/>
<text text-anchor="middle" x="427" y="-329.6" font-family="Sans-Serif" font-size="13.00" fill="#2d3436">Wi&#45;Fi </text>
<text text-anchor="middle" x="427" y="-315.6" font-family="Sans-Serif" font-size="13.00" fill="#2d3436"> 192.168.0.200/24</text>
</g>
<!-- 66526c2cf9834e6d89d7833f7c938e14&#45;&gt;94bbdefd77e44fa49ccf4c793d0e879c -->
<g id="edge17" class="edge">
<title>66526c2cf9834e6d89d7833f7c938e14&#45;&gt;94bbdefd77e44fa49ccf4c793d0e879c</title>
<path fill="none" stroke="red" stroke-width="2" d="M410.17,-560.98C410.17,-560.98 410.17,-478.44 410.17,-478.44"/>
<polygon fill="red" stroke="red" stroke-width="2" points="406.67,-560.98 410.17,-570.98 413.67,-560.98 406.67,-560.98"/>
</g>
<!-- d10070193509470fac99e4e8b031f5e1 -->
<g id="node12" class="node">
<title>d10070193509470fac99e4e8b031f5e1</title>
<image xlink:href="icons/switch.png" width="101px" height="101px" preserveAspectRatio="xMinYMin meet" x="520.5" y="-445.5"/>
<text text-anchor="middle" x="571" y="-329.6" font-family="Sans-Serif" font-size="13.00" fill="#2d3436">Switch </text>
<text text-anchor="middle" x="571" y="-315.6" font-family="Sans-Serif" font-size="13.00" fill="#2d3436"> 192.168.0.239</text>
</g>
<!-- 66526c2cf9834e6d89d7833f7c938e14&#45;&gt;d10070193509470fac99e4e8b031f5e1 -->
<g id="edge20" class="edge">
<title>66526c2cf9834e6d89d7833f7c938e14&#45;&gt;d10070193509470fac99e4e8b031f5e1</title>
<path fill="none" stroke="red" stroke-width="2" d="M487.77,-654C487.77,-654 571,-654 571,-654 571,-654 571,-553.77 571,-478.02"/>
<polygon fill="red" stroke="red" stroke-width="2" points="487.77,-650.5 477.77,-654 487.77,-657.5 487.77,-650.5"/>
</g>
<!-- 315d5c88c318499faf9a18e6abd5ab57 -->
<g id="node14" class="node">
<title>315d5c88c318499faf9a18e6abd5ab57</title>
<image xlink:href="icons/caddy.png" width="101px" height="97.0547px" preserveAspectRatio="xMinYMin meet" x="1528.5" y="-443.527"/>
<text text-anchor="middle" x="1579" y="-329.6" font-family="Sans-Serif" font-size="13.00" fill="#2d3436">[VM] </text>
<text text-anchor="middle" x="1579" y="-315.6" font-family="Sans-Serif" font-size="13.00" fill="#2d3436"> CADDY </text>
<text text-anchor="middle" x="1579" y="-301.6" font-family="Sans-Serif" font-size="13.00" fill="#2d3436"> 192.168.0.101</text>
</g>
<!-- 66526c2cf9834e6d89d7833f7c938e14&#45;&gt;315d5c88c318499faf9a18e6abd5ab57 -->
<g id="edge15" class="edge">
<title>66526c2cf9834e6d89d7833f7c938e14&#45;&gt;315d5c88c318499faf9a18e6abd5ab57</title>
<path fill="none" stroke="blue" stroke-width="2" d="M443.83,-570.99C443.83,-528.25 443.83,-485 443.83,-485 443.83,-485 1518.39,-485 1518.39,-485"/>
<polygon fill="blue" stroke="blue" stroke-width="2" points="1518.39,-488.5 1528.39,-485 1518.39,-481.5 1518.39,-488.5"/>
</g>
<!-- 2fe78ab2954d40909862d0d3e0a1cee3 -->
<g id="node4" class="node">
<title>2fe78ab2954d40909862d0d3e0a1cee3</title>
<image xlink:href="icons/devices.png" width="101px" height="101px" preserveAspectRatio="xMinYMin meet" x="16.5" y="-196.5"/>
<text text-anchor="middle" x="67" y="-80.6" font-family="Sans-Serif" font-size="13.00" fill="#2d3436">Peripheriques </text>
<text text-anchor="middle" x="67" y="-66.6" font-family="Sans-Serif" font-size="13.00" fill="#2d3436"> Range DHCP</text>
</g>
<!-- 95e6a476090c486c9583756d5bdb1829 -->
<g id="node5" class="node">
<title>95e6a476090c486c9583756d5bdb1829</title>
<image xlink:href="icons/computer.png" width="101px" height="101px" preserveAspectRatio="xMinYMin meet" x="160.5" y="-196.5"/>
<text text-anchor="middle" x="211" y="-80.6" font-family="Sans-Serif" font-size="13.00" fill="#2d3436">PGMR </text>
<text text-anchor="middle" x="211" y="-66.6" font-family="Sans-Serif" font-size="13.00" fill="#2d3436"> 192.168.0.X</text>
</g>
<!-- 94bbdefd77e44fa49ccf4c793d0e879c&#45;&gt;2fe78ab2954d40909862d0d3e0a1cee3 -->
<g id="edge21" class="edge">
<title>94bbdefd77e44fa49ccf4c793d0e879c&#45;&gt;2fe78ab2954d40909862d0d3e0a1cee3</title>
<path fill="none" stroke="purple" stroke-dasharray="1,5" d="M383.75,-304.78C383.75,-304.78 383.75,-304 383.75,-304 383.75,-304 103,-304 103,-304 103,-304 103,-267.23 103,-229.16"/>
<polygon fill="purple" stroke="purple" points="380.25,-301.76 383.75,-311.76 387.25,-301.76 380.25,-301.76"/>
</g>
<!-- 94bbdefd77e44fa49ccf4c793d0e879c&#45;&gt;95e6a476090c486c9583756d5bdb1829 -->
<g id="edge25" class="edge">
<title>94bbdefd77e44fa49ccf4c793d0e879c&#45;&gt;95e6a476090c486c9583756d5bdb1829</title>
<path fill="none" stroke="purple" stroke-dasharray="1,5" d="M391,-301.95C391,-301.95 391,-299 391,-299 391,-299 247,-299 247,-299 247,-299 247,-265.1 247,-229.22"/>
<polygon fill="purple" stroke="purple" points="387.5,-301.95 391,-311.95 394.5,-301.95 387.5,-301.95"/>
</g>
<!-- 0ca5cdc1dea54a56ba6c27f7513921fb -->
<g id="node9" class="node">
<title>0ca5cdc1dea54a56ba6c27f7513921fb</title>
<image xlink:href="icons/print.png" width="101px" height="101px" preserveAspectRatio="xMinYMin meet" x="304.5" y="-196.5"/>
<text text-anchor="middle" x="355" y="-80.6" font-family="Sans-Serif" font-size="13.00" fill="#2d3436">Imprimante </text>
<text text-anchor="middle" x="355" y="-66.6" font-family="Sans-Serif" font-size="13.00" fill="#2d3436"> 192.168.0.201 </text>
<text text-anchor="middle" x="355" y="-52.6" font-family="Sans-Serif" font-size="13.00" fill="#2d3436"> </text>
</g>
<!-- 94bbdefd77e44fa49ccf4c793d0e879c&#45;&gt;0ca5cdc1dea54a56ba6c27f7513921fb -->
<g id="edge22" class="edge">
<title>94bbdefd77e44fa49ccf4c793d0e879c&#45;&gt;0ca5cdc1dea54a56ba6c27f7513921fb</title>
<path fill="none" stroke="purple" stroke-dasharray="1,5" d="M398.25,-301.74C398.25,-301.74 398.25,-243.41 398.25,-243.41"/>
<polygon fill="purple" stroke="purple" points="394.75,-301.74 398.25,-311.74 401.75,-301.74 394.75,-301.74"/>
</g>
<!-- 2cefd2ce116e4bcd813a8743045fb1b3 -->
<g id="node10" class="node">
<title>2cefd2ce116e4bcd813a8743045fb1b3</title>
<image xlink:href="icons/cpu.png" width="101px" height="101px" preserveAspectRatio="xMinYMin meet" x="448.5" y="-196.5"/>
<text text-anchor="middle" x="499" y="-80.6" font-family="Sans-Serif" font-size="13.00" fill="#2d3436">Brix </text>
<text text-anchor="middle" x="499" y="-66.6" font-family="Sans-Serif" font-size="13.00" fill="#2d3436"> 192.168.0.202</text>
</g>
<!-- 94bbdefd77e44fa49ccf4c793d0e879c&#45;&gt;2cefd2ce116e4bcd813a8743045fb1b3 -->
<g id="edge23" class="edge">
<title>94bbdefd77e44fa49ccf4c793d0e879c&#45;&gt;2cefd2ce116e4bcd813a8743045fb1b3</title>
<path fill="none" stroke="purple" stroke-dasharray="1,5" d="M467.83,-301.74C467.83,-301.74 467.83,-229.18 467.83,-229.18"/>
<polygon fill="purple" stroke="purple" points="464.33,-301.74 467.83,-311.74 471.33,-301.74 464.33,-301.74"/>
</g>
<!-- 6567fffba8dc4cc6bd6952dae7611dca -->
<g id="node11" class="node">
<title>6567fffba8dc4cc6bd6952dae7611dca</title>
<image xlink:href="icons/clock.png" width="101px" height="101px" preserveAspectRatio="xMinYMin meet" x="592.5" y="-196.5"/>
<text text-anchor="middle" x="643" y="-80.6" font-family="Sans-Serif" font-size="13.00" fill="#2d3436">Aura </text>
<text text-anchor="middle" x="643" y="-66.6" font-family="Sans-Serif" font-size="13.00" fill="#2d3436"> 192.168.0.203</text>
</g>
<!-- 94bbdefd77e44fa49ccf4c793d0e879c&#45;&gt;6567fffba8dc4cc6bd6952dae7611dca -->
<g id="edge24" class="edge">
<title>94bbdefd77e44fa49ccf4c793d0e879c&#45;&gt;6567fffba8dc4cc6bd6952dae7611dca</title>
<path fill="none" stroke="purple" stroke-dasharray="1,5" d="M458.17,-302.08C458.17,-302.08 458.17,-301 458.17,-301 458.17,-301 607,-301 607,-301 607,-301 607,-266.09 607,-229.4"/>
<polygon fill="purple" stroke="purple" points="454.67,-301.78 458.17,-311.78 461.67,-301.78 454.67,-301.78"/>
</g>
<!-- 1c4dad11fa7e49a0bb9a32df8e0b7c74 -->
<g id="node15" class="node">
<title>1c4dad11fa7e49a0bb9a32df8e0b7c74</title>
<image xlink:href="icons/bitwarden.png" width="101px" height="101px" preserveAspectRatio="xMinYMin meet" x="736.5" y="-196.5"/>
<text text-anchor="middle" x="787" y="-80.6" font-family="Sans-Serif" font-size="13.00" fill="#2d3436">[VM] </text>
<text text-anchor="middle" x="787" y="-66.6" font-family="Sans-Serif" font-size="13.00" fill="#2d3436"> vault.heuzef.com </text>
<text text-anchor="middle" x="787" y="-52.6" font-family="Sans-Serif" font-size="13.00" fill="#2d3436"> 192.168.0.103</text>
</g>
<!-- 315d5c88c318499faf9a18e6abd5ab57&#45;&gt;1c4dad11fa7e49a0bb9a32df8e0b7c74 -->
<g id="edge4" class="edge">
<title>315d5c88c318499faf9a18e6abd5ab57&#45;&gt;1c4dad11fa7e49a0bb9a32df8e0b7c74</title>
<path fill="none" stroke="#7b8894" d="M1528.25,-310C1353.45,-310 787,-310 787,-310 787,-310 787,-278.61 787,-243.29"/>
</g>
<!-- a0a980248f1c47b89e98f5ace3f13ac5 -->
<g id="node16" class="node">
<title>a0a980248f1c47b89e98f5ace3f13ac5</title>
<image xlink:href="icons/gitea.png" width="101px" height="101px" preserveAspectRatio="xMinYMin meet" x="880.5" y="-196.5"/>
<text text-anchor="middle" x="931" y="-80.6" font-family="Sans-Serif" font-size="13.00" fill="#2d3436">[VM] </text>
<text text-anchor="middle" x="931" y="-66.6" font-family="Sans-Serif" font-size="13.00" fill="#2d3436"> git.heuzef.com </text>
<text text-anchor="middle" x="931" y="-52.6" font-family="Sans-Serif" font-size="13.00" fill="#2d3436"> 192.168.0.104</text>
</g>
<!-- 315d5c88c318499faf9a18e6abd5ab57&#45;&gt;a0a980248f1c47b89e98f5ace3f13ac5 -->
<g id="edge5" class="edge">
<title>315d5c88c318499faf9a18e6abd5ab57&#45;&gt;a0a980248f1c47b89e98f5ace3f13ac5</title>
<path fill="none" stroke="#7b8894" d="M1528.42,-308C1375.92,-308 931,-308 931,-308 931,-308 931,-277.54 931,-243.04"/>
</g>
<!-- c06e01c65d7248169d9d2028e01df9f2 -->
<g id="node17" class="node">
<title>c06e01c65d7248169d9d2028e01df9f2</title>
<image xlink:href="icons/cognhacker.png" width="101px" height="95.5737px" preserveAspectRatio="xMinYMin meet" x="1024.5" y="-193.787"/>
<text text-anchor="middle" x="1075" y="-80.6" font-family="Sans-Serif" font-size="13.00" fill="#2d3436">[VM] </text>
<text text-anchor="middle" x="1075" y="-66.6" font-family="Sans-Serif" font-size="13.00" fill="#2d3436"> cognhacker.net </text>
<text text-anchor="middle" x="1075" y="-52.6" font-family="Sans-Serif" font-size="13.00" fill="#2d3436"> 192.168.0.105</text>
</g>
<!-- 315d5c88c318499faf9a18e6abd5ab57&#45;&gt;c06e01c65d7248169d9d2028e01df9f2 -->
<g id="edge6" class="edge">
<title>315d5c88c318499faf9a18e6abd5ab57&#45;&gt;c06e01c65d7248169d9d2028e01df9f2</title>
<path fill="none" stroke="#7b8894" d="M1528.37,-307C1400.56,-307 1075,-307 1075,-307 1075,-307 1075,-277.27 1075,-243.37"/>
</g>
<!-- eda4bf3ddd704c28af6a64a5a8223818 -->
<g id="node18" class="node">
<title>eda4bf3ddd704c28af6a64a5a8223818</title>
<image xlink:href="icons/shlink.png" width="101px" height="101px" preserveAspectRatio="xMinYMin meet" x="1168.5" y="-196.5"/>
<text text-anchor="middle" x="1219" y="-80.6" font-family="Sans-Serif" font-size="13.00" fill="#2d3436">[VM] </text>
<text text-anchor="middle" x="1219" y="-66.6" font-family="Sans-Serif" font-size="13.00" fill="#2d3436"> heuzef.link </text>
<text text-anchor="middle" x="1219" y="-52.6" font-family="Sans-Serif" font-size="13.00" fill="#2d3436"> 192.168.0.106</text>
</g>
<!-- 315d5c88c318499faf9a18e6abd5ab57&#45;&gt;eda4bf3ddd704c28af6a64a5a8223818 -->
<g id="edge7" class="edge">
<title>315d5c88c318499faf9a18e6abd5ab57&#45;&gt;eda4bf3ddd704c28af6a64a5a8223818</title>
<path fill="none" stroke="#7b8894" d="M1528.18,-305C1428.95,-305 1219,-305 1219,-305 1219,-305 1219,-276.17 1219,-243.07"/>
</g>
<!-- 39b62936eb7647f6abbf2c77569979a0 -->
<g id="node19" class="node">
<title>39b62936eb7647f6abbf2c77569979a0</title>
<image xlink:href="icons/files.png" width="101px" height="101px" preserveAspectRatio="xMinYMin meet" x="1312.5" y="-196.5"/>
<text text-anchor="middle" x="1363" y="-80.6" font-family="Sans-Serif" font-size="13.00" fill="#2d3436">[VM] files.heuzef.com </text>
<text text-anchor="middle" x="1363" y="-66.6" font-family="Sans-Serif" font-size="13.00" fill="#2d3436"> 192.168.0.110</text>
</g>
<!-- 315d5c88c318499faf9a18e6abd5ab57&#45;&gt;39b62936eb7647f6abbf2c77569979a0 -->
<g id="edge8" class="edge">
<title>315d5c88c318499faf9a18e6abd5ab57&#45;&gt;39b62936eb7647f6abbf2c77569979a0</title>
<path fill="none" stroke="#7b8894" d="M1528.36,-302C1464.51,-302 1363,-302 1363,-302 1363,-302 1363,-266.28 1363,-229.02"/>
</g>
<!-- 6964121d6f9149728830aaa0df83bd21 -->
<g id="node20" class="node">
<title>6964121d6f9149728830aaa0df83bd21</title>
<image xlink:href="icons/web.png" width="101px" height="101px" preserveAspectRatio="xMinYMin meet" x="1456.5" y="-196.5"/>
<text text-anchor="middle" x="1507" y="-80.6" font-family="Sans-Serif" font-size="13.00" fill="#2d3436">[VM] </text>
<text text-anchor="middle" x="1507" y="-66.6" font-family="Sans-Serif" font-size="13.00" fill="#2d3436"> heuzef.com </text>
<text text-anchor="middle" x="1507" y="-52.6" font-family="Sans-Serif" font-size="13.00" fill="#2d3436"> 192.168.0.120</text>
</g>
<!-- 315d5c88c318499faf9a18e6abd5ab57&#45;&gt;6964121d6f9149728830aaa0df83bd21 -->
<g id="edge10" class="edge">
<title>315d5c88c318499faf9a18e6abd5ab57&#45;&gt;6964121d6f9149728830aaa0df83bd21</title>
<path fill="none" stroke="#7b8894" d="M1543,-297.66C1543,-279.79 1543,-261.14 1543,-243.27"/>
</g>
<!-- 39d674eafd2c41c5a51e9411ca40761f -->
<g id="node21" class="node">
<title>39d674eafd2c41c5a51e9411ca40761f</title>
<image xlink:href="icons/media-services.png" width="101px" height="101px" preserveAspectRatio="xMinYMin meet" x="1600.5" y="-196.5"/>
<text text-anchor="middle" x="1651" y="-80.6" font-family="Sans-Serif" font-size="13.00" fill="#2d3436">[VM] media </text>
<text text-anchor="middle" x="1651" y="-66.6" font-family="Sans-Serif" font-size="13.00" fill="#2d3436"> 192.168.0.111</text>
</g>
<!-- 315d5c88c318499faf9a18e6abd5ab57&#45;&gt;39d674eafd2c41c5a51e9411ca40761f -->
<g id="edge9" class="edge">
<title>315d5c88c318499faf9a18e6abd5ab57&#45;&gt;39d674eafd2c41c5a51e9411ca40761f</title>
<path fill="none" stroke="#7b8894" d="M1610.17,-297.66C1610.17,-275.02 1610.17,-251.12 1610.17,-229.15"/>
</g>
<!-- 632d1d013d6f469e95e49ae7db6d150c -->
<g id="node22" class="node">
<title>632d1d013d6f469e95e49ae7db6d150c</title>
<image xlink:href="icons/web.png" width="101px" height="101px" preserveAspectRatio="xMinYMin meet" x="1744.5" y="-196.5"/>
<text text-anchor="middle" x="1795" y="-80.6" font-family="Sans-Serif" font-size="13.00" fill="#2d3436">[VM] </text>
<text text-anchor="middle" x="1795" y="-66.6" font-family="Sans-Serif" font-size="13.00" fill="#2d3436"> lemurier.immo </text>
<text text-anchor="middle" x="1795" y="-52.6" font-family="Sans-Serif" font-size="13.00" fill="#2d3436"> 192.168.0.121</text>
</g>
<!-- 315d5c88c318499faf9a18e6abd5ab57&#45;&gt;632d1d013d6f469e95e49ae7db6d150c -->
<g id="edge11" class="edge">
<title>315d5c88c318499faf9a18e6abd5ab57&#45;&gt;632d1d013d6f469e95e49ae7db6d150c</title>
<path fill="none" stroke="#7b8894" d="M1619.83,-297.93C1619.83,-264.83 1619.83,-236 1619.83,-236 1619.83,-236 1692.6,-236 1744.33,-236"/>
</g>
<!-- 90bae089b4af452dbf4c4a3ad8c5069f -->
<g id="node23" class="node">
<title>90bae089b4af452dbf4c4a3ad8c5069f</title>
<image xlink:href="icons/web.png" width="101px" height="101px" preserveAspectRatio="xMinYMin meet" x="1888.5" y="-196.5"/>
<text text-anchor="middle" x="1939" y="-80.6" font-family="Sans-Serif" font-size="13.00" fill="#2d3436">[VM] </text>
<text text-anchor="middle" x="1939" y="-66.6" font-family="Sans-Serif" font-size="13.00" fill="#2d3436"> couvreur&#45;cognac.fr </text>
<text text-anchor="middle" x="1939" y="-52.6" font-family="Sans-Serif" font-size="13.00" fill="#2d3436"> 192.168.0.122</text>
</g>
<!-- 315d5c88c318499faf9a18e6abd5ab57&#45;&gt;90bae089b4af452dbf4c4a3ad8c5069f -->
<g id="edge12" class="edge">
<title>315d5c88c318499faf9a18e6abd5ab57&#45;&gt;90bae089b4af452dbf4c4a3ad8c5069f</title>
<path fill="none" stroke="#7b8894" d="M1629.82,-330C1729.05,-330 1939,-330 1939,-330 1939,-330 1939,-287.35 1939,-243.12"/>
</g>
<!-- c8a5fa53787e46488720e89d2a47125b -->
<g id="node24" class="node">
<title>c8a5fa53787e46488720e89d2a47125b</title>
<image xlink:href="icons/web.png" width="101px" height="101px" preserveAspectRatio="xMinYMin meet" x="2032.5" y="-196.5"/>
<text text-anchor="middle" x="2083" y="-80.6" font-family="Sans-Serif" font-size="13.00" fill="#2d3436">[VM] </text>
<text text-anchor="middle" x="2083" y="-66.6" font-family="Sans-Serif" font-size="13.00" fill="#2d3436"> beboop.boo </text>
<text text-anchor="middle" x="2083" y="-52.6" font-family="Sans-Serif" font-size="13.00" fill="#2d3436"> 192.168.0.123</text>
</g>
<!-- 315d5c88c318499faf9a18e6abd5ab57&#45;&gt;c8a5fa53787e46488720e89d2a47125b -->
<g id="edge13" class="edge">
<title>315d5c88c318499faf9a18e6abd5ab57&#45;&gt;c8a5fa53787e46488720e89d2a47125b</title>
<path fill="none" stroke="#7b8894" d="M1629.63,-362C1757.44,-362 2083,-362 2083,-362 2083,-362 2083,-300.59 2083,-243.26"/>
</g>
<!-- ba372c57c05d4fc18bc4de7786cbc0ad -->
<g id="node25" class="node">
<title>ba372c57c05d4fc18bc4de7786cbc0ad</title>
<image xlink:href="icons/prusa.png" width="101px" height="61.7156px" preserveAspectRatio="xMinYMin meet" x="2176.5" y="-176.858"/>
<text text-anchor="middle" x="2227" y="-80.6" font-family="Sans-Serif" font-size="13.00" fill="#2d3436">mk4.heuzef.com </text>
<text text-anchor="middle" x="2227" y="-66.6" font-family="Sans-Serif" font-size="13.00" fill="#2d3436"> 192.168.0.204</text>
</g>
<!-- 315d5c88c318499faf9a18e6abd5ab57&#45;&gt;ba372c57c05d4fc18bc4de7786cbc0ad -->
<g id="edge3" class="edge">
<title>315d5c88c318499faf9a18e6abd5ab57&#45;&gt;ba372c57c05d4fc18bc4de7786cbc0ad</title>
<path fill="none" stroke="#7b8894" d="M1629.58,-395C1782.08,-395 2227,-395 2227,-395 2227,-395 2227,-301.65 2227,-229.26"/>
</g>
<!-- 6cb8bb9759f242138737a3367182fe1b -->
<g id="node26" class="node">
<title>6cb8bb9759f242138737a3367182fe1b</title>
<image xlink:href="icons/kaladrius.png" width="101px" height="101px" preserveAspectRatio="xMinYMin meet" x="2320.5" y="-196.5"/>
<text text-anchor="middle" x="2371" y="-80.6" font-family="Sans-Serif" font-size="13.00" fill="#2d3436">kaladrius.fr </text>
<text text-anchor="middle" x="2371" y="-66.6" font-family="Sans-Serif" font-size="13.00" fill="#2d3436"> 192.168.0.150</text>
</g>
<!-- 315d5c88c318499faf9a18e6abd5ab57&#45;&gt;6cb8bb9759f242138737a3367182fe1b -->
<g id="edge1" class="edge">
<title>315d5c88c318499faf9a18e6abd5ab57&#45;&gt;6cb8bb9759f242138737a3367182fe1b</title>
<path fill="none" stroke="#7b8894" d="M1629.75,-427C1804.55,-427 2371,-427 2371,-427 2371,-427 2371,-312.03 2371,-229.17"/>
</g>
<!-- b76c0b9a8ae0455fb69da6d05f1c8e76 -->
<g id="node27" class="node">
<title>b76c0b9a8ae0455fb69da6d05f1c8e76</title>
<image xlink:href="icons/factorio.png" width="101px" height="101px" preserveAspectRatio="xMinYMin meet" x="2464.5" y="-196.5"/>
<text text-anchor="middle" x="2515" y="-80.6" font-family="Sans-Serif" font-size="13.00" fill="#2d3436">factorio.heuzef.com </text>
<text text-anchor="middle" x="2515" y="-66.6" font-family="Sans-Serif" font-size="13.00" fill="#2d3436"> 192.168.0.151</text>
</g>
<!-- 315d5c88c318499faf9a18e6abd5ab57&#45;&gt;b76c0b9a8ae0455fb69da6d05f1c8e76 -->
<g id="edge2" class="edge">
<title>315d5c88c318499faf9a18e6abd5ab57&#45;&gt;b76c0b9a8ae0455fb69da6d05f1c8e76</title>
<path fill="none" stroke="#7b8894" d="M1629.66,-459C1824.53,-459 2515,-459 2515,-459 2515,-459 2515,-321.78 2515,-229.06"/>
</g>
</g>
</svg>
