<?xml version="1.0" encoding="UTF-8" standalone="no"?>
<!DOCTYPE svg PUBLIC "-//W3C//DTD SVG 1.1//EN"
 "http://www.w3.org/Graphics/SVG/1.1/DTD/svg11.dtd">
<!-- Generated by graphviz version 2.44.0 (0)
 -->
<!-- Title: Carte reseau de Heuzef &#45; 26/07/2023 08:40 Pages: 1 -->
<svg width="5299pt" height="1762pt"
 viewBox="0.00 0.00 5298.50 1761.50" xmlns="http://www.w3.org/2000/svg" xmlns:xlink="http://www.w3.org/1999/xlink">
<g id="graph0" class="graph" transform="scale(1 1) rotate(0) translate(144 1617.5)">
<title>Carte reseau de Heuzef &#45; 26/07/2023 08:40</title>
<polygon fill="white" stroke="transparent" points="-144,144 -144,-1617.5 5154.5,-1617.5 5154.5,144 -144,144"/>
<text text-anchor="middle" x="2505.25" y="-9" font-family="Sans-Serif" font-size="15.00" fill="#2d3436">Carte reseau de Heuzef &#45; 26/07/2023 08:40</text>
<g id="clust1" class="cluster">
<title>cluster_[WIP] Zone GUEST 
 VLAN 20 
 DHCP : 192.168.10.???&#45;???</title>
<path fill="#e5f5fd" stroke="#aeb6be" d="M3271.5,-282C3271.5,-282 3424.5,-282 3424.5,-282 3430.5,-282 3436.5,-288 3436.5,-294 3436.5,-294 3436.5,-726.5 3436.5,-726.5 3436.5,-732.5 3430.5,-738.5 3424.5,-738.5 3424.5,-738.5 3271.5,-738.5 3271.5,-738.5 3265.5,-738.5 3259.5,-732.5 3259.5,-726.5 3259.5,-726.5 3259.5,-294 3259.5,-294 3259.5,-288 3265.5,-282 3271.5,-282"/>
<text text-anchor="middle" x="3348" y="-724.9" font-family="Sans-Serif" font-size="12.00" fill="#2d3436">[WIP] Zone GUEST </text>
<text text-anchor="middle" x="3348" y="-711.9" font-family="Sans-Serif" font-size="12.00" fill="#2d3436"> VLAN 20 </text>
<text text-anchor="middle" x="3348" y="-698.9" font-family="Sans-Serif" font-size="12.00" fill="#2d3436"> DHCP : 192.168.10.???&#45;???</text>
</g>
<g id="clust2" class="cluster">
<title>cluster_Zone HOME 
 VLAN 10 
 DHCP : 192.168.10.1&#45;99</title>
<path fill="#e5f5fd" stroke="#aeb6be" d="M3456.5,-282C3456.5,-282 4990.5,-282 4990.5,-282 4996.5,-282 5002.5,-288 5002.5,-294 5002.5,-294 5002.5,-726.5 5002.5,-726.5 5002.5,-732.5 4996.5,-738.5 4990.5,-738.5 4990.5,-738.5 3456.5,-738.5 3456.5,-738.5 3450.5,-738.5 3444.5,-732.5 3444.5,-726.5 3444.5,-726.5 3444.5,-294 3444.5,-294 3444.5,-288 3450.5,-282 3456.5,-282"/>
<text text-anchor="middle" x="3526.5" y="-724.9" font-family="Sans-Serif" font-size="12.00" fill="#2d3436">Zone HOME </text>
<text text-anchor="middle" x="3526.5" y="-711.9" font-family="Sans-Serif" font-size="12.00" fill="#2d3436"> VLAN 10 </text>
<text text-anchor="middle" x="3526.5" y="-698.9" font-family="Sans-Serif" font-size="12.00" fill="#2d3436"> DHCP : 192.168.10.1&#45;99</text>
</g>
<g id="clust3" class="cluster">
<title>cluster_Zone DMZ 
 VLAN 100 
 DHCP : 192.168.10.1&#45;99</title>
<path fill="#e5f5fd" stroke="#aeb6be" d="M553.5,-33C553.5,-33 3239.5,-33 3239.5,-33 3245.5,-33 3251.5,-39 3251.5,-45 3251.5,-45 3251.5,-498.5 3251.5,-498.5 3251.5,-504.5 3245.5,-510.5 3239.5,-510.5 3239.5,-510.5 553.5,-510.5 553.5,-510.5 547.5,-510.5 541.5,-504.5 541.5,-498.5 541.5,-498.5 541.5,-45 541.5,-45 541.5,-39 547.5,-33 553.5,-33"/>
<text text-anchor="middle" x="623.5" y="-496.9" font-family="Sans-Serif" font-size="12.00" fill="#2d3436">Zone DMZ </text>
<text text-anchor="middle" x="623.5" y="-483.9" font-family="Sans-Serif" font-size="12.00" fill="#2d3436"> VLAN 100 </text>
<text text-anchor="middle" x="623.5" y="-470.9" font-family="Sans-Serif" font-size="12.00" fill="#2d3436"> DHCP : 192.168.10.1&#45;99</text>
</g>
<g id="clust4" class="cluster">
<title>cluster_SPARE</title>
<path fill="#e5f5fd" stroke="#aeb6be" d="M1580.5,-1262.5C1580.5,-1262.5 1818.5,-1262.5 1818.5,-1262.5 1824.5,-1262.5 1830.5,-1268.5 1830.5,-1274.5 1830.5,-1274.5 1830.5,-1453.5 1830.5,-1453.5 1830.5,-1459.5 1824.5,-1465.5 1818.5,-1465.5 1818.5,-1465.5 1580.5,-1465.5 1580.5,-1465.5 1574.5,-1465.5 1568.5,-1459.5 1568.5,-1453.5 1568.5,-1453.5 1568.5,-1274.5 1568.5,-1274.5 1568.5,-1268.5 1574.5,-1262.5 1580.5,-1262.5"/>
<text text-anchor="middle" x="1596" y="-1451.9" font-family="Sans-Serif" font-size="12.00" fill="#2d3436">SPARE</text>
</g>
<!-- b056a4287a784ffe9ee768ca02442cc9 -->
<g id="node1" class="node">
<title>b056a4287a784ffe9ee768ca02442cc9</title>
<image xlink:href="icons/internet.png" width="101px" height="101px" preserveAspectRatio="xMinYMin meet" x="360" y="-1404"/>
<text text-anchor="middle" x="410.5" y="-1288.6" font-family="Sans-Serif" font-size="13.00" fill="#2d3436">Internet</text>
</g>
<!-- 3cc33e90167b4f5ea54bd2830e84cbc9 -->
<g id="node2" class="node">
<title>3cc33e90167b4f5ea54bd2830e84cbc9</title>
<image xlink:href="icons/router.png" width="101px" height="101px" preserveAspectRatio="xMinYMin meet" x="360" y="-1170"/>
<text text-anchor="middle" x="410.5" y="-1054.1" font-family="Sans-Serif" font-size="13.00" fill="#2d3436">Routeur Free </text>
<text text-anchor="middle" x="410.5" y="-1040.1" font-family="Sans-Serif" font-size="13.00" fill="#2d3436"> 192.168.0.1</text>
</g>
<!-- b056a4287a784ffe9ee768ca02442cc9&#45;&gt;3cc33e90167b4f5ea54bd2830e84cbc9 -->
<g id="edge1" class="edge">
<title>b056a4287a784ffe9ee768ca02442cc9&#45;&gt;3cc33e90167b4f5ea54bd2830e84cbc9</title>
<path fill="none" stroke="red" stroke-width="2" d="M410.5,-1284.87C410.5,-1284.87 410.5,-1212.63 410.5,-1212.63"/>
<polygon fill="red" stroke="red" stroke-width="2" points="414,-1212.63 410.5,-1202.63 407,-1212.63 414,-1212.63"/>
<text text-anchor="middle" x="427.5" y="-1233.1" font-family="Sans-Serif" font-size="13.00" fill="#2d3436">FTTH</text>
</g>
<!-- ebb734e7dcc64bc7bf6d4631fab34844 -->
<g id="node3" class="node">
<title>ebb734e7dcc64bc7bf6d4631fab34844</title>
<image xlink:href="icons/cloud-keys.png" width="101px" height="101px" preserveAspectRatio="xMinYMin meet" x="123" y="-935"/>
<text text-anchor="middle" x="173.5" y="-819.6" font-family="Sans-Serif" font-size="13.00" fill="#2d3436">Elocky EZY</text>
</g>
<!-- 3cc33e90167b4f5ea54bd2830e84cbc9&#45;&gt;ebb734e7dcc64bc7bf6d4631fab34844 -->
<g id="edge10" class="edge">
<title>3cc33e90167b4f5ea54bd2830e84cbc9&#45;&gt;ebb734e7dcc64bc7bf6d4631fab34844</title>
<path fill="none" stroke="purple" d="M359.95,-1119C290.34,-1119 173.5,-1119 173.5,-1119 173.5,-1119 173.5,-963.27 173.5,-963.27"/>
<polygon fill="purple" stroke="purple" points="177,-963.27 173.5,-953.27 170,-963.27 177,-963.27"/>
</g>
<!-- 0ce591c0957b44cf90c4df5c63c9ebb8 -->
<g id="node5" class="node">
<title>0ce591c0957b44cf90c4df5c63c9ebb8</title>
<image xlink:href="icons/wifi.png" width="101px" height="101px" preserveAspectRatio="xMinYMin meet" x="360" y="-935"/>
<text text-anchor="middle" x="410.5" y="-819.1" font-family="Sans-Serif" font-size="13.00" fill="#2d3436">Wi&#45;Fi Free </text>
<text text-anchor="middle" x="410.5" y="-805.1" font-family="Sans-Serif" font-size="13.00" fill="#2d3436"> heuzef&#45;cognac &#160;</text>
<text text-anchor="middle" x="410.5" y="-791.1" font-family="Sans-Serif" font-size="13.00" fill="#2d3436"> &#160;192.168.0.0/24</text>
</g>
<!-- 3cc33e90167b4f5ea54bd2830e84cbc9&#45;&gt;0ce591c0957b44cf90c4df5c63c9ebb8 -->
<g id="edge3" class="edge">
<title>3cc33e90167b4f5ea54bd2830e84cbc9&#45;&gt;0ce591c0957b44cf90c4df5c63c9ebb8</title>
<path fill="none" stroke="blue" stroke-dasharray="1,5" d="M410.5,-1036.32C410.5,-1036.32 410.5,-991.63 410.5,-991.63"/>
<polygon fill="blue" stroke="blue" points="414,-991.63 410.5,-981.63 407,-991.63 414,-991.63"/>
</g>
<!-- e3ccddc8f573467993e28ff91e6e2a6a -->
<g id="node12" class="node">
<title>e3ccddc8f573467993e28ff91e6e2a6a</title>
<image xlink:href="icons/firewall.png" width="101px" height="101px" preserveAspectRatio="xMinYMin meet" x="2592" y="-935"/>
<text text-anchor="middle" x="2642.5" y="-819.1" font-family="Sans-Serif" font-size="13.00" fill="#2d3436">firewall.heuzef.com </text>
<text text-anchor="middle" x="2642.5" y="-805.1" font-family="Sans-Serif" font-size="13.00" fill="#2d3436"> 192.168.0.2 </text>
<text text-anchor="middle" x="2642.5" y="-791.1" font-family="Sans-Serif" font-size="13.00" fill="#2d3436"> OpenVPN 10.100.0.0/24</text>
</g>
<!-- 3cc33e90167b4f5ea54bd2830e84cbc9&#45;&gt;e3ccddc8f573467993e28ff91e6e2a6a -->
<g id="edge2" class="edge">
<title>3cc33e90167b4f5ea54bd2830e84cbc9&#45;&gt;e3ccddc8f573467993e28ff91e6e2a6a</title>
<path fill="none" stroke="red" stroke-width="2" d="M461.05,-1119C792.55,-1119 2642.5,-1119 2642.5,-1119 2642.5,-1119 2642.5,-991.57 2642.5,-991.57"/>
<polygon fill="red" stroke="red" stroke-width="2" points="2646,-991.57 2642.5,-981.57 2639,-991.57 2646,-991.57"/>
</g>
<!-- a7b2d29d868a410190c684d45f2c0462 -->
<g id="node4" class="node">
<title>a7b2d29d868a410190c684d45f2c0462</title>
<image xlink:href="icons/server-cloud.png" width="101px" height="101px" preserveAspectRatio="xMinYMin meet" x="0" y="-665.5"/>
<text text-anchor="middle" x="50.5" y="-550.1" font-family="Sans-Serif" font-size="13.00" fill="#2d3436">Serveur Elocky</text>
</g>
<!-- ebb734e7dcc64bc7bf6d4631fab34844&#45;&gt;a7b2d29d868a410190c684d45f2c0462 -->
<g id="edge11" class="edge">
<title>ebb734e7dcc64bc7bf6d4631fab34844&#45;&gt;a7b2d29d868a410190c684d45f2c0462</title>
<path fill="none" stroke="purple" d="M133.5,-805.8C133.5,-805.8 133.5,-615 133.5,-615 133.5,-615 118.45,-615 101.17,-615"/>
<polygon fill="purple" stroke="purple" points="130,-805.8 133.5,-815.8 137,-805.8 130,-805.8"/>
<text text-anchor="middle" x="103.5" y="-750.1" font-family="Sans-Serif" font-size="13.00" fill="#2d3436">VPN over HTTPS</text>
</g>
<!-- fdee0c8a0a7f4b29b13ad6d505e12db9 -->
<g id="node6" class="node">
<title>fdee0c8a0a7f4b29b13ad6d505e12db9</title>
<image xlink:href="icons/devices.png" width="101px" height="101px" preserveAspectRatio="xMinYMin meet" x="144" y="-665.5"/>
<text text-anchor="middle" x="194.5" y="-550.1" font-family="Sans-Serif" font-size="13.00" fill="#2d3436">Peripheriques</text>
</g>
<!-- 0ce591c0957b44cf90c4df5c63c9ebb8&#45;&gt;fdee0c8a0a7f4b29b13ad6d505e12db9 -->
<g id="edge4" class="edge">
<title>0ce591c0957b44cf90c4df5c63c9ebb8&#45;&gt;fdee0c8a0a7f4b29b13ad6d505e12db9</title>
<path fill="none" stroke="blue" stroke-dasharray="1,5" d="M349.59,-801C349.59,-801 234.5,-801 234.5,-801 234.5,-801 234.5,-736.72 234.5,-683.73"/>
<polygon fill="blue" stroke="blue" points="349.59,-804.5 359.59,-801 349.59,-797.5 349.59,-804.5"/>
</g>
<!-- 286770ea2f9d4129b5ea251660d01e39 -->
<g id="node7" class="node">
<title>286770ea2f9d4129b5ea251660d01e39</title>
<image xlink:href="icons/clock.png" width="101px" height="101px" preserveAspectRatio="xMinYMin meet" x="288" y="-665.5"/>
<text text-anchor="middle" x="338.5" y="-550.1" font-family="Sans-Serif" font-size="13.00" fill="#2d3436">Aura</text>
</g>
<!-- 0ce591c0957b44cf90c4df5c63c9ebb8&#45;&gt;286770ea2f9d4129b5ea251660d01e39 -->
<g id="edge6" class="edge">
<title>0ce591c0957b44cf90c4df5c63c9ebb8&#45;&gt;286770ea2f9d4129b5ea251660d01e39</title>
<path fill="none" stroke="purple" stroke-dasharray="1,5" d="M374.5,-777.2C374.5,-777.2 374.5,-683.86 374.5,-683.86"/>
<polygon fill="purple" stroke="purple" points="371,-777.2 374.5,-787.2 378,-777.2 371,-777.2"/>
</g>
<!-- 171788c26beb4c85a65178b44360b8a7 -->
<g id="node9" class="node">
<title>171788c26beb4c85a65178b44360b8a7</title>
<text text-anchor="middle" x="482.5" y="-550.1" font-family="Sans-Serif" font-size="13.00" fill="#2d3436">Dyad Pro</text>
</g>
<!-- 0ce591c0957b44cf90c4df5c63c9ebb8&#45;&gt;171788c26beb4c85a65178b44360b8a7 -->
<g id="edge8" class="edge">
<title>0ce591c0957b44cf90c4df5c63c9ebb8&#45;&gt;171788c26beb4c85a65178b44360b8a7</title>
<path fill="none" stroke="purple" stroke-dasharray="1,5" d="M446.5,-777.2C446.5,-777.2 446.5,-683.86 446.5,-683.86"/>
<polygon fill="purple" stroke="purple" points="443,-777.2 446.5,-787.2 450,-777.2 443,-777.2"/>
</g>
<!-- 518b3f3773444ae8a6af68d3bd5a29b1 -->
<g id="node11" class="node">
<title>518b3f3773444ae8a6af68d3bd5a29b1</title>
<image xlink:href="icons/print.png" width="101px" height="101px" preserveAspectRatio="xMinYMin meet" x="576" y="-665.5"/>
<text text-anchor="middle" x="626.5" y="-550.1" font-family="Sans-Serif" font-size="13.00" fill="#2d3436">imprimante.heuzef.com</text>
</g>
<!-- 0ce591c0957b44cf90c4df5c63c9ebb8&#45;&gt;518b3f3773444ae8a6af68d3bd5a29b1 -->
<g id="edge5" class="edge">
<title>0ce591c0957b44cf90c4df5c63c9ebb8&#45;&gt;518b3f3773444ae8a6af68d3bd5a29b1</title>
<path fill="none" stroke="blue" stroke-dasharray="1,5" d="M471.14,-884C471.14,-884 626.5,-884 626.5,-884 626.5,-884 626.5,-763.27 626.5,-683.58"/>
<polygon fill="blue" stroke="blue" points="471.14,-880.5 461.14,-884 471.14,-887.5 471.14,-880.5"/>
</g>
<!-- fcdf0fef35c0421591ba42a0b4eb7872 -->
<g id="node8" class="node">
<title>fcdf0fef35c0421591ba42a0b4eb7872</title>
<image xlink:href="icons/server-cloud.png" width="101px" height="101px" preserveAspectRatio="xMinYMin meet" x="288" y="-437.5"/>
<text text-anchor="middle" x="338.5" y="-322.1" font-family="Sans-Serif" font-size="13.00" fill="#2d3436">Serveur Withings</text>
</g>
<!-- 286770ea2f9d4129b5ea251660d01e39&#45;&gt;fcdf0fef35c0421591ba42a0b4eb7872 -->
<g id="edge7" class="edge">
<title>286770ea2f9d4129b5ea251660d01e39&#45;&gt;fcdf0fef35c0421591ba42a0b4eb7872</title>
<path fill="none" stroke="purple" d="M338.5,-536.28C338.5,-536.28 338.5,-455.58 338.5,-455.58"/>
<polygon fill="purple" stroke="purple" points="335,-536.28 338.5,-546.28 342,-536.28 335,-536.28"/>
</g>
<!-- 045c62e80c274d07bacc21403696c15b -->
<g id="node10" class="node">
<title>045c62e80c274d07bacc21403696c15b</title>
<image xlink:href="icons/server-cloud.png" width="101px" height="101px" preserveAspectRatio="xMinYMin meet" x="432" y="-437.5"/>
<text text-anchor="middle" x="482.5" y="-322.1" font-family="Sans-Serif" font-size="13.00" fill="#2d3436">Serveur Roborock</text>
</g>
<!-- 171788c26beb4c85a65178b44360b8a7&#45;&gt;045c62e80c274d07bacc21403696c15b -->
<g id="edge9" class="edge">
<title>171788c26beb4c85a65178b44360b8a7&#45;&gt;045c62e80c274d07bacc21403696c15b</title>
<path fill="none" stroke="purple" d="M482.5,-536.28C482.5,-536.28 482.5,-455.58 482.5,-455.58"/>
<polygon fill="purple" stroke="purple" points="479,-536.28 482.5,-546.28 486,-536.28 479,-536.28"/>
</g>
<!-- 775536e32c4b4534b871d392434d231b -->
<g id="node13" class="node">
<title>775536e32c4b4534b871d392434d231b</title>
<image xlink:href="icons/networking.png" width="101px" height="101px" preserveAspectRatio="xMinYMin meet" x="3268" y="-665.5"/>
<text text-anchor="middle" x="3318.5" y="-550.1" font-family="Sans-Serif" font-size="13.00" fill="#2d3436">192.168.20.0/24</text>
</g>
<!-- e3ccddc8f573467993e28ff91e6e2a6a&#45;&gt;775536e32c4b4534b871d392434d231b -->
<g id="edge12" class="edge">
<title>e3ccddc8f573467993e28ff91e6e2a6a&#45;&gt;775536e32c4b4534b871d392434d231b</title>
<path fill="none" stroke="#7b8894" stroke-dasharray="1,5" d="M2680,-787.2C2680,-710.01 2680,-615 2680,-615 2680,-615 3257.86,-615 3257.86,-615"/>
<polygon fill="#7b8894" stroke="#7b8894" points="3257.86,-618.5 3267.86,-615 3257.86,-611.5 3257.86,-618.5"/>
</g>
<!-- e9965005bbfe43e2955220c931f712d1 -->
<g id="node15" class="node">
<title>e9965005bbfe43e2955220c931f712d1</title>
<image xlink:href="icons/networking.png" width="101px" height="101px" preserveAspectRatio="xMinYMin meet" x="4101" y="-665.5"/>
<text text-anchor="middle" x="4151.5" y="-550.1" font-family="Sans-Serif" font-size="13.00" fill="#2d3436">192.168.10.0/24</text>
</g>
<!-- e3ccddc8f573467993e28ff91e6e2a6a&#45;&gt;e9965005bbfe43e2955220c931f712d1 -->
<g id="edge13" class="edge">
<title>e3ccddc8f573467993e28ff91e6e2a6a&#45;&gt;e9965005bbfe43e2955220c931f712d1</title>
<path fill="none" stroke="#7b8894" d="M2693.14,-884C2955.85,-884 4151.5,-884 4151.5,-884 4151.5,-884 4151.5,-693.58 4151.5,-693.58"/>
<polygon fill="#7b8894" stroke="#7b8894" points="4155,-693.58 4151.5,-683.58 4148,-693.58 4155,-693.58"/>
</g>
<!-- 82eae988e0274930ba63622770312b1b -->
<g id="node27" class="node">
<title>82eae988e0274930ba63622770312b1b</title>
<image xlink:href="icons/networking.png" width="101px" height="101px" preserveAspectRatio="xMinYMin meet" x="1917" y="-437.5"/>
<text text-anchor="middle" x="1967.5" y="-322.1" font-family="Sans-Serif" font-size="13.00" fill="#2d3436">192.168.100.0/24</text>
</g>
<!-- e3ccddc8f573467993e28ff91e6e2a6a&#45;&gt;82eae988e0274930ba63622770312b1b -->
<g id="edge14" class="edge">
<title>e3ccddc8f573467993e28ff91e6e2a6a&#45;&gt;82eae988e0274930ba63622770312b1b</title>
<path fill="none" stroke="#7b8894" d="M2629.5,-787.45C2629.5,-656.92 2629.5,-441 2629.5,-441 2629.5,-441 2028.07,-441 2028.07,-441"/>
<polygon fill="#7b8894" stroke="#7b8894" points="2028.07,-437.5 2018.07,-441 2028.07,-444.5 2028.07,-437.5"/>
</g>
<!-- f6f03b5c054246f98418f055c2624a17 -->
<g id="node14" class="node">
<title>f6f03b5c054246f98418f055c2624a17</title>
<image xlink:href="icons/wifi.png" width="101px" height="101px" preserveAspectRatio="xMinYMin meet" x="3268" y="-437.5"/>
<text text-anchor="middle" x="3318.5" y="-321.6" font-family="Sans-Serif" font-size="13.00" fill="#2d3436">[WIP] </text>
<text text-anchor="middle" x="3318.5" y="-307.6" font-family="Sans-Serif" font-size="13.00" fill="#2d3436"> Wi&#45;Fi invite </text>
<text text-anchor="middle" x="3318.5" y="-293.6" font-family="Sans-Serif" font-size="13.00" fill="#2d3436"> 192.168.20.0/24</text>
</g>
<!-- 775536e32c4b4534b871d392434d231b&#45;&gt;f6f03b5c054246f98418f055c2624a17 -->
<g id="edge15" class="edge">
<title>775536e32c4b4534b871d392434d231b&#45;&gt;f6f03b5c054246f98418f055c2624a17</title>
<path fill="none" stroke="blue" stroke-dasharray="1,5" d="M3318.5,-546.28C3318.5,-546.28 3318.5,-494.2 3318.5,-494.2"/>
<polygon fill="blue" stroke="blue" points="3322,-494.2 3318.5,-484.2 3315,-494.2 3322,-494.2"/>
</g>
<!-- 5ee41f60af3c4cc89877131f234fab35 -->
<g id="node16" class="node">
<title>5ee41f60af3c4cc89877131f234fab35</title>
<image xlink:href="icons/server.png" width="101px" height="101px" preserveAspectRatio="xMinYMin meet" x="3453" y="-437.5"/>
<text text-anchor="middle" x="3503.5" y="-321.6" font-family="Sans-Serif" font-size="13.00" fill="#2d3436">pve.heuzef.com </text>
<text text-anchor="middle" x="3503.5" y="-307.6" font-family="Sans-Serif" font-size="13.00" fill="#2d3436"> 192.168.10.100</text>
</g>
<!-- e9965005bbfe43e2955220c931f712d1&#45;&gt;5ee41f60af3c4cc89877131f234fab35 -->
<g id="edge16" class="edge">
<title>e9965005bbfe43e2955220c931f712d1&#45;&gt;5ee41f60af3c4cc89877131f234fab35</title>
<path fill="none" stroke="#7b8894" d="M4100.92,-656C3948.42,-656 3503.5,-656 3503.5,-656 3503.5,-656 3503.5,-549.27 3503.5,-470.27"/>
</g>
<!-- 18529a08d7044c3db06a3e6b11e482d1 -->
<g id="node17" class="node">
<title>18529a08d7044c3db06a3e6b11e482d1</title>
<image xlink:href="icons/computer.png" width="101px" height="101px" preserveAspectRatio="xMinYMin meet" x="3597" y="-437.5"/>
<text text-anchor="middle" x="3647.5" y="-321.6" font-family="Sans-Serif" font-size="13.00" fill="#2d3436">pgmr.heuzef.com </text>
<text text-anchor="middle" x="3647.5" y="-307.6" font-family="Sans-Serif" font-size="13.00" fill="#2d3436"> 192.168.10.101</text>
</g>
<!-- e9965005bbfe43e2955220c931f712d1&#45;&gt;18529a08d7044c3db06a3e6b11e482d1 -->
<g id="edge17" class="edge">
<title>e9965005bbfe43e2955220c931f712d1&#45;&gt;18529a08d7044c3db06a3e6b11e482d1</title>
<path fill="none" stroke="#7b8894" d="M4100.87,-628C3973.06,-628 3647.5,-628 3647.5,-628 3647.5,-628 3647.5,-539.94 3647.5,-470.28"/>
</g>
<!-- 652d6b2541fa4e4085c2a34e20574aa0 -->
<g id="node18" class="node">
<title>652d6b2541fa4e4085c2a34e20574aa0</title>
<image xlink:href="icons/files.png" width="101px" height="101px" preserveAspectRatio="xMinYMin meet" x="3741" y="-437.5"/>
<text text-anchor="middle" x="3791.5" y="-321.6" font-family="Sans-Serif" font-size="13.00" fill="#2d3436">files.heuzef.com </text>
<text text-anchor="middle" x="3791.5" y="-307.6" font-family="Sans-Serif" font-size="13.00" fill="#2d3436"> 192.168.10.110</text>
</g>
<!-- e9965005bbfe43e2955220c931f712d1&#45;&gt;652d6b2541fa4e4085c2a34e20574aa0 -->
<g id="edge18" class="edge">
<title>e9965005bbfe43e2955220c931f712d1&#45;&gt;652d6b2541fa4e4085c2a34e20574aa0</title>
<path fill="none" stroke="#7b8894" d="M4100.68,-601C4001.45,-601 3791.5,-601 3791.5,-601 3791.5,-601 3791.5,-530.2 3791.5,-470.04"/>
</g>
<!-- a2ecd2ba6423481ea57a6e04135a65ed -->
<g id="node19" class="node">
<title>a2ecd2ba6423481ea57a6e04135a65ed</title>
<image xlink:href="icons/controls.png" width="101px" height="101px" preserveAspectRatio="xMinYMin meet" x="3885" y="-437.5"/>
<text text-anchor="middle" x="3935.5" y="-321.6" font-family="Sans-Serif" font-size="13.00" fill="#2d3436">bmc.heuzef.com </text>
<text text-anchor="middle" x="3935.5" y="-307.6" font-family="Sans-Serif" font-size="13.00" fill="#2d3436"> 192.168.10.111</text>
</g>
<!-- e9965005bbfe43e2955220c931f712d1&#45;&gt;a2ecd2ba6423481ea57a6e04135a65ed -->
<g id="edge23" class="edge">
<title>e9965005bbfe43e2955220c931f712d1&#45;&gt;a2ecd2ba6423481ea57a6e04135a65ed</title>
<path fill="none" stroke="#7b8894" d="M4100.86,-573C4037.01,-573 3935.5,-573 3935.5,-573 3935.5,-573 3935.5,-519.73 3935.5,-470.21"/>
</g>
<!-- 7195d259a1fa4b7eafe9c0405da0b584 -->
<g id="node20" class="node">
<title>7195d259a1fa4b7eafe9c0405da0b584</title>
<image xlink:href="icons/media-services.png" width="101px" height="101px" preserveAspectRatio="xMinYMin meet" x="4029" y="-437.5"/>
<text text-anchor="middle" x="4079.5" y="-321.6" font-family="Sans-Serif" font-size="13.00" fill="#2d3436">media.heuzef.com </text>
<text text-anchor="middle" x="4079.5" y="-307.6" font-family="Sans-Serif" font-size="13.00" fill="#2d3436"> 192.168.10.112</text>
</g>
<!-- e9965005bbfe43e2955220c931f712d1&#45;&gt;7195d259a1fa4b7eafe9c0405da0b584 -->
<g id="edge20" class="edge">
<title>e9965005bbfe43e2955220c931f712d1&#45;&gt;7195d259a1fa4b7eafe9c0405da0b584</title>
<path fill="none" stroke="#7b8894" d="M4115.5,-546.28C4115.5,-522.29 4115.5,-495.1 4115.5,-470.06"/>
</g>
<!-- a0b482da5e7d4f518947c7a63fa045cb -->
<g id="node21" class="node">
<title>a0b482da5e7d4f518947c7a63fa045cb</title>
<image xlink:href="icons/status-stopped.png" width="101px" height="101px" preserveAspectRatio="xMinYMin meet" x="4173" y="-437.5"/>
<text text-anchor="middle" x="4223.5" y="-321.6" font-family="Sans-Serif" font-size="13.00" fill="#2d3436">[VM STOPPED] </text>
<text text-anchor="middle" x="4223.5" y="-307.6" font-family="Sans-Serif" font-size="13.00" fill="#2d3436"> cao.heuzef.com </text>
<text text-anchor="middle" x="4223.5" y="-293.6" font-family="Sans-Serif" font-size="13.00" fill="#2d3436"> 192.168.10.113</text>
</g>
<!-- e9965005bbfe43e2955220c931f712d1&#45;&gt;a0b482da5e7d4f518947c7a63fa045cb -->
<g id="edge21" class="edge">
<title>e9965005bbfe43e2955220c931f712d1&#45;&gt;a0b482da5e7d4f518947c7a63fa045cb</title>
<path fill="none" stroke="#7b8894" d="M4187.5,-546.28C4187.5,-526.75 4187.5,-505.09 4187.5,-484.2"/>
</g>
<!-- 5d1a2297321a4f3c9458844bb46eac58 -->
<g id="node22" class="node">
<title>5d1a2297321a4f3c9458844bb46eac58</title>
<image xlink:href="icons/borg.png" width="101px" height="101px" preserveAspectRatio="xMinYMin meet" x="4317" y="-437.5"/>
<text text-anchor="middle" x="4367.5" y="-321.6" font-family="Sans-Serif" font-size="13.00" fill="#2d3436">[VM] </text>
<text text-anchor="middle" x="4367.5" y="-307.6" font-family="Sans-Serif" font-size="13.00" fill="#2d3436"> backup.heuzef.com </text>
<text text-anchor="middle" x="4367.5" y="-293.6" font-family="Sans-Serif" font-size="13.00" fill="#2d3436"> 192.168.10.114</text>
</g>
<!-- e9965005bbfe43e2955220c931f712d1&#45;&gt;5d1a2297321a4f3c9458844bb46eac58 -->
<g id="edge22" class="edge">
<title>e9965005bbfe43e2955220c931f712d1&#45;&gt;5d1a2297321a4f3c9458844bb46eac58</title>
<path fill="none" stroke="#7b8894" d="M4202.14,-569C4265.99,-569 4367.5,-569 4367.5,-569 4367.5,-569 4367.5,-527.5 4367.5,-484.13"/>
</g>
<!-- 94ba2fafdc834fb7bcea8cf1c1ea02ce -->
<g id="node23" class="node">
<title>94ba2fafdc834fb7bcea8cf1c1ea02ce</title>
<image xlink:href="icons/server.png" width="101px" height="101px" preserveAspectRatio="xMinYMin meet" x="4461" y="-437.5"/>
<text text-anchor="middle" x="4511.5" y="-321.6" font-family="Sans-Serif" font-size="13.00" fill="#2d3436">[VM] </text>
<text text-anchor="middle" x="4511.5" y="-307.6" font-family="Sans-Serif" font-size="13.00" fill="#2d3436"> wintest.heuzef.com </text>
<text text-anchor="middle" x="4511.5" y="-293.6" font-family="Sans-Serif" font-size="13.00" fill="#2d3436"> 192.168.10.149</text>
</g>
<!-- e9965005bbfe43e2955220c931f712d1&#45;&gt;94ba2fafdc834fb7bcea8cf1c1ea02ce -->
<g id="edge24" class="edge">
<title>e9965005bbfe43e2955220c931f712d1&#45;&gt;94ba2fafdc834fb7bcea8cf1c1ea02ce</title>
<path fill="none" stroke="#7b8894" d="M4202.32,-592C4301.55,-592 4511.5,-592 4511.5,-592 4511.5,-592 4511.5,-537.08 4511.5,-484.1"/>
</g>
<!-- ccf746e49b624b8ebe529575352a0874 -->
<g id="node24" class="node">
<title>ccf746e49b624b8ebe529575352a0874</title>
<image xlink:href="icons/vm.png" width="101px" height="101px" preserveAspectRatio="xMinYMin meet" x="4605" y="-437.5"/>
<text text-anchor="middle" x="4655.5" y="-321.6" font-family="Sans-Serif" font-size="13.00" fill="#2d3436">[VM] </text>
<text text-anchor="middle" x="4655.5" y="-307.6" font-family="Sans-Serif" font-size="13.00" fill="#2d3436"> hongli.heuzef.com </text>
<text text-anchor="middle" x="4655.5" y="-293.6" font-family="Sans-Serif" font-size="13.00" fill="#2d3436"> 192.168.10.150</text>
</g>
<!-- e9965005bbfe43e2955220c931f712d1&#45;&gt;ccf746e49b624b8ebe529575352a0874 -->
<g id="edge25" class="edge">
<title>e9965005bbfe43e2955220c931f712d1&#45;&gt;ccf746e49b624b8ebe529575352a0874</title>
<path fill="none" stroke="#7b8894" d="M4202.13,-615C4329.94,-615 4655.5,-615 4655.5,-615 4655.5,-615 4655.5,-546.08 4655.5,-484.02"/>
</g>
<!-- 17b05e02be16417a974ccace595888f5 -->
<g id="node25" class="node">
<title>17b05e02be16417a974ccace595888f5</title>
<image xlink:href="icons/switch.png" width="101px" height="101px" preserveAspectRatio="xMinYMin meet" x="4749" y="-437.5"/>
<text text-anchor="middle" x="4799.5" y="-321.6" font-family="Sans-Serif" font-size="13.00" fill="#2d3436">switch.heuzef.com </text>
<text text-anchor="middle" x="4799.5" y="-307.6" font-family="Sans-Serif" font-size="13.00" fill="#2d3436"> 192.168.10.201</text>
</g>
<!-- e9965005bbfe43e2955220c931f712d1&#45;&gt;17b05e02be16417a974ccace595888f5 -->
<g id="edge26" class="edge">
<title>e9965005bbfe43e2955220c931f712d1&#45;&gt;17b05e02be16417a974ccace595888f5</title>
<path fill="none" stroke="#7b8894" d="M4202.08,-637C4354.58,-637 4799.5,-637 4799.5,-637 4799.5,-637 4799.5,-542.97 4799.5,-470.25"/>
</g>
<!-- 2a8cd4f961c44455af001063a6fedc07 -->
<g id="node26" class="node">
<title>2a8cd4f961c44455af001063a6fedc07</title>
<image xlink:href="icons/octoprint.png" width="101px" height="81.204px" preserveAspectRatio="xMinYMin meet" x="4893" y="-427.602"/>
<text text-anchor="middle" x="4943.5" y="-321.6" font-family="Sans-Serif" font-size="13.00" fill="#2d3436">octoprint.heuzef.com </text>
<text text-anchor="middle" x="4943.5" y="-307.6" font-family="Sans-Serif" font-size="13.00" fill="#2d3436"> 192.168.10.203</text>
</g>
<!-- e9965005bbfe43e2955220c931f712d1&#45;&gt;2a8cd4f961c44455af001063a6fedc07 -->
<g id="edge27" class="edge">
<title>e9965005bbfe43e2955220c931f712d1&#45;&gt;2a8cd4f961c44455af001063a6fedc07</title>
<path fill="none" stroke="#7b8894" d="M4202.25,-660C4377.05,-660 4943.5,-660 4943.5,-660 4943.5,-660 4943.5,-550.34 4943.5,-470.02"/>
</g>
<!-- 19e9d90b444546aa975bcc82d4f2ae08 -->
<g id="node36" class="node">
<title>19e9d90b444546aa975bcc82d4f2ae08</title>
<image xlink:href="icons/networking-app-gw.png" width="101px" height="101px" preserveAspectRatio="xMinYMin meet" x="3142" y="-188.5"/>
<text text-anchor="middle" x="3192.5" y="-72.6" font-family="Sans-Serif" font-size="13.00" fill="#2d3436">[VM] </text>
<text text-anchor="middle" x="3192.5" y="-58.6" font-family="Sans-Serif" font-size="13.00" fill="#2d3436"> proxy.heuzef.com </text>
<text text-anchor="middle" x="3192.5" y="-44.6" font-family="Sans-Serif" font-size="13.00" fill="#2d3436"> 192.168.100.110</text>
</g>
<!-- 652d6b2541fa4e4085c2a34e20574aa0&#45;&gt;19e9d90b444546aa975bcc82d4f2ae08 -->
<g id="edge19" class="edge">
<title>652d6b2541fa4e4085c2a34e20574aa0&#45;&gt;19e9d90b444546aa975bcc82d4f2ae08</title>
<path fill="none" stroke="orange" d="M3791.5,-303.74C3791.5,-231.35 3791.5,-138 3791.5,-138 3791.5,-138 3387.47,-138 3243.05,-138"/>
</g>
<!-- 4752fe3de9734ea381a4da8e50af7a51 -->
<g id="node28" class="node">
<title>4752fe3de9734ea381a4da8e50af7a51</title>
<image xlink:href="icons/status-stopped.png" width="101px" height="101px" preserveAspectRatio="xMinYMin meet" x="550" y="-188.5"/>
<text text-anchor="middle" x="600.5" y="-72.6" font-family="Sans-Serif" font-size="13.00" fill="#2d3436">[VM STOPPED] </text>
<text text-anchor="middle" x="600.5" y="-58.6" font-family="Sans-Serif" font-size="13.00" fill="#2d3436"> web.heuzef.com </text>
<text text-anchor="middle" x="600.5" y="-44.6" font-family="Sans-Serif" font-size="13.00" fill="#2d3436"> 192.168.100.101</text>
</g>
<!-- 82eae988e0274930ba63622770312b1b&#45;&gt;4752fe3de9734ea381a4da8e50af7a51 -->
<g id="edge28" class="edge">
<title>82eae988e0274930ba63622770312b1b&#45;&gt;4752fe3de9734ea381a4da8e50af7a51</title>
<path fill="none" stroke="#7b8894" d="M1916.89,-441C1671.09,-441 613.5,-441 613.5,-441 613.5,-441 613.5,-323.75 613.5,-235.12"/>
</g>
<!-- a709504ff0c64f649669ff9719de12a4 -->
<g id="node29" class="node">
<title>a709504ff0c64f649669ff9719de12a4</title>
<image xlink:href="icons/lesspass.png" width="101px" height="101px" preserveAspectRatio="xMinYMin meet" x="694" y="-188.5"/>
<text text-anchor="middle" x="744.5" y="-72.6" font-family="Sans-Serif" font-size="13.00" fill="#2d3436">[VM] </text>
<text text-anchor="middle" x="744.5" y="-58.6" font-family="Sans-Serif" font-size="13.00" fill="#2d3436"> password.heuzef.com </text>
<text text-anchor="middle" x="744.5" y="-44.6" font-family="Sans-Serif" font-size="13.00" fill="#2d3436"> 192.168.100.102</text>
</g>
<!-- 82eae988e0274930ba63622770312b1b&#45;&gt;a709504ff0c64f649669ff9719de12a4 -->
<g id="edge29" class="edge">
<title>82eae988e0274930ba63622770312b1b&#45;&gt;a709504ff0c64f649669ff9719de12a4</title>
<path fill="none" stroke="#7b8894" d="M1916.89,-428C1686.09,-428 744.5,-428 744.5,-428 744.5,-428 744.5,-319.62 744.5,-235.37"/>
</g>
<!-- a926207ae2cc4e6586f49f163d10f984 -->
<g id="node30" class="node">
<title>a926207ae2cc4e6586f49f163d10f984</title>
<image xlink:href="icons/lstu.png" width="101px" height="83.83px" preserveAspectRatio="xMinYMin meet" x="838" y="-179.915"/>
<text text-anchor="middle" x="888.5" y="-72.6" font-family="Sans-Serif" font-size="13.00" fill="#2d3436">[VM] </text>
<text text-anchor="middle" x="888.5" y="-58.6" font-family="Sans-Serif" font-size="13.00" fill="#2d3436"> heuzef.link </text>
<text text-anchor="middle" x="888.5" y="-44.6" font-family="Sans-Serif" font-size="13.00" fill="#2d3436"> 192.168.100.103</text>
</g>
<!-- 82eae988e0274930ba63622770312b1b&#45;&gt;a926207ae2cc4e6586f49f163d10f984 -->
<g id="edge30" class="edge">
<title>82eae988e0274930ba63622770312b1b&#45;&gt;a926207ae2cc4e6586f49f163d10f984</title>
<path fill="none" stroke="#7b8894" d="M1916.9,-414C1703.58,-414 888.5,-414 888.5,-414 888.5,-414 888.5,-314.77 888.5,-235.31"/>
</g>
<!-- 9851aed272f64dc4b726187d1c396f34 -->
<g id="node31" class="node">
<title>9851aed272f64dc4b726187d1c396f34</title>
<image xlink:href="icons/gitea.png" width="101px" height="101px" preserveAspectRatio="xMinYMin meet" x="982" y="-188.5"/>
<text text-anchor="middle" x="1032.5" y="-72.6" font-family="Sans-Serif" font-size="13.00" fill="#2d3436">[VM] </text>
<text text-anchor="middle" x="1032.5" y="-58.6" font-family="Sans-Serif" font-size="13.00" fill="#2d3436"> git.heuzef.com </text>
<text text-anchor="middle" x="1032.5" y="-44.6" font-family="Sans-Serif" font-size="13.00" fill="#2d3436"> 192.168.100.104</text>
</g>
<!-- 82eae988e0274930ba63622770312b1b&#45;&gt;9851aed272f64dc4b726187d1c396f34 -->
<g id="edge31" class="edge">
<title>82eae988e0274930ba63622770312b1b&#45;&gt;9851aed272f64dc4b726187d1c396f34</title>
<path fill="none" stroke="#7b8894" d="M1916.9,-400C1722.24,-400 1032.5,-400 1032.5,-400 1032.5,-400 1032.5,-309.75 1032.5,-235.19"/>
</g>
<!-- 68b08f35254b48189d2d0bc3e92589b1 -->
<g id="node32" class="node">
<title>68b08f35254b48189d2d0bc3e92589b1</title>
<image xlink:href="icons/web.png" width="101px" height="101px" preserveAspectRatio="xMinYMin meet" x="1126" y="-188.5"/>
<text text-anchor="middle" x="1176.5" y="-72.6" font-family="Sans-Serif" font-size="13.00" fill="#2d3436">[VM] </text>
<text text-anchor="middle" x="1176.5" y="-58.6" font-family="Sans-Serif" font-size="13.00" fill="#2d3436"> www.heuzef.com </text>
<text text-anchor="middle" x="1176.5" y="-44.6" font-family="Sans-Serif" font-size="13.00" fill="#2d3436"> 192.168.100.105</text>
</g>
<!-- 82eae988e0274930ba63622770312b1b&#45;&gt;68b08f35254b48189d2d0bc3e92589b1 -->
<g id="edge32" class="edge">
<title>82eae988e0274930ba63622770312b1b&#45;&gt;68b08f35254b48189d2d0bc3e92589b1</title>
<path fill="none" stroke="#7b8894" d="M1916.82,-387C1742.23,-387 1176.5,-387 1176.5,-387 1176.5,-387 1176.5,-305.18 1176.5,-235.34"/>
</g>
<!-- e6bf7ca1ccd34b41964ecd1844fb3999 -->
<g id="node33" class="node">
<title>e6bf7ca1ccd34b41964ecd1844fb3999</title>
<image xlink:href="icons/status-stopped.png" width="101px" height="101px" preserveAspectRatio="xMinYMin meet" x="1270" y="-188.5"/>
<text text-anchor="middle" x="1320.5" y="-72.6" font-family="Sans-Serif" font-size="13.00" fill="#2d3436">[VM STOPPED] </text>
<text text-anchor="middle" x="1320.5" y="-58.6" font-family="Sans-Serif" font-size="13.00" fill="#2d3436"> track.heuzef.com </text>
<text text-anchor="middle" x="1320.5" y="-44.6" font-family="Sans-Serif" font-size="13.00" fill="#2d3436"> 192.168.100.106</text>
</g>
<!-- 82eae988e0274930ba63622770312b1b&#45;&gt;e6bf7ca1ccd34b41964ecd1844fb3999 -->
<g id="edge34" class="edge">
<title>82eae988e0274930ba63622770312b1b&#45;&gt;e6bf7ca1ccd34b41964ecd1844fb3999</title>
<path fill="none" stroke="#7b8894" d="M1916.73,-373C1764.21,-373 1320.5,-373 1320.5,-373 1320.5,-373 1320.5,-299.93 1320.5,-235.28"/>
</g>
<!-- d0c03cf56cd94af08094d55736be5d77 -->
<g id="node34" class="node">
<title>d0c03cf56cd94af08094d55736be5d77</title>
<image xlink:href="icons/matrix.png" width="101px" height="101px" preserveAspectRatio="xMinYMin meet" x="1414" y="-188.5"/>
<text text-anchor="middle" x="1464.5" y="-72.6" font-family="Sans-Serif" font-size="13.00" fill="#2d3436">[VM] </text>
<text text-anchor="middle" x="1464.5" y="-58.6" font-family="Sans-Serif" font-size="13.00" fill="#2d3436"> matrix.heuzef.com </text>
<text text-anchor="middle" x="1464.5" y="-44.6" font-family="Sans-Serif" font-size="13.00" fill="#2d3436"> 192.168.100.107</text>
</g>
<!-- 82eae988e0274930ba63622770312b1b&#45;&gt;d0c03cf56cd94af08094d55736be5d77 -->
<g id="edge35" class="edge">
<title>82eae988e0274930ba63622770312b1b&#45;&gt;d0c03cf56cd94af08094d55736be5d77</title>
<path fill="none" stroke="#7b8894" d="M1916.97,-359C1789.41,-359 1464.5,-359 1464.5,-359 1464.5,-359 1464.5,-294.55 1464.5,-235.26"/>
</g>
<!-- c1669489de87463c86f85b531053ca29 -->
<g id="node35" class="node">
<title>c1669489de87463c86f85b531053ca29</title>
<image xlink:href="icons/bitwarden.png" width="101px" height="101px" preserveAspectRatio="xMinYMin meet" x="1558" y="-188.5"/>
<text text-anchor="middle" x="1608.5" y="-72.6" font-family="Sans-Serif" font-size="13.00" fill="#2d3436">[VM] </text>
<text text-anchor="middle" x="1608.5" y="-58.6" font-family="Sans-Serif" font-size="13.00" fill="#2d3436"> coffre.heuzef.com </text>
<text text-anchor="middle" x="1608.5" y="-44.6" font-family="Sans-Serif" font-size="13.00" fill="#2d3436"> 192.168.100.108</text>
</g>
<!-- 82eae988e0274930ba63622770312b1b&#45;&gt;c1669489de87463c86f85b531053ca29 -->
<g id="edge36" class="edge">
<title>82eae988e0274930ba63622770312b1b&#45;&gt;c1669489de87463c86f85b531053ca29</title>
<path fill="none" stroke="#7b8894" d="M1916.68,-345C1819.75,-345 1618,-345 1618,-345 1618,-345 1618,-288.92 1618,-235.14"/>
</g>
<!-- 82eae988e0274930ba63622770312b1b&#45;&gt;19e9d90b444546aa975bcc82d4f2ae08 -->
<g id="edge33" class="edge">
<title>82eae988e0274930ba63622770312b1b&#45;&gt;19e9d90b444546aa975bcc82d4f2ae08</title>
<path fill="none" stroke="#7b8894" d="M2018.19,-428C2249.37,-428 3192.5,-428 3192.5,-428 3192.5,-428 3192.5,-319.62 3192.5,-235.37"/>
</g>
<!-- 18b7bba4d9d442aab5a5587afd374ae8 -->
<g id="node37" class="node">
<title>18b7bba4d9d442aab5a5587afd374ae8</title>
<image xlink:href="icons/server.png" width="101px" height="101px" preserveAspectRatio="xMinYMin meet" x="1702" y="-188.5"/>
<text text-anchor="middle" x="1752.5" y="-72.6" font-family="Sans-Serif" font-size="13.00" fill="#2d3436">[VM] </text>
<text text-anchor="middle" x="1752.5" y="-58.6" font-family="Sans-Serif" font-size="13.00" fill="#2d3436"> kaladrius.fr </text>
<text text-anchor="middle" x="1752.5" y="-44.6" font-family="Sans-Serif" font-size="13.00" fill="#2d3436"> 192.168.100.150</text>
</g>
<!-- 82eae988e0274930ba63622770312b1b&#45;&gt;18b7bba4d9d442aab5a5587afd374ae8 -->
<g id="edge37" class="edge">
<title>82eae988e0274930ba63622770312b1b&#45;&gt;18b7bba4d9d442aab5a5587afd374ae8</title>
<path fill="none" stroke="#7b8894" d="M1916.97,-332C1856.12,-332 1762,-332 1762,-332 1762,-332 1762,-283.69 1762,-235.28"/>
</g>
<!-- b975600008e040b88d3f214fe17e41eb -->
<g id="node38" class="node">
<title>b975600008e040b88d3f214fe17e41eb</title>
<image xlink:href="icons/ftb.png" width="101px" height="62.1335px" preserveAspectRatio="xMinYMin meet" x="1846" y="-169.067"/>
<text text-anchor="middle" x="1896.5" y="-72.6" font-family="Sans-Serif" font-size="13.00" fill="#2d3436">[VM] </text>
<text text-anchor="middle" x="1896.5" y="-58.6" font-family="Sans-Serif" font-size="13.00" fill="#2d3436"> ftb.heuzef.com </text>
<text text-anchor="middle" x="1896.5" y="-44.6" font-family="Sans-Serif" font-size="13.00" fill="#2d3436"> 192.168.100.151</text>
</g>
<!-- 82eae988e0274930ba63622770312b1b&#45;&gt;b975600008e040b88d3f214fe17e41eb -->
<g id="edge38" class="edge">
<title>82eae988e0274930ba63622770312b1b&#45;&gt;b975600008e040b88d3f214fe17e41eb</title>
<path fill="none" stroke="#7b8894" d="M1932,-318.3C1932,-292.68 1932,-263.08 1932,-235.36"/>
</g>
<!-- 61de65e2c9304d29ba90857e93ecd8e2 -->
<g id="node39" class="node">
<title>61de65e2c9304d29ba90857e93ecd8e2</title>
<image xlink:href="icons/web.png" width="101px" height="101px" preserveAspectRatio="xMinYMin meet" x="1990" y="-188.5"/>
<text text-anchor="middle" x="2040.5" y="-72.6" font-family="Sans-Serif" font-size="13.00" fill="#2d3436">[VM] </text>
<text text-anchor="middle" x="2040.5" y="-58.6" font-family="Sans-Serif" font-size="13.00" fill="#2d3436"> lemurier.immo </text>
<text text-anchor="middle" x="2040.5" y="-44.6" font-family="Sans-Serif" font-size="13.00" fill="#2d3436"> 192.168.100.152</text>
</g>
<!-- 82eae988e0274930ba63622770312b1b&#45;&gt;61de65e2c9304d29ba90857e93ecd8e2 -->
<g id="edge39" class="edge">
<title>82eae988e0274930ba63622770312b1b&#45;&gt;61de65e2c9304d29ba90857e93ecd8e2</title>
<path fill="none" stroke="#7b8894" d="M2004,-318.3C2004,-292.68 2004,-263.08 2004,-235.36"/>
</g>
<!-- 8f6ce99f893e4c74949d8fab1c070f6d -->
<g id="node40" class="node">
<title>8f6ce99f893e4c74949d8fab1c070f6d</title>
<image xlink:href="icons/status-stopped.png" width="101px" height="101px" preserveAspectRatio="xMinYMin meet" x="2134" y="-188.5"/>
<text text-anchor="middle" x="2184.5" y="-72.6" font-family="Sans-Serif" font-size="13.00" fill="#2d3436">[VM STOPPED] </text>
<text text-anchor="middle" x="2184.5" y="-58.6" font-family="Sans-Serif" font-size="13.00" fill="#2d3436"> elvon.party </text>
<text text-anchor="middle" x="2184.5" y="-44.6" font-family="Sans-Serif" font-size="13.00" fill="#2d3436"> 192.168.100.153</text>
</g>
<!-- 82eae988e0274930ba63622770312b1b&#45;&gt;8f6ce99f893e4c74949d8fab1c070f6d -->
<g id="edge40" class="edge">
<title>82eae988e0274930ba63622770312b1b&#45;&gt;8f6ce99f893e4c74949d8fab1c070f6d</title>
<path fill="none" stroke="#7b8894" d="M2018.1,-332C2082.22,-332 2184.5,-332 2184.5,-332 2184.5,-332 2184.5,-283.69 2184.5,-235.28"/>
</g>
<!-- 927a810afc5346e692c3a6abf3cf9810 -->
<g id="node41" class="node">
<title>927a810afc5346e692c3a6abf3cf9810</title>
<image xlink:href="icons/status-stopped.png" width="101px" height="101px" preserveAspectRatio="xMinYMin meet" x="2278" y="-188.5"/>
<text text-anchor="middle" x="2328.5" y="-72.6" font-family="Sans-Serif" font-size="13.00" fill="#2d3436">[VM STOPPED] </text>
<text text-anchor="middle" x="2328.5" y="-58.6" font-family="Sans-Serif" font-size="13.00" fill="#2d3436"> sopsy.fr </text>
<text text-anchor="middle" x="2328.5" y="-44.6" font-family="Sans-Serif" font-size="13.00" fill="#2d3436"> 192.168.100.154</text>
</g>
<!-- 82eae988e0274930ba63622770312b1b&#45;&gt;927a810afc5346e692c3a6abf3cf9810 -->
<g id="edge41" class="edge">
<title>82eae988e0274930ba63622770312b1b&#45;&gt;927a810afc5346e692c3a6abf3cf9810</title>
<path fill="none" stroke="#7b8894" d="M2018.08,-345C2117.43,-345 2328.5,-345 2328.5,-345 2328.5,-345 2328.5,-288.92 2328.5,-235.14"/>
</g>
<!-- 52c50ae1b7dd4d299168ceb6ab03fcb7 -->
<g id="node42" class="node">
<title>52c50ae1b7dd4d299168ceb6ab03fcb7</title>
<image xlink:href="icons/status-stopped.png" width="101px" height="101px" preserveAspectRatio="xMinYMin meet" x="2422" y="-188.5"/>
<text text-anchor="middle" x="2472.5" y="-72.6" font-family="Sans-Serif" font-size="13.00" fill="#2d3436">[VM STOPPED] </text>
<text text-anchor="middle" x="2472.5" y="-58.6" font-family="Sans-Serif" font-size="13.00" fill="#2d3436"> dontstarve </text>
<text text-anchor="middle" x="2472.5" y="-44.6" font-family="Sans-Serif" font-size="13.00" fill="#2d3436"> 192.168.100.155</text>
</g>
<!-- 82eae988e0274930ba63622770312b1b&#45;&gt;52c50ae1b7dd4d299168ceb6ab03fcb7 -->
<g id="edge42" class="edge">
<title>82eae988e0274930ba63622770312b1b&#45;&gt;52c50ae1b7dd4d299168ceb6ab03fcb7</title>
<path fill="none" stroke="#7b8894" d="M2018.23,-359C2146.29,-359 2472.5,-359 2472.5,-359 2472.5,-359 2472.5,-294.55 2472.5,-235.26"/>
</g>
<!-- 52f6e76f507c4eb2b625a4d192fdf794 -->
<g id="node43" class="node">
<title>52f6e76f507c4eb2b625a4d192fdf794</title>
<image xlink:href="icons/status-stopped.png" width="101px" height="101px" preserveAspectRatio="xMinYMin meet" x="2566" y="-188.5"/>
<text text-anchor="middle" x="2616.5" y="-72.6" font-family="Sans-Serif" font-size="13.00" fill="#2d3436">[VM STOPPED] </text>
<text text-anchor="middle" x="2616.5" y="-58.6" font-family="Sans-Serif" font-size="13.00" fill="#2d3436"> zomboid </text>
<text text-anchor="middle" x="2616.5" y="-44.6" font-family="Sans-Serif" font-size="13.00" fill="#2d3436"> 192.168.100.156</text>
</g>
<!-- 82eae988e0274930ba63622770312b1b&#45;&gt;52f6e76f507c4eb2b625a4d192fdf794 -->
<g id="edge43" class="edge">
<title>82eae988e0274930ba63622770312b1b&#45;&gt;52f6e76f507c4eb2b625a4d192fdf794</title>
<path fill="none" stroke="#7b8894" d="M2018.06,-373C2164.57,-373 2579,-373 2579,-373 2579,-373 2579,-299.93 2579,-235.28"/>
</g>
<!-- 3a957e01e87f4394b80ea35190f5f05e -->
<g id="node44" class="node">
<title>3a957e01e87f4394b80ea35190f5f05e</title>
<image xlink:href="icons/web.png" width="101px" height="101px" preserveAspectRatio="xMinYMin meet" x="2710" y="-188.5"/>
<text text-anchor="middle" x="2760.5" y="-72.6" font-family="Sans-Serif" font-size="13.00" fill="#2d3436">[VM] </text>
<text text-anchor="middle" x="2760.5" y="-58.6" font-family="Sans-Serif" font-size="13.00" fill="#2d3436"> couvreur&#45;cognac.fr </text>
<text text-anchor="middle" x="2760.5" y="-44.6" font-family="Sans-Serif" font-size="13.00" fill="#2d3436"> 192.168.100.157</text>
</g>
<!-- 82eae988e0274930ba63622770312b1b&#45;&gt;3a957e01e87f4394b80ea35190f5f05e -->
<g id="edge44" class="edge">
<title>82eae988e0274930ba63622770312b1b&#45;&gt;3a957e01e87f4394b80ea35190f5f05e</title>
<path fill="none" stroke="#7b8894" d="M2018.01,-387C2192.68,-387 2760.5,-387 2760.5,-387 2760.5,-387 2760.5,-305.18 2760.5,-235.34"/>
</g>
<!-- 4b790899016a4cceb334dd16e37c59aa -->
<g id="node45" class="node">
<title>4b790899016a4cceb334dd16e37c59aa</title>
<image xlink:href="icons/status-stopped.png" width="101px" height="101px" preserveAspectRatio="xMinYMin meet" x="2854" y="-188.5"/>
<text text-anchor="middle" x="2904.5" y="-72.6" font-family="Sans-Serif" font-size="13.00" fill="#2d3436">[VM STOPPED] </text>
<text text-anchor="middle" x="2904.5" y="-58.6" font-family="Sans-Serif" font-size="13.00" fill="#2d3436"> linux&#45;cognac.fr </text>
<text text-anchor="middle" x="2904.5" y="-44.6" font-family="Sans-Serif" font-size="13.00" fill="#2d3436"> 192.168.100.158</text>
</g>
<!-- 82eae988e0274930ba63622770312b1b&#45;&gt;4b790899016a4cceb334dd16e37c59aa -->
<g id="edge45" class="edge">
<title>82eae988e0274930ba63622770312b1b&#45;&gt;4b790899016a4cceb334dd16e37c59aa</title>
<path fill="none" stroke="#7b8894" d="M2018.21,-400C2213.29,-400 2904.5,-400 2904.5,-400 2904.5,-400 2904.5,-309.75 2904.5,-235.19"/>
</g>
<!-- 9a069b77272a481e9872841063add0f4 -->
<g id="node46" class="node">
<title>9a069b77272a481e9872841063add0f4</title>
<text text-anchor="middle" x="3048.5" y="-72.6" font-family="Sans-Serif" font-size="13.00" fill="#2d3436">[VM] </text>
<text text-anchor="middle" x="3048.5" y="-58.6" font-family="Sans-Serif" font-size="13.00" fill="#2d3436"> cognhacker.net </text>
<text text-anchor="middle" x="3048.5" y="-44.6" font-family="Sans-Serif" font-size="13.00" fill="#2d3436"> 192.168.100.159</text>
</g>
<!-- 82eae988e0274930ba63622770312b1b&#45;&gt;9a069b77272a481e9872841063add0f4 -->
<g id="edge46" class="edge">
<title>82eae988e0274930ba63622770312b1b&#45;&gt;9a069b77272a481e9872841063add0f4</title>
<path fill="none" stroke="#7b8894" d="M2018.19,-414C2231.91,-414 3048.5,-414 3048.5,-414 3048.5,-414 3048.5,-314.77 3048.5,-235.31"/>
</g>
<!-- 9d1b6952daf94356b18c71f50c7a4063 -->
<g id="node47" class="node">
<title>9d1b6952daf94356b18c71f50c7a4063</title>
<image xlink:href="icons/cpu.png" width="101px" height="101px" preserveAspectRatio="xMinYMin meet" x="1721" y="-1404"/>
<text text-anchor="middle" x="1771.5" y="-1288.1" font-family="Sans-Serif" font-size="13.00" fill="#2d3436">brix.heuzef.com </text>
<text text-anchor="middle" x="1771.5" y="-1274.1" font-family="Sans-Serif" font-size="13.00" fill="#2d3436"> 192.168.10.102</text>
</g>
<!-- 248fec80cf6a4c80b106c108256e82ba -->
<g id="node48" class="node">
<title>248fec80cf6a4c80b106c108256e82ba</title>
<image xlink:href="icons/switch.png" width="101px" height="101px" preserveAspectRatio="xMinYMin meet" x="1577" y="-1404"/>
<text text-anchor="middle" x="1627.5" y="-1288.6" font-family="Sans-Serif" font-size="13.00" fill="#2d3436">Mini&#45;switch</text>
</g>
</g>
</svg>
