<?xml version="1.0" encoding="UTF-8" standalone="no"?>
<!DOCTYPE svg PUBLIC "-//W3C//DTD SVG 1.1//EN"
 "http://www.w3.org/Graphics/SVG/1.1/DTD/svg11.dtd">
<!-- Generated by graphviz version 2.44.0 (0)
 -->
<!-- Title: Carte reseau de Heuzef &#45; 23/09/2024 21:03 Pages: 1 -->
<svg width="2734pt" height="1254pt"
 viewBox="0.00 0.00 2734.00 1254.00" xmlns="http://www.w3.org/2000/svg" xmlns:xlink="http://www.w3.org/1999/xlink">
<g id="graph0" class="graph" transform="scale(1 1) rotate(0) translate(144 1110)">
<title>Carte reseau de Heuzef &#45; 23/09/2024 21:03</title>
<polygon fill="white" stroke="transparent" points="-144,144 -144,-1110 2590,-1110 2590,144 -144,144"/>
<text text-anchor="middle" x="1223" y="-9" font-family="Sans-Serif" font-size="15.00" fill="#2d3436">Carte reseau de Heuzef &#45; 23/09/2024 21:03</text>
<g id="clust1" class="cluster">
<title>cluster_LAN</title>
<path fill="#e5f5fd" stroke="#aeb6be" d="M20,-33C20,-33 2426,-33 2426,-33 2432,-33 2438,-39 2438,-45 2438,-45 2438,-768 2438,-768 2438,-774 2432,-780 2426,-780 2426,-780 20,-780 20,-780 14,-780 8,-774 8,-768 8,-768 8,-45 8,-45 8,-39 14,-33 20,-33"/>
<text text-anchor="middle" x="28.5" y="-766.4" font-family="Sans-Serif" font-size="12.00" fill="#2d3436">LAN</text>
</g>
<g id="clust2" class="cluster">
<title>cluster_REVERSE&#45;PROXY</title>
<path fill="#ebf3e7" stroke="#aeb6be" d="M740,-41C740,-41 2418,-41 2418,-41 2424,-41 2430,-47 2430,-53 2430,-53 2430,-509 2430,-509 2430,-515 2424,-521 2418,-521 2418,-521 740,-521 740,-521 734,-521 728,-515 728,-509 728,-509 728,-53 728,-53 728,-47 734,-41 740,-41"/>
<text text-anchor="middle" x="786" y="-507.4" font-family="Sans-Serif" font-size="12.00" fill="#2d3436">REVERSE&#45;PROXY</text>
</g>
<!-- 9db3a45edaf6455388284f425fe449d1 -->
<g id="node1" class="node">
<title>9db3a45edaf6455388284f425fe449d1</title>
<image xlink:href="icons/internet.png" width="101px" height="101px" preserveAspectRatio="xMinYMin meet" x="376.5" y="-948"/>
<text text-anchor="middle" x="427" y="-832.6" font-family="Sans-Serif" font-size="13.00" fill="#2d3436">Internet</text>
</g>
<!-- e24dcb49ad1345918adafe44cd9ad057 -->
<g id="node3" class="node">
<title>e24dcb49ad1345918adafe44cd9ad057</title>
<image xlink:href="icons/router.png" width="101px" height="101px" preserveAspectRatio="xMinYMin meet" x="376.5" y="-704.5"/>
<text text-anchor="middle" x="427" y="-588.6" font-family="Sans-Serif" font-size="13.00" fill="#2d3436">Routeur Free </text>
<text text-anchor="middle" x="427" y="-574.6" font-family="Sans-Serif" font-size="13.00" fill="#2d3436"> 192.168.0.1</text>
</g>
<!-- 9db3a45edaf6455388284f425fe449d1&#45;&gt;e24dcb49ad1345918adafe44cd9ad057 -->
<g id="edge13" class="edge">
<title>9db3a45edaf6455388284f425fe449d1&#45;&gt;e24dcb49ad1345918adafe44cd9ad057</title>
<path fill="none" stroke="red" stroke-width="2" d="M427,-828.7C427,-828.7 427,-747.33 427,-747.33"/>
<polygon fill="red" stroke="red" stroke-width="2" points="430.5,-747.33 427,-737.33 423.5,-747.33 430.5,-747.33"/>
<text text-anchor="middle" x="444" y="-791.6" font-family="Sans-Serif" font-size="13.00" fill="#2d3436">FTTH</text>
</g>
<!-- 2261a7c20fa74e5b8ed45791cade4b47 -->
<g id="node2" class="node">
<title>2261a7c20fa74e5b8ed45791cade4b47</title>
<image xlink:href="icons/hetzner.png" width="101px" height="12.4691px" preserveAspectRatio="xMinYMin meet" x="1422.5" y="-903.735"/>
<text text-anchor="middle" x="1473" y="-832.6" font-family="Sans-Serif" font-size="13.00" fill="#2d3436">Sauvegardes</text>
</g>
<!-- 93d425cdfeb840528122779208a115a1 -->
<g id="node13" class="node">
<title>93d425cdfeb840528122779208a115a1</title>
<image xlink:href="icons/borg.png" width="101px" height="101px" preserveAspectRatio="xMinYMin meet" x="1422.5" y="-704.5"/>
<text text-anchor="middle" x="1473" y="-588.6" font-family="Sans-Serif" font-size="13.00" fill="#2d3436">[VM] </text>
<text text-anchor="middle" x="1473" y="-574.6" font-family="Sans-Serif" font-size="13.00" fill="#2d3436"> backup </text>
<text text-anchor="middle" x="1473" y="-560.6" font-family="Sans-Serif" font-size="13.00" fill="#2d3436"> 192.168.0.102</text>
</g>
<!-- 2261a7c20fa74e5b8ed45791cade4b47&#45;&gt;93d425cdfeb840528122779208a115a1 -->
<g id="edge15" class="edge">
<title>2261a7c20fa74e5b8ed45791cade4b47&#45;&gt;93d425cdfeb840528122779208a115a1</title>
<path fill="none" stroke="green" stroke-width="2" d="M1473,-818.7C1473,-818.7 1473,-761.25 1473,-761.25"/>
<polygon fill="green" stroke="green" stroke-width="2" points="1476.5,-761.25 1473,-751.25 1469.5,-761.25 1476.5,-761.25"/>
<polygon fill="green" stroke="green" stroke-width="2" points="1469.5,-818.7 1473,-828.7 1476.5,-818.7 1469.5,-818.7"/>
<text text-anchor="middle" x="1490" y="-791.6" font-family="Sans-Serif" font-size="13.00" fill="#2d3436">FTTH</text>
</g>
<!-- df3adc3fa0c64933895408343283f00e -->
<g id="node6" class="node">
<title>df3adc3fa0c64933895408343283f00e</title>
<image xlink:href="icons/controls.png" width="101px" height="101px" preserveAspectRatio="xMinYMin meet" x="88.5" y="-445.5"/>
<text text-anchor="middle" x="139" y="-329.6" font-family="Sans-Serif" font-size="13.00" fill="#2d3436">BMC </text>
<text text-anchor="middle" x="139" y="-315.6" font-family="Sans-Serif" font-size="13.00" fill="#2d3436"> 192.168.0.2</text>
</g>
<!-- e24dcb49ad1345918adafe44cd9ad057&#45;&gt;df3adc3fa0c64933895408343283f00e -->
<g id="edge17" class="edge">
<title>e24dcb49ad1345918adafe44cd9ad057&#45;&gt;df3adc3fa0c64933895408343283f00e</title>
<path fill="none" stroke="red" stroke-width="2" d="M366.17,-681C366.17,-681 139,-681 139,-681 139,-681 139,-562.55 139,-478.11"/>
<polygon fill="red" stroke="red" stroke-width="2" points="366.17,-684.5 376.17,-681 366.17,-677.5 366.17,-684.5"/>
</g>
<!-- 50cd94f481cf4ccdb6fe2f6a49e6f457 -->
<g id="node7" class="node">
<title>50cd94f481cf4ccdb6fe2f6a49e6f457</title>
<image xlink:href="icons/server.png" width="101px" height="101px" preserveAspectRatio="xMinYMin meet" x="232.5" y="-445.5"/>
<text text-anchor="middle" x="283" y="-329.6" font-family="Sans-Serif" font-size="13.00" fill="#2d3436">PVE </text>
<text text-anchor="middle" x="283" y="-315.6" font-family="Sans-Serif" font-size="13.00" fill="#2d3436"> 192.168.0.100</text>
</g>
<!-- e24dcb49ad1345918adafe44cd9ad057&#45;&gt;50cd94f481cf4ccdb6fe2f6a49e6f457 -->
<g id="edge18" class="edge">
<title>e24dcb49ad1345918adafe44cd9ad057&#45;&gt;50cd94f481cf4ccdb6fe2f6a49e6f457</title>
<path fill="none" stroke="red" stroke-width="2" d="M366.23,-626C366.23,-626 283,-626 283,-626 283,-626 283,-544.3 283,-478.07"/>
<polygon fill="red" stroke="red" stroke-width="2" points="366.23,-629.5 376.23,-626 366.23,-622.5 366.23,-629.5"/>
</g>
<!-- b68a5634a7204734bf3fef2cfa1ddf5a -->
<g id="node8" class="node">
<title>b68a5634a7204734bf3fef2cfa1ddf5a</title>
<image xlink:href="icons/wifi.png" width="101px" height="101px" preserveAspectRatio="xMinYMin meet" x="376.5" y="-445.5"/>
<text text-anchor="middle" x="427" y="-329.6" font-family="Sans-Serif" font-size="13.00" fill="#2d3436">Wi&#45;Fi </text>
<text text-anchor="middle" x="427" y="-315.6" font-family="Sans-Serif" font-size="13.00" fill="#2d3436"> 192.168.0.200/24</text>
</g>
<!-- e24dcb49ad1345918adafe44cd9ad057&#45;&gt;b68a5634a7204734bf3fef2cfa1ddf5a -->
<g id="edge16" class="edge">
<title>e24dcb49ad1345918adafe44cd9ad057&#45;&gt;b68a5634a7204734bf3fef2cfa1ddf5a</title>
<path fill="none" stroke="red" stroke-width="2" d="M410.17,-560.98C410.17,-560.98 410.17,-478.44 410.17,-478.44"/>
<polygon fill="red" stroke="red" stroke-width="2" points="406.67,-560.98 410.17,-570.98 413.67,-560.98 406.67,-560.98"/>
</g>
<!-- 869f63fca1a84f028892ff1a4fd1cf9c -->
<g id="node12" class="node">
<title>869f63fca1a84f028892ff1a4fd1cf9c</title>
<image xlink:href="icons/switch.png" width="101px" height="101px" preserveAspectRatio="xMinYMin meet" x="520.5" y="-445.5"/>
<text text-anchor="middle" x="571" y="-329.6" font-family="Sans-Serif" font-size="13.00" fill="#2d3436">Switch </text>
<text text-anchor="middle" x="571" y="-315.6" font-family="Sans-Serif" font-size="13.00" fill="#2d3436"> 192.168.0.239</text>
</g>
<!-- e24dcb49ad1345918adafe44cd9ad057&#45;&gt;869f63fca1a84f028892ff1a4fd1cf9c -->
<g id="edge19" class="edge">
<title>e24dcb49ad1345918adafe44cd9ad057&#45;&gt;869f63fca1a84f028892ff1a4fd1cf9c</title>
<path fill="none" stroke="red" stroke-width="2" d="M487.77,-654C487.77,-654 571,-654 571,-654 571,-654 571,-553.77 571,-478.02"/>
<polygon fill="red" stroke="red" stroke-width="2" points="487.77,-650.5 477.77,-654 487.77,-657.5 487.77,-650.5"/>
</g>
<!-- 1fc3561cf843471aa31d7f82af4a91f2 -->
<g id="node14" class="node">
<title>1fc3561cf843471aa31d7f82af4a91f2</title>
<image xlink:href="icons/caddy.png" width="101px" height="97.0547px" preserveAspectRatio="xMinYMin meet" x="1456.5" y="-443.527"/>
<text text-anchor="middle" x="1507" y="-329.6" font-family="Sans-Serif" font-size="13.00" fill="#2d3436">[VM] </text>
<text text-anchor="middle" x="1507" y="-315.6" font-family="Sans-Serif" font-size="13.00" fill="#2d3436"> CADDY </text>
<text text-anchor="middle" x="1507" y="-301.6" font-family="Sans-Serif" font-size="13.00" fill="#2d3436"> 192.168.0.101</text>
</g>
<!-- e24dcb49ad1345918adafe44cd9ad057&#45;&gt;1fc3561cf843471aa31d7f82af4a91f2 -->
<g id="edge14" class="edge">
<title>e24dcb49ad1345918adafe44cd9ad057&#45;&gt;1fc3561cf843471aa31d7f82af4a91f2</title>
<path fill="none" stroke="blue" stroke-width="2" d="M443.83,-570.99C443.83,-528.25 443.83,-485 443.83,-485 443.83,-485 1446.44,-485 1446.44,-485"/>
<polygon fill="blue" stroke="blue" stroke-width="2" points="1446.44,-488.5 1456.44,-485 1446.44,-481.5 1446.44,-488.5"/>
</g>
<!-- ca5a8235550b4462b5c2bce63802095b -->
<g id="node4" class="node">
<title>ca5a8235550b4462b5c2bce63802095b</title>
<image xlink:href="icons/devices.png" width="101px" height="101px" preserveAspectRatio="xMinYMin meet" x="16.5" y="-196.5"/>
<text text-anchor="middle" x="67" y="-80.6" font-family="Sans-Serif" font-size="13.00" fill="#2d3436">Peripheriques </text>
<text text-anchor="middle" x="67" y="-66.6" font-family="Sans-Serif" font-size="13.00" fill="#2d3436"> Range DHCP</text>
</g>
<!-- 78124c724eef45c7bc81b9b1518f34d0 -->
<g id="node5" class="node">
<title>78124c724eef45c7bc81b9b1518f34d0</title>
<image xlink:href="icons/computer.png" width="101px" height="101px" preserveAspectRatio="xMinYMin meet" x="160.5" y="-196.5"/>
<text text-anchor="middle" x="211" y="-80.6" font-family="Sans-Serif" font-size="13.00" fill="#2d3436">PGMR </text>
<text text-anchor="middle" x="211" y="-66.6" font-family="Sans-Serif" font-size="13.00" fill="#2d3436"> 192.168.0.X</text>
</g>
<!-- b68a5634a7204734bf3fef2cfa1ddf5a&#45;&gt;ca5a8235550b4462b5c2bce63802095b -->
<g id="edge20" class="edge">
<title>b68a5634a7204734bf3fef2cfa1ddf5a&#45;&gt;ca5a8235550b4462b5c2bce63802095b</title>
<path fill="none" stroke="purple" stroke-dasharray="1,5" d="M383.75,-305.68C383.75,-305.68 383.75,-305 383.75,-305 383.75,-305 103,-305 103,-305 103,-305 103,-267.7 103,-229.23"/>
<polygon fill="purple" stroke="purple" points="380.25,-301.76 383.75,-311.76 387.25,-301.76 380.25,-301.76"/>
</g>
<!-- b68a5634a7204734bf3fef2cfa1ddf5a&#45;&gt;78124c724eef45c7bc81b9b1518f34d0 -->
<g id="edge24" class="edge">
<title>b68a5634a7204734bf3fef2cfa1ddf5a&#45;&gt;78124c724eef45c7bc81b9b1518f34d0</title>
<path fill="none" stroke="purple" stroke-dasharray="1,5" d="M391,-302.08C391,-302.08 391,-301 391,-301 391,-301 247,-301 247,-301 247,-301 247,-266.09 247,-229.4"/>
<polygon fill="purple" stroke="purple" points="387.5,-301.78 391,-311.78 394.5,-301.78 387.5,-301.78"/>
</g>
<!-- b0ae043805214fcbaa30fc999ae044c4 -->
<g id="node9" class="node">
<title>b0ae043805214fcbaa30fc999ae044c4</title>
<image xlink:href="icons/print.png" width="101px" height="101px" preserveAspectRatio="xMinYMin meet" x="304.5" y="-196.5"/>
<text text-anchor="middle" x="355" y="-80.6" font-family="Sans-Serif" font-size="13.00" fill="#2d3436">Imprimante </text>
<text text-anchor="middle" x="355" y="-66.6" font-family="Sans-Serif" font-size="13.00" fill="#2d3436"> 192.168.0.201 </text>
<text text-anchor="middle" x="355" y="-52.6" font-family="Sans-Serif" font-size="13.00" fill="#2d3436"> </text>
</g>
<!-- b68a5634a7204734bf3fef2cfa1ddf5a&#45;&gt;b0ae043805214fcbaa30fc999ae044c4 -->
<g id="edge21" class="edge">
<title>b68a5634a7204734bf3fef2cfa1ddf5a&#45;&gt;b0ae043805214fcbaa30fc999ae044c4</title>
<path fill="none" stroke="purple" stroke-dasharray="1,5" d="M398.25,-301.74C398.25,-301.74 398.25,-243.41 398.25,-243.41"/>
<polygon fill="purple" stroke="purple" points="394.75,-301.74 398.25,-311.74 401.75,-301.74 394.75,-301.74"/>
</g>
<!-- 547d7b3a44384ba3b5cd64854ca9240d -->
<g id="node10" class="node">
<title>547d7b3a44384ba3b5cd64854ca9240d</title>
<image xlink:href="icons/cpu.png" width="101px" height="101px" preserveAspectRatio="xMinYMin meet" x="448.5" y="-196.5"/>
<text text-anchor="middle" x="499" y="-80.6" font-family="Sans-Serif" font-size="13.00" fill="#2d3436">Brix </text>
<text text-anchor="middle" x="499" y="-66.6" font-family="Sans-Serif" font-size="13.00" fill="#2d3436"> 192.168.0.202</text>
</g>
<!-- b68a5634a7204734bf3fef2cfa1ddf5a&#45;&gt;547d7b3a44384ba3b5cd64854ca9240d -->
<g id="edge22" class="edge">
<title>b68a5634a7204734bf3fef2cfa1ddf5a&#45;&gt;547d7b3a44384ba3b5cd64854ca9240d</title>
<path fill="none" stroke="purple" stroke-dasharray="1,5" d="M467.83,-301.74C467.83,-301.74 467.83,-229.18 467.83,-229.18"/>
<polygon fill="purple" stroke="purple" points="464.33,-301.74 467.83,-311.74 471.33,-301.74 464.33,-301.74"/>
</g>
<!-- 5ef4393944f844f5bd43c1283f2ec5ab -->
<g id="node11" class="node">
<title>5ef4393944f844f5bd43c1283f2ec5ab</title>
<image xlink:href="icons/clock.png" width="101px" height="101px" preserveAspectRatio="xMinYMin meet" x="592.5" y="-196.5"/>
<text text-anchor="middle" x="643" y="-80.6" font-family="Sans-Serif" font-size="13.00" fill="#2d3436">Aura </text>
<text text-anchor="middle" x="643" y="-66.6" font-family="Sans-Serif" font-size="13.00" fill="#2d3436"> 192.168.0.203</text>
</g>
<!-- b68a5634a7204734bf3fef2cfa1ddf5a&#45;&gt;5ef4393944f844f5bd43c1283f2ec5ab -->
<g id="edge23" class="edge">
<title>b68a5634a7204734bf3fef2cfa1ddf5a&#45;&gt;5ef4393944f844f5bd43c1283f2ec5ab</title>
<path fill="none" stroke="purple" stroke-dasharray="1,5" d="M458.17,-303C458.17,-303 458.17,-302 458.17,-302 458.17,-302 607,-302 607,-302 607,-302 607,-266.28 607,-229.02"/>
<polygon fill="purple" stroke="purple" points="454.67,-301.95 458.17,-311.95 461.67,-301.95 454.67,-301.95"/>
</g>
<!-- 6b272a60ec034c19805271e92c6a4723 -->
<g id="node15" class="node">
<title>6b272a60ec034c19805271e92c6a4723</title>
<image xlink:href="icons/bitwarden.png" width="101px" height="101px" preserveAspectRatio="xMinYMin meet" x="736.5" y="-196.5"/>
<text text-anchor="middle" x="787" y="-80.6" font-family="Sans-Serif" font-size="13.00" fill="#2d3436">[VM] </text>
<text text-anchor="middle" x="787" y="-66.6" font-family="Sans-Serif" font-size="13.00" fill="#2d3436"> vault.heuzef.com </text>
<text text-anchor="middle" x="787" y="-52.6" font-family="Sans-Serif" font-size="13.00" fill="#2d3436"> 192.168.0.103</text>
</g>
<!-- 1fc3561cf843471aa31d7f82af4a91f2&#45;&gt;6b272a60ec034c19805271e92c6a4723 -->
<g id="edge3" class="edge">
<title>1fc3561cf843471aa31d7f82af4a91f2&#45;&gt;6b272a60ec034c19805271e92c6a4723</title>
<path fill="none" stroke="#7b8894" d="M1456.37,-310C1292.48,-310 787,-310 787,-310 787,-310 787,-278.61 787,-243.29"/>
</g>
<!-- 07f8d951d4f54f9ba21af84fb784494d -->
<g id="node16" class="node">
<title>07f8d951d4f54f9ba21af84fb784494d</title>
<image xlink:href="icons/gitea.png" width="101px" height="101px" preserveAspectRatio="xMinYMin meet" x="880.5" y="-196.5"/>
<text text-anchor="middle" x="931" y="-80.6" font-family="Sans-Serif" font-size="13.00" fill="#2d3436">[VM] </text>
<text text-anchor="middle" x="931" y="-66.6" font-family="Sans-Serif" font-size="13.00" fill="#2d3436"> git.heuzef.com </text>
<text text-anchor="middle" x="931" y="-52.6" font-family="Sans-Serif" font-size="13.00" fill="#2d3436"> 192.168.0.104</text>
</g>
<!-- 1fc3561cf843471aa31d7f82af4a91f2&#45;&gt;07f8d951d4f54f9ba21af84fb784494d -->
<g id="edge4" class="edge">
<title>1fc3561cf843471aa31d7f82af4a91f2&#45;&gt;07f8d951d4f54f9ba21af84fb784494d</title>
<path fill="none" stroke="#7b8894" d="M1456.39,-308C1315.83,-308 931,-308 931,-308 931,-308 931,-277.54 931,-243.04"/>
</g>
<!-- b9335b27259846cb8fda126fb0df86fc -->
<g id="node17" class="node">
<title>b9335b27259846cb8fda126fb0df86fc</title>
<image xlink:href="icons/cognhacker.png" width="101px" height="95.5737px" preserveAspectRatio="xMinYMin meet" x="1024.5" y="-193.787"/>
<text text-anchor="middle" x="1075" y="-80.6" font-family="Sans-Serif" font-size="13.00" fill="#2d3436">[VM] </text>
<text text-anchor="middle" x="1075" y="-66.6" font-family="Sans-Serif" font-size="13.00" fill="#2d3436"> cognhacker.net </text>
<text text-anchor="middle" x="1075" y="-52.6" font-family="Sans-Serif" font-size="13.00" fill="#2d3436"> 192.168.0.105</text>
</g>
<!-- 1fc3561cf843471aa31d7f82af4a91f2&#45;&gt;b9335b27259846cb8fda126fb0df86fc -->
<g id="edge5" class="edge">
<title>1fc3561cf843471aa31d7f82af4a91f2&#45;&gt;b9335b27259846cb8fda126fb0df86fc</title>
<path fill="none" stroke="#7b8894" d="M1456.17,-307C1341.98,-307 1075,-307 1075,-307 1075,-307 1075,-277.27 1075,-243.37"/>
</g>
<!-- 475666c11e8345d68de59a01d5b84037 -->
<g id="node18" class="node">
<title>475666c11e8345d68de59a01d5b84037</title>
<image xlink:href="icons/shlink.png" width="101px" height="101px" preserveAspectRatio="xMinYMin meet" x="1168.5" y="-196.5"/>
<text text-anchor="middle" x="1219" y="-80.6" font-family="Sans-Serif" font-size="13.00" fill="#2d3436">[VM] </text>
<text text-anchor="middle" x="1219" y="-66.6" font-family="Sans-Serif" font-size="13.00" fill="#2d3436"> heuzef.link </text>
<text text-anchor="middle" x="1219" y="-52.6" font-family="Sans-Serif" font-size="13.00" fill="#2d3436"> 192.168.0.106</text>
</g>
<!-- 1fc3561cf843471aa31d7f82af4a91f2&#45;&gt;475666c11e8345d68de59a01d5b84037 -->
<g id="edge6" class="edge">
<title>1fc3561cf843471aa31d7f82af4a91f2&#45;&gt;475666c11e8345d68de59a01d5b84037</title>
<path fill="none" stroke="#7b8894" d="M1456.17,-304C1373.5,-304 1219,-304 1219,-304 1219,-304 1219,-275.88 1219,-243.36"/>
</g>
<!-- ece5818b778c49679cf968b13c2d9fb6 -->
<g id="node19" class="node">
<title>ece5818b778c49679cf968b13c2d9fb6</title>
<image xlink:href="icons/files.png" width="101px" height="101px" preserveAspectRatio="xMinYMin meet" x="1312.5" y="-196.5"/>
<text text-anchor="middle" x="1363" y="-80.6" font-family="Sans-Serif" font-size="13.00" fill="#2d3436">[VM] files.heuzef.com </text>
<text text-anchor="middle" x="1363" y="-66.6" font-family="Sans-Serif" font-size="13.00" fill="#2d3436"> 192.168.0.110</text>
</g>
<!-- 1fc3561cf843471aa31d7f82af4a91f2&#45;&gt;ece5818b778c49679cf968b13c2d9fb6 -->
<g id="edge7" class="edge">
<title>1fc3561cf843471aa31d7f82af4a91f2&#45;&gt;ece5818b778c49679cf968b13c2d9fb6</title>
<path fill="none" stroke="#7b8894" d="M1456.23,-299C1414.77,-299 1363,-299 1363,-299 1363,-299 1363,-265.1 1363,-229.22"/>
</g>
<!-- dddc1810b64548e18c8618b007a1ec94 -->
<g id="node20" class="node">
<title>dddc1810b64548e18c8618b007a1ec94</title>
<image xlink:href="icons/web.png" width="101px" height="101px" preserveAspectRatio="xMinYMin meet" x="1456.5" y="-196.5"/>
<text text-anchor="middle" x="1507" y="-80.6" font-family="Sans-Serif" font-size="13.00" fill="#2d3436">[VM] </text>
<text text-anchor="middle" x="1507" y="-66.6" font-family="Sans-Serif" font-size="13.00" fill="#2d3436"> heuzef.com </text>
<text text-anchor="middle" x="1507" y="-52.6" font-family="Sans-Serif" font-size="13.00" fill="#2d3436"> 192.168.0.120</text>
</g>
<!-- 1fc3561cf843471aa31d7f82af4a91f2&#45;&gt;dddc1810b64548e18c8618b007a1ec94 -->
<g id="edge9" class="edge">
<title>1fc3561cf843471aa31d7f82af4a91f2&#45;&gt;dddc1810b64548e18c8618b007a1ec94</title>
<path fill="none" stroke="#7b8894" d="M1507,-297.66C1507,-279.79 1507,-261.14 1507,-243.27"/>
</g>
<!-- 3cb05376e5ed444eae7ddb1ed8407a93 -->
<g id="node21" class="node">
<title>3cb05376e5ed444eae7ddb1ed8407a93</title>
<image xlink:href="icons/media-services.png" width="101px" height="101px" preserveAspectRatio="xMinYMin meet" x="1600.5" y="-196.5"/>
<text text-anchor="middle" x="1651" y="-80.6" font-family="Sans-Serif" font-size="13.00" fill="#2d3436">[VM] media </text>
<text text-anchor="middle" x="1651" y="-66.6" font-family="Sans-Serif" font-size="13.00" fill="#2d3436"> 192.168.0.111</text>
</g>
<!-- 1fc3561cf843471aa31d7f82af4a91f2&#45;&gt;3cb05376e5ed444eae7ddb1ed8407a93 -->
<g id="edge8" class="edge">
<title>1fc3561cf843471aa31d7f82af4a91f2&#45;&gt;3cb05376e5ed444eae7ddb1ed8407a93</title>
<path fill="none" stroke="#7b8894" d="M1557.77,-325C1599.23,-325 1651,-325 1651,-325 1651,-325 1651,-275.96 1651,-229.21"/>
</g>
<!-- 33b0aeef254c4c3db4128f8b4b3254a8 -->
<g id="node22" class="node">
<title>33b0aeef254c4c3db4128f8b4b3254a8</title>
<image xlink:href="icons/web.png" width="101px" height="101px" preserveAspectRatio="xMinYMin meet" x="1744.5" y="-196.5"/>
<text text-anchor="middle" x="1795" y="-80.6" font-family="Sans-Serif" font-size="13.00" fill="#2d3436">[VM] </text>
<text text-anchor="middle" x="1795" y="-66.6" font-family="Sans-Serif" font-size="13.00" fill="#2d3436"> lemurier.immo </text>
<text text-anchor="middle" x="1795" y="-52.6" font-family="Sans-Serif" font-size="13.00" fill="#2d3436"> 192.168.0.121</text>
</g>
<!-- 1fc3561cf843471aa31d7f82af4a91f2&#45;&gt;33b0aeef254c4c3db4128f8b4b3254a8 -->
<g id="edge10" class="edge">
<title>1fc3561cf843471aa31d7f82af4a91f2&#45;&gt;33b0aeef254c4c3db4128f8b4b3254a8</title>
<path fill="none" stroke="#7b8894" d="M1557.83,-353C1640.5,-353 1795,-353 1795,-353 1795,-353 1795,-296.92 1795,-243.14"/>
</g>
<!-- 4c0ee44b91b84d67ab9f907f223b7aae -->
<g id="node23" class="node">
<title>4c0ee44b91b84d67ab9f907f223b7aae</title>
<image xlink:href="icons/web.png" width="101px" height="101px" preserveAspectRatio="xMinYMin meet" x="1888.5" y="-196.5"/>
<text text-anchor="middle" x="1939" y="-80.6" font-family="Sans-Serif" font-size="13.00" fill="#2d3436">[VM] </text>
<text text-anchor="middle" x="1939" y="-66.6" font-family="Sans-Serif" font-size="13.00" fill="#2d3436"> couvreur&#45;cognac.fr </text>
<text text-anchor="middle" x="1939" y="-52.6" font-family="Sans-Serif" font-size="13.00" fill="#2d3436"> 192.168.0.122</text>
</g>
<!-- 1fc3561cf843471aa31d7f82af4a91f2&#45;&gt;4c0ee44b91b84d67ab9f907f223b7aae -->
<g id="edge11" class="edge">
<title>1fc3561cf843471aa31d7f82af4a91f2&#45;&gt;4c0ee44b91b84d67ab9f907f223b7aae</title>
<path fill="none" stroke="#7b8894" d="M1557.83,-381C1672.02,-381 1939,-381 1939,-381 1939,-381 1939,-307.93 1939,-243.28"/>
</g>
<!-- 5b5581b8033f479c8c2d96e5b640e874 -->
<g id="node24" class="node">
<title>5b5581b8033f479c8c2d96e5b640e874</title>
<image xlink:href="icons/web.png" width="101px" height="101px" preserveAspectRatio="xMinYMin meet" x="2032.5" y="-196.5"/>
<text text-anchor="middle" x="2083" y="-80.6" font-family="Sans-Serif" font-size="13.00" fill="#2d3436">[VM] </text>
<text text-anchor="middle" x="2083" y="-66.6" font-family="Sans-Serif" font-size="13.00" fill="#2d3436"> beboop.boo </text>
<text text-anchor="middle" x="2083" y="-52.6" font-family="Sans-Serif" font-size="13.00" fill="#2d3436"> 192.168.0.123</text>
</g>
<!-- 1fc3561cf843471aa31d7f82af4a91f2&#45;&gt;5b5581b8033f479c8c2d96e5b640e874 -->
<g id="edge12" class="edge">
<title>1fc3561cf843471aa31d7f82af4a91f2&#45;&gt;5b5581b8033f479c8c2d96e5b640e874</title>
<path fill="none" stroke="#7b8894" d="M1557.61,-408C1698.17,-408 2083,-408 2083,-408 2083,-408 2083,-317.75 2083,-243.19"/>
</g>
<!-- 1bddfac443eb4ab9b5afa7ade68fb173 -->
<g id="node25" class="node">
<title>1bddfac443eb4ab9b5afa7ade68fb173</title>
<image xlink:href="icons/prusa.png" width="101px" height="61.7156px" preserveAspectRatio="xMinYMin meet" x="2176.5" y="-176.858"/>
<text text-anchor="middle" x="2227" y="-80.6" font-family="Sans-Serif" font-size="13.00" fill="#2d3436">mk4.heuzef.com </text>
<text text-anchor="middle" x="2227" y="-66.6" font-family="Sans-Serif" font-size="13.00" fill="#2d3436"> 192.168.0.204</text>
</g>
<!-- 1fc3561cf843471aa31d7f82af4a91f2&#45;&gt;1bddfac443eb4ab9b5afa7ade68fb173 -->
<g id="edge2" class="edge">
<title>1fc3561cf843471aa31d7f82af4a91f2&#45;&gt;1bddfac443eb4ab9b5afa7ade68fb173</title>
<path fill="none" stroke="#7b8894" d="M1557.63,-436C1721.52,-436 2227,-436 2227,-436 2227,-436 2227,-314.8 2227,-229.1"/>
</g>
<!-- 1a8fdb56c5d74b2288267adb3e5d4800 -->
<g id="node26" class="node">
<title>1a8fdb56c5d74b2288267adb3e5d4800</title>
<image xlink:href="icons/factorio.png" width="101px" height="101px" preserveAspectRatio="xMinYMin meet" x="2320.5" y="-196.5"/>
<text text-anchor="middle" x="2371" y="-80.6" font-family="Sans-Serif" font-size="13.00" fill="#2d3436">factorio.heuzef.com </text>
<text text-anchor="middle" x="2371" y="-66.6" font-family="Sans-Serif" font-size="13.00" fill="#2d3436"> 192.168.0.151</text>
</g>
<!-- 1fc3561cf843471aa31d7f82af4a91f2&#45;&gt;1a8fdb56c5d74b2288267adb3e5d4800 -->
<g id="edge1" class="edge">
<title>1fc3561cf843471aa31d7f82af4a91f2&#45;&gt;1a8fdb56c5d74b2288267adb3e5d4800</title>
<path fill="none" stroke="#7b8894" d="M1557.5,-464C1742.31,-464 2371,-464 2371,-464 2371,-464 2371,-323.36 2371,-229.14"/>
</g>
</g>
</svg>
